<?xml version="1.0" encoding="UTF-8" standalone="no"?>
<svg
   inkscape:export-ydpi="17.060751"
   inkscape:export-xdpi="17.060751"
   inkscape:export-filename="..\..\docs\_static\images\buttons\github-bug.png"
   inkscape:version="1.2.2 (732a01da63, 2022-12-09)"
   sodipodi:docname="github-bug2.svg"
   id="svg40"
   version="1.1"
   fill="none"
   viewBox="0 0 4500 900"
   height="900"
   width="4500"
   xmlns:inkscape="http://www.inkscape.org/namespaces/inkscape"
   xmlns:sodipodi="http://sodipodi.sourceforge.net/DTD/sodipodi-0.dtd"
   xmlns="http://www.w3.org/2000/svg"
   xmlns:svg="http://www.w3.org/2000/svg"
   xmlns:rdf="http://www.w3.org/1999/02/22-rdf-syntax-ns#"
   xmlns:cc="http://creativecommons.org/ns#"
   xmlns:dc="http://purl.org/dc/elements/1.1/">
  <metadata
     id="metadata44">
    <rdf:RDF>
      <cc:Work
         rdf:about="">
        <dc:format>image/svg+xml</dc:format>
        <dc:type
           rdf:resource="http://purl.org/dc/dcmitype/StillImage" />
      </cc:Work>
    </rdf:RDF>
  </metadata>
  <sodipodi:namedview
     inkscape:snap-object-midpoints="false"
     inkscape:guide-bbox="true"
     showguides="true"
     inkscape:current-layer="svg40"
     inkscape:window-maximized="1"
     inkscape:window-y="-11"
     inkscape:window-x="2869"
     inkscape:cy="442.61815"
     inkscape:cx="594.11832"
     inkscape:zoom="0.33663328"
     showgrid="false"
     id="namedview42"
     inkscape:window-height="1244"
     inkscape:window-width="2400"
     inkscape:pageshadow="2"
     inkscape:pageopacity="0"
     guidetolerance="10"
     gridtolerance="10"
     objecttolerance="10"
     borderopacity="1"
     bordercolor="#eeeeee"
     pagecolor="#505050"
     inkscape:document-rotation="0"
     inkscape:pagecheckerboard="0"
     width="4000px"
     inkscape:showpageshadow="0"
     inkscape:deskcolor="#505050"
     inkscape:lockguides="true">
    <sodipodi:guide
       position="207.94142,418.76415"
       orientation="1,0"
       id="guide4513"
       inkscape:locked="true" />
    <sodipodi:guide
       position="986.23644,386.08764"
       orientation="1,0"
       id="guide4565"
       inkscape:locked="true" />
    <sodipodi:guide
       position="1752.6491,285.08752"
       orientation="1,0"
       id="guide4567"
       inkscape:locked="true" />
    <sodipodi:guide
       position="2525.0029,368.26409"
       orientation="1,0"
       id="guide4569"
       inkscape:locked="true" />
  </sodipodi:namedview>
  <mask
     height="599"
     width="599"
     y="21"
     x="406"
     maskUnits="userSpaceOnUse"
     mask-type="alpha"
     id="mask0">
    <rect
       id="rect4"
       fill="#ffffff"
       transform="rotate(-45,406.51,320.148)"
       rx="56.537102"
       height="422.702"
       width="422.702"
       y="320.14801"
       x="406.51001" />
  </mask>
  <defs
     id="defs38">
    <rect
       x="205.28384"
       y="1341.9482"
       width="1334.3451"
       height="174.87143"
       id="rect2482" />
    <rect
       x="720.49402"
       y="801.32397"
       width="243.95853"
       height="98.689613"
       id="rect4023" />
    <linearGradient
       gradientUnits="userSpaceOnUse"
       y2="597.09998"
       x2="707.41602"
       y1="-4.4348102"
       x1="707.41602"
       id="paint0_linear">
      <stop
         id="stop33"
         stop-color="#D3D3D3" />
      <stop
         id="stop35"
         stop-color="white"
         offset="1" />
    </linearGradient>
    <mask
       height="599"
       width="599"
       y="21"
       x="406"
       maskUnits="userSpaceOnUse"
       mask-type="alpha"
       id="mask0-5">
      <rect
         id="rect4-1"
         fill="#ffffff"
         transform="rotate(-45,406.51,320.148)"
         rx="56.537102"
         height="422.702"
         width="422.702"
         y="320.14801"
         x="406.51001" />
    </mask>
    <rect
       x="205.28384"
       y="1341.9482"
       width="1334.3451"
       height="174.87143"
       id="rect2482-4" />
    <mask
       height="599"
       width="599"
       y="21"
       x="406"
       maskUnits="userSpaceOnUse"
       mask-type="alpha"
       id="mask0-5-9">
      <rect
         id="rect4-1-1"
         fill="#ffffff"
         transform="rotate(-45,406.51,320.148)"
         rx="56.537102"
         height="422.702"
         width="422.702"
         y="320.14801"
         x="406.51001" />
    </mask>
    <linearGradient
       gradientUnits="userSpaceOnUse"
       y2="597.09998"
       x2="707.41602"
       y1="-4.4348102"
       x1="707.41602"
       id="paint0_linear-9">
      <stop
         id="stop33-8"
         stop-color="#D3D3D3" />
      <stop
         id="stop35-0"
         stop-color="white"
         offset="1" />
    </linearGradient>
    <rect
       x="205.28384"
       y="1341.9482"
       width="1334.3451"
       height="174.87143"
       id="rect2482-4-7" />
    <mask
       height="599"
       width="599"
       y="21"
       x="406"
       maskUnits="userSpaceOnUse"
       mask-type="alpha"
       id="mask0-5-7">
      <rect
         id="rect4-1-5"
         fill="#ffffff"
         transform="rotate(-45,406.51,320.148)"
         rx="56.537102"
         height="422.702"
         width="422.702"
         y="320.14801"
         x="406.51001" />
    </mask>
    <linearGradient
       gradientUnits="userSpaceOnUse"
       y2="597.09998"
       x2="707.41602"
       y1="-4.4348102"
       x1="707.41602"
       id="paint0_linear-0">
      <stop
         id="stop33-9"
         stop-color="#D3D3D3" />
      <stop
         id="stop35-1"
         stop-color="white"
         offset="1" />
    </linearGradient>
    <rect
       x="205.28384"
       y="1341.9482"
       width="1039.0117"
       height="116.82903"
       id="rect2482-4-7-6" />
    <rect
       x="205.28384"
       y="1341.9482"
       width="499.55879"
       height="133.90032"
       id="rect2482-4-7-6-3" />
    <rect
       x="205.28384"
       y="1341.9482"
       width="1334.3451"
       height="174.87143"
       id="rect2482-4-7-6-5" />
    <rect
       x="205.28384"
       y="1341.9482"
       width="1334.3451"
       height="174.87143"
       id="rect2482-4-7-6-3-9" />
    <mask
       height="599"
       width="599"
       y="21"
       x="406"
       maskUnits="userSpaceOnUse"
       mask-type="alpha"
       id="mask0-5-7-4">
      <rect
         id="rect4-1-5-9"
         fill="#ffffff"
         transform="rotate(-45,406.51,320.148)"
         rx="56.537102"
         height="422.702"
         width="422.702"
         y="320.14801"
         x="406.51001" />
    </mask>
    <linearGradient
       gradientUnits="userSpaceOnUse"
       y2="597.09998"
       x2="707.41602"
       y1="-4.4348102"
       x1="707.41602"
       id="paint0_linear-0-5">
      <stop
         id="stop33-9-5"
         stop-color="#D3D3D3" />
      <stop
         id="stop35-1-9"
         stop-color="white"
         offset="1" />
    </linearGradient>
    <rect
       x="335.95602"
       y="255.2999"
       width="275.96387"
       height="242.6349"
       id="rect519" />
    <rect
       x="335.95602"
       y="255.2999"
       width="212.58875"
       height="162.15855"
       id="rect519-0" />
    <rect
       x="335.95602"
       y="255.2999"
       width="212.58875"
       height="162.15855"
       id="rect519-0-8" />
    <rect
       x="335.95602"
       y="255.2999"
       width="212.58875"
       height="162.15855"
       id="rect519-0-8-1" />
  </defs>
  <rect
     style="fill:none;fill-opacity:1;stroke-width:0.377953;-inkscape-stroke:none;stop-color:#000000;stroke:none"
     id="rect46006"
     width="4501.5605"
     height="901.94586"
     x="-1.4852952"
     y="-1.4852883" />
  <text
     xml:space="preserve"
     id="text4021"
     style="font-size:14.6667px;line-height:2px;font-family:'Adobe Gothic Std';-inkscape-font-specification:'Adobe Gothic Std';letter-spacing:0px;word-spacing:0px;writing-mode:lr-tb;white-space:pre;shape-inside:url(#rect4023);display:inline;fill:none;stroke:#000000;stroke-width:1px;stroke-linecap:butt;stroke-linejoin:miter;stroke-opacity:1" />
  <path
     d="M 2394.2735,77.35288 H 329.1403 c -89.4702,0 -130.1841,40.71385 -130.1841,130.17819 v 485.98841 c 0,89.47025 40.7139,130.1841 130.1841,130.1841 h 2065.1332 c 86.4996,0 128.1841,-37.00061 128.1841,-130.1841 V 207.53107 c 0,-89.46434 -38.7139,-130.17819 -128.1841,-130.17819 z m 92.813,575.66904 c 0,107.45076 -22.7933,133.30471 -133.3106,133.30471 H 369.6379 c -108.23364,0 -133.3106,-25.95765 -133.3106,-133.30471 V 248.03454 c 0,-110.21963 17.6311,-133.31061 133.3106,-133.31061 h 1984.138 c 108.7661,0 133.3106,18.40952 133.3106,133.31061 z"
     id="path132"
     style="fill:#00a3b9;fill-opacity:1;stroke-width:5.90601"
     sodipodi:nodetypes="ssssssssssssssssss" />
  <path
     id="XMLID_46_"
     d="m 842.012,498.72673 c 12.4552,0 22.5486,-10.09326 22.5486,-22.54876 0,-12.45555 -10.0934,-22.54881 -22.5486,-22.54881 h -77.5253 c -3.6505,-24.69631 -10.3078,-47.67461 -19.7568,-69.04228 3.6505,-2.36223 7.3016,-4.83184 10.9521,-7.40887 46.064,-31.99779 82.5714,-76.12897 105.6574,-127.23958 4.8317,-10.84492 0.1063,-23.51516 -10.7377,-28.45442 -10.8446,-4.83189 -23.5148,-0.10926 -28.4546,10.73749 -21.5823,47.67461 -56.5867,87.29601 -98.5702,114.24723 -2.04,-3.00651 -4.1874,-5.90566 -6.3348,-8.69737 -17.5025,-22.87094 -38.1186,-40.37306 -60.6672,-51.96958 11.9183,-12.02607 18.5756,-26.95123 18.5756,-42.52061 0,-19.64967 -10.5228,-38.22557 -28.9909,-51.21798 -16.2138,-11.48915 -37.5817,-17.8243 -60.0228,-17.8243 -22.4417,0 -43.8091,6.33515 -60.1304,17.8243 -18.3612,12.88504 -28.9908,31.56831 -28.9908,51.21798 0,16.53579 7.516,32.42728 20.938,44.7754 -20.938,11.59653 -40.0511,28.34711 -56.4793,49.71479 -1.718,2.1476 -3.3286,4.40234 -4.9392,6.65726 -40.1585,-26.62911 -72.693,-64.85462 -92.3429,-111.34808 -4.6173,-10.9523 -17.18,-15.99893 -28.1321,-11.38179 -10.9527,4.61715 -16.1063,17.18002 -11.4896,28.13231 23.4079,55.29821 62.3853,100.93265 110.5967,132.17884 -8.4828,18.5759 -14.9251,38.33295 -18.8981,59.80799 h -76.7735 c -12.4552,0 -22.5486,10.09327 -22.5486,22.54882 0,12.45549 10.0934,22.54876 22.5486,22.54876 h 71.8343 c -0.1063,2.1476 -0.1063,5.90566 -0.1063,8.91218 0,35.54117 6.4423,69.79382 18.4681,100.7179 -27.8103,12.6703 -73.7667,40.5878 -99.3221,94.70493 -5.0467,10.73749 -0.5374,23.51516 10.2009,28.56179 3.0068,1.39583 6.1204,2.04023 9.1272,2.04023 8.0528,0 15.7838,-4.50977 19.4349,-12.34812 20.1862,-42.73535 58.3042,-64.96199 79.6721,-74.62577 3.973,6.44252 8.1604,12.56287 12.6702,18.46853 33.7157,44.13123 79.2428,68.39799 127.8842,68.39799 48.7483,0 94.1679,-24.26676 127.8836,-68.39799 4.6173,-6.01303 8.9121,-12.34818 12.8851,-18.89801 21.153,9.23423 59.7004,31.3535 80.424,74.94788 3.6505,7.73098 11.3815,12.34812 19.435,12.34812 3.1136,0 6.2278,-0.64423 9.1265,-2.04023 10.7378,-5.04657 15.2476,-17.82424 10.2009,-28.56179 -25.8772,-54.54656 -72.4781,-82.35675 -100.1808,-94.8123 11.7033,-30.06505 18.0387,-63.24393 18.3606,-97.60402 z M 586.1368,217.18898 c 26.414,0 46.1714,13.74401 46.1714,26.09219 0,12.34812 -19.7574,26.09213 -46.1714,26.09213 -26.4141,0 -46.1715,-13.74401 -46.1715,-26.09213 0,-12.34818 19.7574,-26.09219 46.1715,-26.09219 z M 567.6681,676.4327 c -26.8435,-5.90567 -51.9694,-22.87094 -72.0487,-49.17781 -6.6573,-8.69744 -12.6702,-18.25379 -17.8244,-28.34711 -0.1063,-0.21439 -0.2126,-0.53686 -0.3189,-0.75178 -15.2476,-30.06511 -23.4079,-65.49885 -23.4079,-102.75808 0,-33.39368 6.5498,-65.2841 18.8981,-93.20166 29.6358,13.52926 61.7409,22.11927 95.1341,25.12579 l -1.1806,243.63429 c 0,2.04 0.3189,3.75818 0.7518,5.47618 z M 494.6532,365.04463 c 0.3189,-0.42936 0.6443,-0.85914 0.9662,-1.18102 25.4478,-33.28637 58.7341,-51.5401 93.846,-51.5401 35.0044,0 68.3982,18.3611 93.846,51.5401 0.7518,0.96652 1.5031,1.93262 2.1474,2.89908 -28.8839,12.24076 -59.7003,19.00539 -90.9467,19.00539 -35.2188,-0.1069 -69.0419,-7.40886 -99.8589,-20.72339 z m 188.5507,262.21026 c -20.6161,26.95116 -46.3858,44.13117 -74.0886,49.60729 0.5375,-1.82525 0.8588,-3.75812 0.8588,-5.69086 l 1.1812,-243.09744 c 32.9644,-2.04 65.2839,-9.98589 95.7784,-23.51516 11.704,27.38065 17.9319,58.51947 17.9319,90.94675 -0.2126,50.0369 -14.9251,96.85248 -41.6617,131.74942 z"
     style="fill:#006979;fill-opacity:1;stroke-width:1.07375" />
  <text
     xml:space="preserve"
     transform="matrix(5.4849805,0,0,5.4849805,128.79923,-1350.6549)"
     id="text517"
     style="font-style:normal;font-variant:normal;font-weight:bold;font-stretch:normal;font-size:131.268px;line-height:1.25;font-family:'Century Schoolbook';-inkscape-font-specification:'Century Schoolbook, Bold';font-variant-ligatures:normal;font-variant-caps:normal;font-variant-numeric:normal;font-variant-east-asian:normal;letter-spacing:0px;word-spacing:0px;white-space:pre;shape-inside:url(#rect519);display:inline;fill:#006979;fill-opacity:1;stroke:none"><tspan
       x="335.95508"
       y="375.58699"
       id="tspan1047">?</tspan></text>
  <text
     xml:space="preserve"
     transform="matrix(6.252528,0,0,6.252528,-847.75406,-1533.1234)"
     id="text517-3"
     style="font-style:normal;font-variant:normal;font-weight:bold;font-stretch:normal;font-size:121.551px;line-height:1.25;font-family:'Book Antiqua';-inkscape-font-specification:'Book Antiqua, Bold';font-variant-ligatures:normal;font-variant-caps:normal;font-variant-numeric:normal;font-variant-east-asian:normal;letter-spacing:0px;word-spacing:0px;white-space:pre;shape-inside:url(#rect519-0);display:inline;fill:#006979;fill-opacity:1;stroke:none"><tspan
       x="335.95508"
       y="359.53226"
       id="tspan1049">i</tspan></text>
  <rect
     style="fill:#00a3b9;fill-opacity:1;stroke:#00353d;stroke-width:1.16753;stop-color:#000000"
     id="rect4489"
     width="44.724686"
     height="539.32819"
     x="1727.0659"
     y="188.54965"
     rx="22.362343" />
  <rect
     style="fill:#00a3b9;fill-opacity:1;stroke:#00353d;stroke-width:1.16753;stop-color:#000000"
     id="rect4489-2"
     width="44.724686"
     height="539.32819"
     x="959.06592"
     y="188.54965"
     rx="22.362343" />
</svg>
