<?xml version="1.0" encoding="UTF-8" standalone="no"?>
<svg
   inkscape:export-ydpi="17.060751"
   inkscape:export-xdpi="17.060751"
   inkscape:export-filename="..\..\docs\_static\images\buttons\github-bug.png"
   inkscape:version="1.2.2 (732a01da63, 2022-12-09)"
   sodipodi:docname="support.svg"
   id="svg40"
   version="1.1"
   fill="none"
   viewBox="0 0 4500 900"
   height="900"
   width="4500"
   xml:space="preserve"
   xmlns:inkscape="http://www.inkscape.org/namespaces/inkscape"
   xmlns:sodipodi="http://sodipodi.sourceforge.net/DTD/sodipodi-0.dtd"
   xmlns="http://www.w3.org/2000/svg"
   xmlns:svg="http://www.w3.org/2000/svg"
   xmlns:rdf="http://www.w3.org/1999/02/22-rdf-syntax-ns#"
   xmlns:cc="http://creativecommons.org/ns#"
   xmlns:dc="http://purl.org/dc/elements/1.1/"><metadata
     id="metadata44"><rdf:RDF><cc:Work
         rdf:about=""><dc:format>image/svg+xml</dc:format><dc:type
           rdf:resource="http://purl.org/dc/dcmitype/StillImage" /></cc:Work></rdf:RDF></metadata><sodipodi:namedview
     inkscape:snap-object-midpoints="false"
     inkscape:guide-bbox="true"
     showguides="true"
     inkscape:current-layer="svg40"
     inkscape:window-maximized="1"
     inkscape:window-y="-11"
     inkscape:window-x="5269"
     inkscape:cy="491.63291"
     inkscape:cx="723.33906"
     inkscape:zoom="1.3465331"
     showgrid="false"
     id="namedview42"
     inkscape:window-height="1244"
     inkscape:window-width="2400"
     inkscape:pageshadow="2"
     inkscape:pageopacity="0"
     guidetolerance="10"
     gridtolerance="10"
     objecttolerance="10"
     borderopacity="1"
     bordercolor="#eeeeee"
     pagecolor="#505050"
     inkscape:document-rotation="0"
     inkscape:pagecheckerboard="0"
     width="4000px"
     inkscape:showpageshadow="0"
     inkscape:deskcolor="#505050"
     inkscape:lockguides="true"><sodipodi:guide
       position="207.94142,418.76415"
       orientation="1,0"
       id="guide4513"
       inkscape:locked="true" /><sodipodi:guide
       position="986.23644,386.08764"
       orientation="1,0"
       id="guide4565"
       inkscape:locked="true" /><sodipodi:guide
       position="1752.6491,285.08752"
       orientation="1,0"
       id="guide4567"
       inkscape:locked="true" /><sodipodi:guide
       position="2525.0029,368.26409"
       orientation="1,0"
       id="guide4569"
       inkscape:locked="true" /></sodipodi:namedview><mask
     height="599"
     width="599"
     y="21"
     x="406"
     maskUnits="userSpaceOnUse"
     mask-type="alpha"
     id="mask0"><rect
       id="rect4"
       fill="#ffffff"
       transform="rotate(-45,406.51,320.148)"
       rx="56.537102"
       height="422.702"
       width="422.702"
       y="320.14801"
       x="406.51001" /></mask><defs
     id="defs38"><rect
       x="205.28384"
       y="1341.9482"
       width="1334.3451"
       height="174.87143"
       id="rect2482" /><rect
       x="720.49402"
       y="801.32397"
       width="243.95853"
       height="98.689613"
       id="rect4023" /><linearGradient
       gradientUnits="userSpaceOnUse"
       y2="597.09998"
       x2="707.41602"
       y1="-4.4348102"
       x1="707.41602"
       id="paint0_linear"><stop
         id="stop33"
         stop-color="#D3D3D3" /><stop
         id="stop35"
         stop-color="white"
         offset="1" /></linearGradient><mask
       height="599"
       width="599"
       y="21"
       x="406"
       maskUnits="userSpaceOnUse"
       mask-type="alpha"
       id="mask0-5"><rect
         id="rect4-1"
         fill="#ffffff"
         transform="rotate(-45,406.51,320.148)"
         rx="56.537102"
         height="422.702"
         width="422.702"
         y="320.14801"
         x="406.51001" /></mask><rect
       x="205.28384"
       y="1341.9482"
       width="1334.3451"
       height="174.87143"
       id="rect2482-4" /><mask
       height="599"
       width="599"
       y="21"
       x="406"
       maskUnits="userSpaceOnUse"
       mask-type="alpha"
       id="mask0-5-9"><rect
         id="rect4-1-1"
         fill="#ffffff"
         transform="rotate(-45,406.51,320.148)"
         rx="56.537102"
         height="422.702"
         width="422.702"
         y="320.14801"
         x="406.51001" /></mask><linearGradient
       gradientUnits="userSpaceOnUse"
       y2="597.09998"
       x2="707.41602"
       y1="-4.4348102"
       x1="707.41602"
       id="paint0_linear-9"><stop
         id="stop33-8"
         stop-color="#D3D3D3" /><stop
         id="stop35-0"
         stop-color="white"
         offset="1" /></linearGradient><rect
       x="205.28384"
       y="1341.9482"
       width="1334.3451"
       height="174.87143"
       id="rect2482-4-7" /><mask
       height="599"
       width="599"
       y="21"
       x="406"
       maskUnits="userSpaceOnUse"
       mask-type="alpha"
       id="mask0-5-7"><rect
         id="rect4-1-5"
         fill="#ffffff"
         transform="rotate(-45,406.51,320.148)"
         rx="56.537102"
         height="422.702"
         width="422.702"
         y="320.14801"
         x="406.51001" /></mask><linearGradient
       gradientUnits="userSpaceOnUse"
       y2="597.09998"
       x2="707.41602"
       y1="-4.4348102"
       x1="707.41602"
       id="paint0_linear-0"><stop
         id="stop33-9"
         stop-color="#D3D3D3" /><stop
         id="stop35-1"
         stop-color="white"
         offset="1" /></linearGradient><rect
       x="205.28384"
       y="1341.9482"
       width="1039.0117"
       height="116.82903"
       id="rect2482-4-7-6" /><rect
       x="205.28384"
       y="1341.9482"
       width="499.55879"
       height="133.90032"
       id="rect2482-4-7-6-3" /><rect
       x="205.28384"
       y="1341.9482"
       width="1334.3451"
       height="174.87143"
       id="rect2482-4-7-6-5" /><rect
       x="205.28384"
       y="1341.9482"
       width="1334.3451"
       height="174.87143"
       id="rect2482-4-7-6-3-9" /><mask
       height="599"
       width="599"
       y="21"
       x="406"
       maskUnits="userSpaceOnUse"
       mask-type="alpha"
       id="mask0-5-7-4"><rect
         id="rect4-1-5-9"
         fill="#ffffff"
         transform="rotate(-45,406.51,320.148)"
         rx="56.537102"
         height="422.702"
         width="422.702"
         y="320.14801"
         x="406.51001" /></mask><linearGradient
       gradientUnits="userSpaceOnUse"
       y2="597.09998"
       x2="707.41602"
       y1="-4.4348102"
       x1="707.41602"
       id="paint0_linear-0-5"><stop
         id="stop33-9-5"
         stop-color="#D3D3D3" /><stop
         id="stop35-1-9"
         stop-color="white"
         offset="1" /></linearGradient><rect
       x="335.95602"
       y="255.2999"
       width="275.96387"
       height="242.6349"
       id="rect519" /><rect
       x="335.95602"
       y="255.2999"
       width="212.58875"
       height="162.15855"
       id="rect519-0" /><rect
       x="335.95602"
       y="255.2999"
       width="212.58875"
       height="162.15855"
       id="rect519-0-8" /><rect
       x="335.95602"
       y="255.2999"
       width="212.58875"
       height="162.15855"
       id="rect519-0-8-1" /></defs><rect
     style="fill:none;fill-opacity:1;stroke-width:0.377953;-inkscape-stroke:none;stop-color:#000000;stroke:none"
     id="rect46006"
     width="4501.5605"
     height="901.94586"
     x="-1.4852952"
     y="-1.4852883" /><text
     xml:space="preserve"
     id="text4021"
     style="font-size:14.6667px;line-height:2px;font-family:'Adobe Gothic Std';-inkscape-font-specification:'Adobe Gothic Std';letter-spacing:0px;word-spacing:0px;writing-mode:lr-tb;white-space:pre;shape-inside:url(#rect4023);display:inline;fill:none;stroke:#000000;stroke-width:1px;stroke-linecap:butt;stroke-linejoin:miter;stroke-opacity:1" /><path
     d="M 852.2735,77.35288 H 329.1403 c -89.4702,0 -130.1841,40.71385 -130.1841,130.17819 v 485.98841 c 0,89.47025 40.7139,130.1841 130.1841,130.1841 h 523.1332 c 86.4996,0 128.1841,-37.00061 128.1841,-130.1841 V 207.53107 c 0,-89.46434 -38.7139,-130.17819 -128.1841,-130.17819 z m 92.813,575.66904 c 0,107.45076 -22.7933,133.30471 -133.3106,133.30471 h -442.138 c -108.23364,0 -133.3106,-25.95765 -133.3106,-133.30471 V 248.03454 c 0,-110.21963 17.6311,-133.31061 133.3106,-133.31061 h 442.138 c 108.7661,0 133.3106,18.40952 133.3106,133.31061 z"
     id="path132"
     style="fill:#00a3b9;fill-opacity:1;stroke-width:5.90601"
     sodipodi:nodetypes="ssssssssssssssssss" /><path
     d="M 557.85424,706.59587 V 647.20243 H 808.56103 V 436.35547 q 0,-86.863 -63.85193,-147.37013 -63.85185,-60.50712 -155.51653,-60.50712 -91.66468,0 -155.51653,60.50712 -63.85187,60.50713 -63.85187,147.37013 v 181.15019 h -31.33834 q -25.85414,0 -44.26543,-17.44684 -18.41127,-17.44686 -18.41127,-41.94669 v -59.39349 q 0,-15.5908 8.22631,-29.32554 8.22632,-13.73476 23.11203,-21.90136 l 2.35038,-39.34819 q 6.26766,-50.48448 30.94662,-93.54476 24.67895,-43.06029 61.89323,-74.98429 37.21428,-31.92402 85.397,-49.74205 48.18269,-17.81806 101.45787,-17.81806 53.27518,0 101.06615,17.81806 47.79099,17.81803 85.397,49.37084 37.60609,31.5528 61.89324,74.61309 24.28724,43.06027 31.3384,93.54476 l 2.35031,38.60577 q 14.88575,6.68177 23.11204,20.0453 8.22637,13.36354 8.22637,28.21192 v 68.30253 q 0,14.84835 -8.22637,28.2119 -8.22629,13.36356 -23.11204,20.04529 v 36.37858 q 0,24.49981 -18.41125,41.94658 -18.41126,17.44686 -44.26539,17.44686 z M 495.17755,498.71864 q -13.3188,0 -22.32856,-8.53782 -9.00979,-8.53781 -9.00979,-21.15893 0,-12.62113 9.00979,-21.15893 9.00976,-8.53782 22.32856,-8.53782 13.31881,0 22.3286,8.53782 9.00977,8.5378 9.00977,21.15893 0,12.62112 -9.00977,21.15893 -9.00979,8.53782 -22.3286,8.53782 z m 188.03008,0 q -13.31876,0 -22.32853,-8.53782 -9.00979,-8.53781 -9.00979,-21.15893 0,-12.62113 9.00979,-21.15893 9.00977,-8.53782 22.32853,-8.53782 13.31877,0 22.32856,8.53782 9.00978,8.5378 9.00978,21.15893 0,12.62112 -9.00978,21.15893 -9.00979,8.53782 -22.32856,8.53782 z M 401.94597,452.68868 q -5.4842,-78.69639 50.14136,-135.12021 55.62554,-56.42383 138.67214,-56.42383 69.72784,0 122.6113,41.94666 52.88347,41.94666 63.85193,107.27951 -71.29473,-0.74241 -131.22937,-36.37852 -59.93456,-35.6361 -92.05637,-96.51443 -12.53537,59.3935 -52.88347,105.79467 -40.34812,46.40117 -99.10752,69.41615 z"
     id="path508"
     style="fill:#006979;fill-opacity:1;stroke:none;stroke-width:0.762663" /></svg>
