<?xml version="1.0" encoding="UTF-8" standalone="no"?>
<svg
   id="Camada_2"
   data-name="Camada 2"
   viewBox="0 0 212.52 212.52001"
   version="1.1"
   sodipodi:docname="level_icons_conductor.svg"
   inkscape:version="1.2.1 (9c6d41e410, 2022-07-14)"
   width="212.52"
   height="212.52"
   inkscape:export-filename="..\docs\_static\images\level_icons\conductor.png"
   inkscape:export-xdpi="54.213196"
   inkscape:export-ydpi="54.213196"
   xmlns:inkscape="http://www.inkscape.org/namespaces/inkscape"
   xmlns:sodipodi="http://sodipodi.sourceforge.net/DTD/sodipodi-0.dtd"
   xmlns="http://www.w3.org/2000/svg"
   xmlns:svg="http://www.w3.org/2000/svg">
  <sodipodi:namedview
     id="namedview117"
     pagecolor="#505050"
     bordercolor="#eeeeee"
     borderopacity="1"
     inkscape:showpageshadow="0"
     inkscape:pageopacity="0"
     inkscape:pagecheckerboard="0"
     inkscape:deskcolor="#505050"
     showgrid="false"
     inkscape:zoom="1.264872"
     inkscape:cx="306.7504"
     inkscape:cy="174.32594"
     inkscape:window-width="1600"
     inkscape:window-height="816"
     inkscape:window-x="1592"
     inkscape:window-y="-8"
     inkscape:window-maximized="1"
     inkscape:current-layer="Camada_2" />
  <defs
     id="defs4">
    <style
       id="style2">.cls-1,.cls-5,.cls-6,.cls-7{fill:#fff;}.cls-1,.cls-3,.cls-4,.cls-5,.cls-6,.cls-7,.cls-8{stroke:#29abe2;stroke-miterlimit:10;}.cls-1,.cls-3{stroke-width:5px;}.cls-2,.cls-3,.cls-4{fill:#29abe2;}.cls-4{stroke-width:4.03px;}.cls-5,.cls-8{stroke-width:2.09px;}.cls-6{stroke-width:1.85px;}.cls-7{stroke-width:2.34px;}.cls-8{fill:none;}</style>
    <rect
       x="243.5029"
       y="30.042564"
       width="752.64532"
       height="313.07516"
       id="rect6323" />
  </defs>
  <rect
     class="cls-3"
     x="26.299999"
     y="91.470001"
     width="159.44"
     height="40.41"
     rx="5.79"
     id="rect16"
     style="fill:#00a3b9;fill-opacity:1;stroke:#00a3b9;stroke-width:5px;stroke-miterlimit:10;stroke-opacity:1" />
  <path
     class="cls-3"
     d="m 39.49,131.88 h 132.78 v 15 A 41.42,41.42 0 0 1 130.85,188.3 H 80.91 A 41.42,41.42 0 0 1 39.49,146.88 Z"
     id="path18"
     style="fill:#00a3b9;fill-opacity:1;stroke:#00a3b9;stroke-width:5px;stroke-miterlimit:10;stroke-opacity:1" />
  <path
     class="cls-3"
     d="m 199.52,40.55 c 0,0 -38.48,-12.61 -98.51,-12.61 -60.03,0 -88,12.61 -88,12.61 0,0 -1.4,12.25 2.8,18.21 4.2,5.96 16.3,16.86 16.3,23.17 v 9.54 c -0.72,-0.73 149.05,-0.73 148.33,0 v -9.54 c 0,-6.31 12.1,-17.22 16.3,-23.17 4.2,-5.95 2.78,-18.21 2.78,-18.21 z"
     id="path20"
     style="fill:#00a3b9;fill-opacity:1;stroke:#00a3b9;stroke-width:5px;stroke-miterlimit:10;stroke-opacity:1" />
  <rect
     class="cls-5"
     x="35.720001"
     y="121.42999"
     width="140.69"
     height="8.2299995"
     id="rect22"
     style="fill:#ffffff;stroke:#00a3b9;stroke-width:2.09px;stroke-miterlimit:10;stroke-opacity:1" />
  <ellipse
     class="cls-6"
     cx="34.52"
     cy="125.42001"
     rx="4.3000002"
     ry="6.1900001"
     id="ellipse24"
     style="fill:#ffffff;stroke:#00a3b9;stroke-width:1.85px;stroke-miterlimit:10;stroke-opacity:1" />
  <ellipse
     class="cls-6"
     cx="177.50999"
     cy="125.42001"
     rx="4.3000002"
     ry="6.1900001"
     id="ellipse26"
     style="fill:#ffffff;stroke:#00a3b9;stroke-width:1.85px;stroke-miterlimit:10;stroke-opacity:1" />
  <path
     class="cls-1"
     d="m 143.06,186.37 a 29.32,29.32 0 0 1 -8.42,1.78 h -8.27 v -56.3 h 16.69 z"
     id="path28"
     style="fill:#ffffff;stroke:#00a3b9;stroke-width:5px;stroke-miterlimit:10;stroke-opacity:1" />
  <path
     class="cls-7"
     d="m 136.52,99.05 h -12.51 a 22.48,22.48 0 1 0 -38.25,0 H 73.37 a 5.79,5.79 0 0 0 -5.79,5.79 v 7.37 a 5.79,5.79 0 0 0 5.79,5.79 h 63.15 a 5.79,5.79 0 0 0 5.79,-5.79 v -7.36 a 5.79,5.79 0 0 0 -5.79,-5.8 z"
     id="path30"
     style="fill:#ffffff;stroke:#00a3b9;stroke-width:2.34px;stroke-miterlimit:10;stroke-opacity:1" />
  <rect
     style="fill:none;fill-opacity:1;stroke:none;stroke-width:0.377953;stroke-opacity:1;stop-color:#000000"
     id="rect5539"
     width="212.15865"
     height="212.17064"
     x="0.13975856"
     y="0.18565905" />
  <rect
     style="fill:none;fill-opacity:1;stroke:none;stroke-width:0.378252;stroke-opacity:1;stop-color:#000000"
     id="rect5539-2"
     width="212.49438"
     height="212.17064"
     x="0.0038752439"
     y="0.2103651" />
</svg>
