<?xml version="1.0" encoding="UTF-8" standalone="no"?>
<svg
   id="Camada_2"
   data-name="Camada 2"
   viewBox="0 0 799.99999 212.52001"
   version="1.1"
   sodipodi:docname="level_icons_tinkerer.svg"
   inkscape:version="1.2.1 (9c6d41e410, 2022-07-14)"
   width="800"
   height="212.52"
   inkscape:export-filename="..\docs\_static\images\level_icons\tinkerer-level.png"
   inkscape:export-xdpi="40.721939"
   inkscape:export-ydpi="40.721939"
   xmlns:inkscape="http://www.inkscape.org/namespaces/inkscape"
   xmlns:sodipodi="http://sodipodi.sourceforge.net/DTD/sodipodi-0.dtd"
   xmlns="http://www.w3.org/2000/svg"
   xmlns:svg="http://www.w3.org/2000/svg">
  <sodipodi:namedview
     id="namedview117"
     pagecolor="#505050"
     bordercolor="#eeeeee"
     borderopacity="1"
     inkscape:showpageshadow="0"
     inkscape:pageopacity="0"
     inkscape:pagecheckerboard="0"
     inkscape:deskcolor="#505050"
     showgrid="false"
     inkscape:zoom="1.264872"
     inkscape:cx="572.38992"
     inkscape:cy="211.48385"
     inkscape:window-width="1600"
     inkscape:window-height="816"
     inkscape:window-x="-8"
     inkscape:window-y="-8"
     inkscape:window-maximized="1"
     inkscape:current-layer="Camada_2" />
  <defs
     id="defs4">
    <style
       id="style2">.cls-1,.cls-5,.cls-6,.cls-7{fill:#fff;}.cls-1,.cls-3,.cls-4,.cls-5,.cls-6,.cls-7,.cls-8{stroke:#29abe2;stroke-miterlimit:10;}.cls-1,.cls-3{stroke-width:5px;}.cls-2,.cls-3,.cls-4{fill:#29abe2;}.cls-4{stroke-width:4.03px;}.cls-5,.cls-8{stroke-width:2.09px;}.cls-6{stroke-width:1.85px;}.cls-7{stroke-width:2.34px;}.cls-8{fill:none;}</style>
    <rect
       x="243.5029"
       y="30.042564"
       width="752.64532"
       height="313.07516"
       id="rect6323" />
  </defs>
  <path
     class="cls-1"
     d="M 179.95,140.39 H 32.09 a 5.8,5.8 0 0 1 -5.79,-5.8 c 0,0 3.21,-83 80.19,-83 76.98,0 79.25,83 79.25,83 a 5.8,5.8 0 0 1 -5.79,5.8 z"
     id="path6-0"
     style="fill:#ffffff;stroke:#00a3b9;stroke-width:5px;stroke-miterlimit:10;stroke-opacity:1" />
  <path
     class="cls-2"
     d="M 147.08,140.39 H 68.6 c -1.7,0 -3.08,-2.6 -3.08,-5.8 0,0 1.71,-83 42.57,-83 40.86,0 42.06,83 42.06,83 0,3.2 -1.38,5.8 -3.07,5.8 z"
     id="path8-0"
     style="fill:#00a3b9;fill-opacity:1" />
  <path
     class="cls-1"
     d="m 50.48,140.39 h 114.77 v 7.37 a 41.42,41.42 0 0 1 -41.42,41.42 H 91.9 A 41.42,41.42 0 0 1 50.48,147.76 Z"
     id="path10-9"
     style="fill:#ffffff;stroke:#00a3b9;stroke-width:5px;stroke-miterlimit:10;stroke-opacity:1" />
  <path
     class="cls-3"
     d="m 108.29,25.61 v 0 a 3.15,3.15 0 0 1 3.15,3.15 v 23 h -6.3 v -23 a 3.15,3.15 0 0 1 3.15,-3.15 z"
     id="path12-1"
     style="fill:#00a3b9;fill-opacity:1;stroke:#00a3b9;stroke-width:5px;stroke-miterlimit:10;stroke-opacity:1" />
  <path
     class="cls-4"
     d="m 45.19,36.15 c 0,25.15 122,-25.91 122,-2.19 -0.03,26.13 -122,-24.44 -122,2.19 z"
     id="path14-6"
     style="fill:#00a3b9;fill-opacity:1;stroke:#00a3b9;stroke-width:4.03px;stroke-miterlimit:10;stroke-opacity:1" />
  <rect
     style="fill:none;fill-opacity:1;stroke:none;stroke-width:0.377953;stroke-opacity:1;stop-color:#000000"
     id="rect5539"
     width="212.15865"
     height="212.17064"
     x="0.13975856"
     y="0.18565905" />
  <rect
     style="fill:none;fill-opacity:1;stroke:none;stroke-width:0.733883;stroke-opacity:1;stop-color:#000000"
     id="rect5539-0"
     width="799.90558"
     height="212.17064"
     x="0.13975856"
     y="0.18565905" />
  <text
     xml:space="preserve"
     id="text6321"
     style="font-style:normal;font-variant:normal;font-weight:normal;font-stretch:normal;font-size:80px;line-height:1.05;font-family:Audiowide;-inkscape-font-specification:'Audiowide, Normal';font-variant-ligatures:normal;font-variant-caps:normal;font-variant-numeric:normal;font-variant-east-asian:normal;letter-spacing:0px;word-spacing:0px;white-space:pre;shape-inside:url(#rect6323);display:inline;fill:#000000;fill-opacity:1;stroke:none"
     transform="translate(0,-6)"><tspan
       x="243.50195"
       y="99.491674"
       id="tspan8520"><tspan
         style="font-size:86.6667px;fill:#00a3b9"
         id="tspan8518">Tinkerer    
</tspan></tspan><tspan
       x="243.50195"
       y="190.4917"
       id="tspan8524"><tspan
         style="font-size:86.6667px;fill:#00a3b9"
         id="tspan8522">Level</tspan></tspan></text>
</svg>
