<?xml version="1.0" encoding="UTF-8" standalone="no"?>
<svg
   inkscape:export-ydpi="32.805386"
   inkscape:export-xdpi="32.805386"
   inkscape:export-filename="D:\users\akers\documents\_personal -D\DCC-EX\logo.png"
   inkscape:version="1.1 (c68e22c387, 2021-05-23)"
   sodipodi:docname="DCC-EX_logo.svg"
   id="svg40"
   version="1.1"
   fill="none"
   viewBox="0 0 1700 1700"
   height="1700"
   width="1700"
   xmlns:inkscape="http://www.inkscape.org/namespaces/inkscape"
   xmlns:sodipodi="http://sodipodi.sourceforge.net/DTD/sodipodi-0.dtd"
   xmlns="http://www.w3.org/2000/svg"
   xmlns:svg="http://www.w3.org/2000/svg"
   xmlns:rdf="http://www.w3.org/1999/02/22-rdf-syntax-ns#"
   xmlns:cc="http://creativecommons.org/ns#"
   xmlns:dc="http://purl.org/dc/elements/1.1/">
  <metadata
     id="metadata44">
    <rdf:RDF>
      <cc:Work
         rdf:about="">
        <dc:format>image/svg+xml</dc:format>
        <dc:type
           rdf:resource="http://purl.org/dc/dcmitype/StillImage" />
        <dc:title />
      </cc:Work>
    </rdf:RDF>
  </metadata>
  <sodipodi:namedview
     inkscape:snap-object-midpoints="false"
     inkscape:guide-bbox="true"
     showguides="true"
     inkscape:current-layer="svg40"
     inkscape:window-maximized="0"
     inkscape:window-y="155"
     inkscape:window-x="3230"
     inkscape:cy="1013.1138"
     inkscape:cx="969.39598"
     inkscape:zoom="0.2630504"
     showgrid="false"
     id="namedview42"
     inkscape:window-height="729"
     inkscape:window-width="1261"
     inkscape:pageshadow="2"
     inkscape:pageopacity="1"
     guidetolerance="10"
     gridtolerance="10"
     objecttolerance="10"
     borderopacity="1"
     bordercolor="#666666"
     pagecolor="#ffffff"
     inkscape:document-rotation="0"
     inkscape:pagecheckerboard="0" />
  <mask
     height="599"
     width="599"
     y="21"
     x="406"
     maskUnits="userSpaceOnUse"
     mask-type="alpha"
     id="mask0">
    <rect
       id="rect4"
       fill="#ffffff"
       transform="rotate(-45,406.51,320.148)"
       rx="56.537102"
       height="422.702"
       width="422.702"
       y="320.14801"
       x="406.51001" />
  </mask>
  <defs
     id="defs38">
    <rect
       x="720.49402"
       y="801.32397"
       width="243.95853"
       height="98.689613"
       id="rect4023" />
    <linearGradient
       gradientUnits="userSpaceOnUse"
       y2="597.09998"
       x2="707.41602"
       y1="-4.4348102"
       x1="707.41602"
       id="paint0_linear">
      <stop
         id="stop33"
         stop-color="#D3D3D3" />
      <stop
         id="stop35"
         stop-color="white"
         offset="1" />
    </linearGradient>
    <filter
       height="1.000262"
       y="-0.00013098584"
       width="1.0002883"
       x="-0.00014415405"
       id="filter948"
       style="color-interpolation-filters:sRGB"
       inkscape:collect="always">
      <feGaussianBlur
         id="feGaussianBlur950"
         stdDeviation="0.011230562"
         inkscape:collect="always" />
    </filter>
    <filter
       height="1.000262"
       y="-0.00013098584"
       width="1.0002622"
       x="-0.00013107693"
       id="filter952"
       style="color-interpolation-filters:sRGB"
       inkscape:collect="always">
      <feGaussianBlur
         id="feGaussianBlur954"
         stdDeviation="0.011230562"
         inkscape:collect="always" />
    </filter>
    <filter
       height="1.000262"
       y="-0.00013098584"
       width="1.0002883"
       x="-0.00014415405"
       id="filter956"
       style="color-interpolation-filters:sRGB"
       inkscape:collect="always">
      <feGaussianBlur
         id="feGaussianBlur958"
         stdDeviation="0.011230562"
         inkscape:collect="always" />
    </filter>
    <filter
       height="1.0016054"
       y="-0.00080270857"
       width="1.0004005"
       x="-0.00020024776"
       id="filter960"
       style="color-interpolation-filters:sRGB"
       inkscape:collect="always">
      <feGaussianBlur
         id="feGaussianBlur962"
         stdDeviation="0.011230562"
         inkscape:collect="always" />
    </filter>
    <mask
       height="599"
       width="599"
       y="21"
       x="406"
       maskUnits="userSpaceOnUse"
       mask-type="alpha"
       id="mask0-5">
      <rect
         id="rect4-1"
         fill="#ffffff"
         transform="rotate(-45,406.51,320.148)"
         rx="56.537102"
         height="422.702"
         width="422.702"
         y="320.14801"
         x="406.51001" />
    </mask>
  </defs>
  <text
     xml:space="preserve"
     id="text4021"
     style="font-size:14.6667px;line-height:2px;font-family:'Adobe Gothic Std';-inkscape-font-specification:'Adobe Gothic Std';letter-spacing:0px;word-spacing:0px;writing-mode:lr-tb;white-space:pre;shape-inside:url(#rect4023);fill:none;stroke:#000000;stroke-width:1px;stroke-linecap:butt;stroke-linejoin:miter;stroke-opacity:1" />
  <g
     transform="matrix(1.0404,0,0,1.0404,116.34075,285.11657)"
     id="g5386">
    <path
       d="m 289.63,834.902 c 0,12.532 -2.2,24.06 -6.601,34.583 -4.305,10.523 -10.284,19.611 -17.937,27.264 -7.653,7.558 -16.741,13.489 -27.264,17.794 C 227.305,918.848 215.873,921 203.532,921 H 102.798 c -2.6786,0 -5.1659,-0.478 -7.4618,-1.435 -2.29594,-0.956 -4.30489,-2.248 -6.02684,-3.874 -1.62629,-1.722 -2.91776,-3.731 -3.8744,-6.027 C 84.478321,907.368 84,904.881 84,902.202 V 734.025 c 0,-2.583 0.478321,-5.023 1.43496,-7.319 0.95664,-2.296 2.24811,-4.305 3.8744,-6.027 1.72195,-1.722 3.7309,-3.061 6.02684,-4.017 2.2959,-0.957 4.7832,-1.435 7.4618,-1.435 h 100.734 c 12.341,0 23.773,2.152 34.296,6.457 10.523,4.305 19.611,10.284 27.264,17.937 7.653,7.557 13.632,16.645 17.937,27.264 4.401,10.523 6.601,22.003 6.601,34.439 z m -37.309,-33.578 c 0,-7.27 -1.196,-13.919 -3.587,-19.946 -2.296,-6.027 -5.597,-11.145 -9.902,-15.354 -4.304,-4.305 -9.47,-7.605 -15.497,-9.901 -5.931,-2.392 -12.532,-3.587 -19.803,-3.587 h -82.223 v 131.155 h 82.223 c 7.271,0 13.872,-1.148 19.803,-3.444 6.027,-2.391 11.193,-5.692 15.497,-9.901 4.305,-4.305 7.606,-9.423 9.902,-15.354 2.391,-6.027 3.587,-12.723 3.587,-20.09 z"
       fill="#00353D"
       id="path17"
       style="fill:#00353d;fill-opacity:1;filter:url(#filter952)" />
    <path
       d="m 510.471,921 h -134.6 c -3.444,0 -7.175,-0.383 -11.192,-1.148 -3.923,-0.861 -7.845,-2.152 -11.767,-3.874 -3.827,-1.722 -7.51,-3.922 -11.049,-6.601 -3.54,-2.774 -6.697,-6.075 -9.471,-9.901 -2.679,-3.923 -4.831,-8.419 -6.457,-13.489 -1.627,-5.166 -2.44,-10.953 -2.44,-17.363 V 767.603 c 0,-3.444 0.383,-7.127 1.148,-11.05 0.861,-4.017 2.153,-7.94 3.875,-11.766 1.722,-3.922 3.97,-7.653 6.744,-11.193 2.774,-3.539 6.075,-6.649 9.901,-9.327 3.922,-2.774 8.419,-4.975 13.489,-6.601 5.07,-1.626 10.81,-2.439 17.219,-2.439 h 134.6 v 37.309 h -134.6 c -4.879,0 -8.609,1.291 -11.192,3.874 -2.583,2.583 -3.875,6.409 -3.875,11.48 v 100.734 c 0,4.783 1.292,8.514 3.875,11.193 2.678,2.583 6.409,3.874 11.192,3.874 h 134.6 z"
       fill="#00353D"
       id="path19"
       style="fill:#00353d;fill-opacity:1;filter:url(#filter948)" />
    <path
       d="M 728.298,921 H 593.699 c -3.444,0 -7.175,-0.383 -11.193,-1.148 -3.922,-0.861 -7.845,-2.152 -11.767,-3.874 -3.826,-1.722 -7.509,-3.922 -11.049,-6.601 -3.54,-2.774 -6.697,-6.075 -9.471,-9.901 -2.678,-3.923 -4.831,-8.419 -6.457,-13.489 -1.626,-5.166 -2.44,-10.953 -2.44,-17.363 V 767.603 c 0,-3.444 0.383,-7.127 1.148,-11.05 0.861,-4.017 2.153,-7.94 3.875,-11.766 1.722,-3.922 3.97,-7.653 6.744,-11.193 2.774,-3.539 6.075,-6.649 9.901,-9.327 3.923,-2.774 8.419,-4.975 13.489,-6.601 5.07,-1.626 10.81,-2.439 17.22,-2.439 h 134.599 v 37.309 H 593.699 c -4.879,0 -8.61,1.291 -11.193,3.874 -2.583,2.583 -3.875,6.409 -3.875,11.48 v 100.734 c 0,4.783 1.292,8.514 3.875,11.193 2.678,2.583 6.409,3.874 11.193,3.874 h 134.599 z"
       fill="#00353D"
       id="path21"
       style="fill:#00353d;fill-opacity:1;filter:url(#filter956)" />
    <path
       d="m 796.44,834.902 h -134.6 v -33.578 h 134.6 z"
       fill="#00353D"
       id="path23"
       style="fill:#00353d;fill-opacity:1;filter:url(#filter960)"
       sodipodi:nodetypes="ccccc"
       transform="matrix(0.82100087,0,0,1.0000408,202.46633,-0.03228922)" />
    <path
       d="M 1061.74,836.911 H 929 v -37.596 h 132.74 z M 1078.53,921 h -134.6 c -5.17,0 -10.81,-0.909 -16.94,-2.726 -6.12,-1.818 -11.81,-4.784 -17.07,-8.897 -5.17,-4.209 -9.521,-9.614 -13.061,-16.215 -3.444,-6.697 -5.166,-14.876 -5.166,-24.538 V 734.025 c 0,-2.583 0.479,-5.023 1.435,-7.319 0.957,-2.296 2.248,-4.305 3.875,-6.027 1.722,-1.722 3.731,-3.061 6.027,-4.017 2.3,-0.957 4.78,-1.435 7.46,-1.435 h 168.04 v 37.309 H 929 v 116.088 c 0,4.879 1.29,8.61 3.88,11.193 2.58,2.583 6.36,3.874 11.33,3.874 h 134.32 z"
       fill="#00a3b9"
       id="path27" />
    <path
       d="m 1208.68,788.697 62.85,-73.47 h 50.94 L 1233.93,818.4 1321.9,921 h -50.66 L 1208.68,848.104 1146.4,921 h -50.8 l 87.82,-102.6 -88.11,-103.173 h 50.52 z"
       fill="#00a3b9"
       id="path29" />
    <path
       d="M 133.14071,661.48357 H 1273.1285"
       stroke="#000000"
       stroke-width="5.24383"
       id="path31"
       style="fill:#000000" />
    <g
       id="g5370"
       transform="translate(3.6894903e-8,1.4735106)">
      <rect
         id="rect2"
         stroke-linejoin="round"
         stroke-miterlimit="16"
         stroke-width="14.3637"
         stroke="#00353D"
         fill="#ffffff"
         transform="rotate(-45)"
         rx="63.718899"
         height="437.06601"
         width="437.06601"
         y="506.54724"
         x="57.163441"
         style="stroke:#00353d;stroke-opacity:0.956863" />
      <g
         transform="translate(1.8796397,-2.1336634)"
         id="g15"
         mask="url(#mask0-5)">
        <path
           style="fill:url(#paint0_linear)"
           id="path7"
           fill="url(#paint0_linear)"
           d="m 558.03,10.9856 c 7.305,6.359 311.428,260.2244 19.227,487.4164 l 94.853,87.162 49.99,11.536 61.722,-42.127 C 1014.79,279.491 624.481,0.449243 615.806,-4.43481 Z" />
        <path
           id="path9"
           stroke-width="10.2598"
           stroke="#00353d"
           d="m 579.281,51.6391 91.645,-38.7324 33.869,26.0143 -101.607,42.7791 16.603,28.3269 111.567,-45.0917 30.549,29.4829 -130.163,47.4038 13.282,29.483 146.765,-45.67 25.235,34.108 -158.054,45.092 2.656,39.888 186.611,-39.888 40.51,57.809 -223.136,26.592 -21.915,47.404 262.981,-19.077 v 71.684 l -284.896,-3.469 -23.908,41.045 284.233,48.56 -44.495,83.246 -279.583,-83.246" />
        <path
           id="path11"
           stroke-width="20.5195"
           stroke="#ffffff"
           d="M 570.647,491.57 C 862.849,264.379 565.999,11.7512 558.694,5.39221 M 616.47,-10.0282 c 8.675,4.88406 398.99,283.9262 168.016,559.4082 L 736.2,597.1" />
        <path
           id="path13"
           stroke-width="10.2598"
           stroke="#00353d"
           d="M 570.647,491.57 C 862.849,264.379 565.999,11.7512 558.694,5.39221 M 616.47,-10.0282 c 8.675,4.88406 398.99,283.9262 168.016,559.4082 l -44.441,45.157" />
      </g>
    </g>
  </g>
</svg>
