<?xml version="1.0" encoding="UTF-8" standalone="no"?>
<svg
   inkscape:export-ydpi="17.060751"
   inkscape:export-xdpi="17.060751"
   inkscape:export-filename="..\..\docs\_static\images\logos\product-logo-contributing.png"
   inkscape:version="1.2.2 (732a01da63, 2022-12-09)"
   sodipodi:docname="DCC-EX_product-contributing.svg"
   id="svg40"
   version="1.1"
   fill="none"
   viewBox="0 0 4500 900"
   height="900"
   width="4500"
   xmlns:inkscape="http://www.inkscape.org/namespaces/inkscape"
   xmlns:sodipodi="http://sodipodi.sourceforge.net/DTD/sodipodi-0.dtd"
   xmlns="http://www.w3.org/2000/svg"
   xmlns:svg="http://www.w3.org/2000/svg"
   xmlns:rdf="http://www.w3.org/1999/02/22-rdf-syntax-ns#"
   xmlns:cc="http://creativecommons.org/ns#"
   xmlns:dc="http://purl.org/dc/elements/1.1/">
  <metadata
     id="metadata44">
    <rdf:RDF>
      <cc:Work
         rdf:about="">
        <dc:format>image/svg+xml</dc:format>
        <dc:type
           rdf:resource="http://purl.org/dc/dcmitype/StillImage" />
      </cc:Work>
    </rdf:RDF>
  </metadata>
  <sodipodi:namedview
     inkscape:snap-object-midpoints="false"
     inkscape:guide-bbox="true"
     showguides="true"
     inkscape:current-layer="svg40"
     inkscape:window-maximized="1"
     inkscape:window-y="-11"
     inkscape:window-x="2869"
     inkscape:cy="-84.021021"
     inkscape:cx="659.56501"
     inkscape:zoom="0.47607134"
     showgrid="false"
     id="namedview42"
     inkscape:window-height="1244"
     inkscape:window-width="2400"
     inkscape:pageshadow="2"
     inkscape:pageopacity="0"
     guidetolerance="10"
     gridtolerance="10"
     objecttolerance="10"
     borderopacity="1"
     bordercolor="#eeeeee"
     pagecolor="#505050"
     inkscape:document-rotation="0"
     inkscape:pagecheckerboard="0"
     width="4000px"
     inkscape:showpageshadow="0"
     inkscape:deskcolor="#505050" />
  <mask
     height="599"
     width="599"
     y="21"
     x="406"
     maskUnits="userSpaceOnUse"
     mask-type="alpha"
     id="mask0">
    <rect
       id="rect4"
       fill="#ffffff"
       transform="rotate(-45,406.51,320.148)"
       rx="56.537102"
       height="422.702"
       width="422.702"
       y="320.14801"
       x="406.51001" />
  </mask>
  <defs
     id="defs38">
    <rect
       x="205.28384"
       y="1341.9482"
       width="1334.3451"
       height="174.87143"
       id="rect2482" />
    <rect
       x="720.49402"
       y="801.32397"
       width="243.95853"
       height="98.689613"
       id="rect4023" />
    <linearGradient
       gradientUnits="userSpaceOnUse"
       y2="597.09998"
       x2="707.41602"
       y1="-4.4348102"
       x1="707.41602"
       id="paint0_linear">
      <stop
         id="stop33"
         stop-color="#D3D3D3" />
      <stop
         id="stop35"
         stop-color="white"
         offset="1" />
    </linearGradient>
    <mask
       height="599"
       width="599"
       y="21"
       x="406"
       maskUnits="userSpaceOnUse"
       mask-type="alpha"
       id="mask0-5">
      <rect
         id="rect4-1"
         fill="#ffffff"
         transform="rotate(-45,406.51,320.148)"
         rx="56.537102"
         height="422.702"
         width="422.702"
         y="320.14801"
         x="406.51001" />
    </mask>
    <rect
       x="205.28384"
       y="1341.9482"
       width="1334.3451"
       height="174.87143"
       id="rect2482-4" />
    <mask
       height="599"
       width="599"
       y="21"
       x="406"
       maskUnits="userSpaceOnUse"
       mask-type="alpha"
       id="mask0-5-9">
      <rect
         id="rect4-1-1"
         fill="#ffffff"
         transform="rotate(-45,406.51,320.148)"
         rx="56.537102"
         height="422.702"
         width="422.702"
         y="320.14801"
         x="406.51001" />
    </mask>
    <linearGradient
       gradientUnits="userSpaceOnUse"
       y2="597.09998"
       x2="707.41602"
       y1="-4.4348102"
       x1="707.41602"
       id="paint0_linear-9">
      <stop
         id="stop33-8"
         stop-color="#D3D3D3" />
      <stop
         id="stop35-0"
         stop-color="white"
         offset="1" />
    </linearGradient>
    <rect
       x="205.28384"
       y="1341.9482"
       width="1334.3451"
       height="174.87143"
       id="rect2482-4-7" />
    <mask
       height="599"
       width="599"
       y="21"
       x="406"
       maskUnits="userSpaceOnUse"
       mask-type="alpha"
       id="mask0-5-7">
      <rect
         id="rect4-1-5"
         fill="#ffffff"
         transform="rotate(-45,406.51,320.148)"
         rx="56.537102"
         height="422.702"
         width="422.702"
         y="320.14801"
         x="406.51001" />
    </mask>
    <linearGradient
       gradientUnits="userSpaceOnUse"
       y2="597.09998"
       x2="707.41602"
       y1="-4.4348102"
       x1="707.41602"
       id="paint0_linear-0">
      <stop
         id="stop33-9"
         stop-color="#D3D3D3" />
      <stop
         id="stop35-1"
         stop-color="white"
         offset="1" />
    </linearGradient>
    <rect
       x="205.28384"
       y="1341.9482"
       width="1039.0117"
       height="116.82903"
       id="rect2482-4-7-6" />
    <rect
       x="205.28384"
       y="1341.9482"
       width="499.55879"
       height="133.90032"
       id="rect2482-4-7-6-3" />
    <rect
       x="205.28384"
       y="1341.9482"
       width="1334.3451"
       height="174.87143"
       id="rect2482-4-7-6-5" />
    <rect
       x="205.28384"
       y="1341.9482"
       width="1334.3451"
       height="174.87143"
       id="rect2482-4-7-6-3-9" />
    <mask
       height="599"
       width="599"
       y="21"
       x="406"
       maskUnits="userSpaceOnUse"
       mask-type="alpha"
       id="mask0-5-7-4">
      <rect
         id="rect4-1-5-9"
         fill="#ffffff"
         transform="rotate(-45,406.51,320.148)"
         rx="56.537102"
         height="422.702"
         width="422.702"
         y="320.14801"
         x="406.51001" />
    </mask>
    <linearGradient
       gradientUnits="userSpaceOnUse"
       y2="597.09998"
       x2="707.41602"
       y1="-4.4348102"
       x1="707.41602"
       id="paint0_linear-0-5">
      <stop
         id="stop33-9-5"
         stop-color="#D3D3D3" />
      <stop
         id="stop35-1-9"
         stop-color="white"
         offset="1" />
    </linearGradient>
    <rect
       x="205.28384"
       y="1341.9482"
       width="1039.0117"
       height="116.82903"
       id="rect2482-4-7-6-1" />
    <rect
       x="205.28384"
       y="1341.9482"
       width="499.55878"
       height="133.90031"
       id="rect2482-4-7-6-3-6" />
  </defs>
  <text
     xml:space="preserve"
     id="text2480-6-0-6-7"
     style="font-style:normal;font-variant:normal;font-weight:normal;font-stretch:normal;font-size:88.1171px;line-height:1.25;font-family:Audiowide;-inkscape-font-specification:'Audiowide, Normal';font-variant-ligatures:normal;font-variant-caps:normal;font-variant-numeric:normal;font-variant-east-asian:normal;letter-spacing:0px;word-spacing:0px;white-space:pre;shape-inside:url(#rect2482-4-7-6-1);display:inline;fill:#ffffff;fill-opacity:0.470588;stroke:none"
     transform="matrix(3.4802183,0,0,3.4802183,112.67054,-4189.4634)"
     inkscape:export-filename="D:\users\akers\documents\_personal -D\DCC-EX\product-logo-ex-turntable.png"
     inkscape:export-xdpi="18.431187"
     inkscape:export-ydpi="18.431187"><tspan
       x="205.2832"
       y="1421.3719"
       id="tspan1030">Contributing</tspan></text>
  <text
     xml:space="preserve"
     id="text2480-6-0-6-4-3"
     style="font-style:normal;font-variant:normal;font-weight:normal;font-stretch:normal;font-size:88.1171px;line-height:1.25;font-family:Audiowide;-inkscape-font-specification:'Audiowide, Normal';font-variant-ligatures:normal;font-variant-caps:normal;font-variant-numeric:normal;font-variant-east-asian:normal;letter-spacing:0px;word-spacing:0px;white-space:pre;shape-inside:url(#rect2482-4-7-6-3-6);display:inline;fill:#ffffff;fill-opacity:0.470588;stroke:none"
     transform="matrix(3.4802183,0,0,3.4802183,112.67083,-4555.0201)"
     inkscape:export-filename="D:\users\akers\documents\_personal -D\DCC-EX\product-logo-ex-commandstation.png"
     inkscape:export-xdpi="18.431187"
     inkscape:export-ydpi="18.431187"><tspan
       x="205.2832"
       y="1421.3719"
       id="tspan1032">DCC-EX</tspan></text>
  <path
     d="M 916.02466,472.51298 H 2102.0679"
     stroke="#000000"
     stroke-width="5.45568"
     id="path31-1-8"
     style="fill:#ffffff;fill-opacity:0.470588;stroke:#ffffff;stroke-opacity:0.47058824"
     inkscape:export-filename="D:\users\akers\documents\_personal -D\DCC-EX\product-logo-ex-commandstation.png"
     inkscape:export-xdpi="18.431187"
     inkscape:export-ydpi="18.431187" />
  <rect
     style="fill:none;fill-opacity:1;stroke-width:0.377953;-inkscape-stroke:none;stop-color:#000000;stroke:none"
     id="rect46006"
     width="4501.5605"
     height="901.94586"
     x="-1.4852952"
     y="-1.4852883" />
  <text
     xml:space="preserve"
     id="text4021"
     style="font-size:14.6667px;line-height:2px;font-family:'Adobe Gothic Std';-inkscape-font-specification:'Adobe Gothic Std';letter-spacing:0px;word-spacing:0px;writing-mode:lr-tb;white-space:pre;shape-inside:url(#rect4023);display:inline;fill:none;stroke:#000000;stroke-width:1px;stroke-linecap:butt;stroke-linejoin:miter;stroke-opacity:1" />
  <text
     xml:space="preserve"
     id="text2480-6-0-6"
     style="font-style:normal;font-variant:normal;font-weight:normal;font-stretch:normal;font-size:88.1171px;line-height:1.25;font-family:Audiowide;-inkscape-font-specification:'Audiowide, Normal';font-variant-ligatures:normal;font-variant-caps:normal;font-variant-numeric:normal;font-variant-east-asian:normal;letter-spacing:0px;word-spacing:0px;white-space:pre;shape-inside:url(#rect2482-4-7-6);display:inline;fill:#000000;fill-opacity:1;stroke:none"
     transform="matrix(3.4802183,0,0,3.4802183,104.67054,-4197.4634)"
     inkscape:export-filename="D:\users\akers\documents\_personal -D\DCC-EX\product-logo-ex-turntable.png"
     inkscape:export-xdpi="18.431187"
     inkscape:export-ydpi="18.431187"><tspan
       x="205.2832"
       y="1421.3719"
       id="tspan1036"><tspan
         style="fill:#00353d"
         id="tspan1034">Contributing</tspan></tspan></text>
  <text
     xml:space="preserve"
     id="text2480-6-0-6-4"
     style="font-style:normal;font-variant:normal;font-weight:normal;font-stretch:normal;font-size:88.1171px;line-height:1.25;font-family:Audiowide;-inkscape-font-specification:'Audiowide, Normal';font-variant-ligatures:normal;font-variant-caps:normal;font-variant-numeric:normal;font-variant-east-asian:normal;letter-spacing:0px;word-spacing:0px;white-space:pre;shape-inside:url(#rect2482-4-7-6-3);display:inline;fill:#000000;fill-opacity:1;stroke:none"
     transform="matrix(3.4802183,0,0,3.4802183,104.67083,-4563.0201)"
     inkscape:export-filename="D:\users\akers\documents\_personal -D\DCC-EX\product-logo-ex-commandstation.png"
     inkscape:export-xdpi="18.431187"
     inkscape:export-ydpi="18.431187"><tspan
       x="205.2832"
       y="1421.3719"
       id="tspan1042"><tspan
         style="fill:#00353d"
         id="tspan1038">DCC-</tspan><tspan
         style="fill:#00a3b9"
         id="tspan1040">EX</tspan></tspan></text>
  <path
     d="M 910.02466,466.51298 H 2096.0679"
     stroke="#000000"
     stroke-width="5.45568"
     id="path31-1"
     style="fill:#000000"
     inkscape:export-filename="D:\users\akers\documents\_personal -D\DCC-EX\product-logo-ex-commandstation.png"
     inkscape:export-xdpi="18.431187"
     inkscape:export-ydpi="18.431187" />
  <g
     id="Teamwork"
     transform="matrix(2.9125531,0,0,2.9125531,113.83822,132.65159)"
     style="fill:#00a3b9;fill-opacity:1">
    <circle
       cx="165.33"
       cy="71.089996"
       r="16.48"
       id="circle185"
       style="fill:#00a3b9;fill-opacity:1" />
    <path
       d="m 75.4,216.61 6.37,-47.81 -2.07,-15.5 0.63,-0.58 -11.87,-10.84 -0.1,-0.1 a 23.17,23.17 0 0 1 -3.18,-28.72 l -0.32,-0.47 3.48,-3.54 9.29,-9.29 c 0.66,-0.65 1.33,-1.12 2,-1.68 A 35.27,35.27 0 0 0 62.7,93.87 h -9.5 a 35,35 0 0 0 -25,10 l -9.29,9 v 0 a 17.39,17.39 0 0 0 0,24.43 l 17.29,15.87 -8.54,64.15 a 2.25,2.25 0 0 0 2.12,2.55 h 13 A 2.21,2.21 0 0 0 45,218 l 7,-51.38 a 6.44,6.44 0 0 1 0.83,-2.42 6,6 0 0 1 11,2.39 L 71,218 a 2.21,2.21 0 0 0 2.13,1.91 h 2.53 a 8.68,8.68 0 0 1 -0.26,-3.3 z M 39.11,133.51 33.65,128 a 3.73,3.73 0 0 1 0,-5.28 l 6.9,-6.91 a 0.53,0.53 0 0 1 0.9,0.45 z"
       id="path187-3"
       style="fill:#00a3b9;fill-opacity:1" />
    <circle
       cx="57.950001"
       cy="71.089996"
       r="16.48"
       id="circle189"
       style="fill:#00a3b9;fill-opacity:1" />
    <path
       d="m 91.69,27 2.39,0.53 a 1.09,1.09 0 0 1 0.84,0.86 17,17 0 0 0 1.8,4.7 1.14,1.14 0 0 1 0,1.17 l -1.49,2.32 A 1.15,1.15 0 0 0 95.34,38 l 2.34,2.34 a 1.12,1.12 0 0 0 1.41,0.15 l 2.11,-1.35 a 1.12,1.12 0 0 1 1.22,0 17.2,17.2 0 0 0 4.58,2.03 1.14,1.14 0 0 1 0.79,0.85 l 0.6,2.83 a 1.25,1.25 0 0 0 1.1,1 h 3.31 a 1.27,1.27 0 0 0 1.11,-1 l 0.53,-2.49 a 1.18,1.18 0 0 1 0.87,-0.9 17.12,17.12 0 0 0 4.69,-1.79 1.12,1.12 0 0 1 1.16,0 l 2.3,1.47 A 1.13,1.13 0 0 0 124.9,41 l 2.34,-2.34 a 1.12,1.12 0 0 0 0.15,-1.41 l -1.31,-2 a 1.12,1.12 0 0 1 0,-1.22 17.1,17.1 0 0 0 2.11,-4.66 1.14,1.14 0 0 1 0.85,-0.79 L 131.8,28 a 1.29,1.29 0 0 0 1.06,-1.1 v -3.35 a 1.29,1.29 0 0 0 -1.06,-1.1 l -2.39,-0.51 a 1.19,1.19 0 0 1 -0.9,-0.87 17.15,17.15 0 0 0 -1.85,-4.84 1.16,1.16 0 0 1 0,-1.17 l 1.41,-2.2 a 1.14,1.14 0 0 0 -0.16,-1.41 L 125.6,9.11 A 1.13,1.13 0 0 0 124.19,9 l -2,1.26 a 1.1,1.1 0 0 1 -1.22,0 17.27,17.27 0 0 0 -4.75,-2.13 1.12,1.12 0 0 1 -0.8,-0.84 l -0.55,-2.51 a 1.12,1.12 0 0 0 -1.11,-0.86 h -3.31 a 1.1,1.1 0 0 0 -1.1,0.86 L 108.87,7 a 1.12,1.12 0 0 1 -0.86,0.86 16.91,16.91 0 0 0 -4.83,1.85 1.14,1.14 0 0 1 -1.17,0 L 99.79,8.26 A 1.13,1.13 0 0 0 98.38,8.41 L 96,10.75 a 1.13,1.13 0 0 0 -0.15,1.41 l 1.3,2 a 1.12,1.12 0 0 1 0,1.22 16.89,16.89 0 0 0 -2.07,4.67 1.15,1.15 0 0 1 -0.85,0.8 l -2.58,0.58 a 1.06,1.06 0 0 0 -0.82,1.1 v 3.31 A 1.08,1.08 0 0 0 91.69,27 Z m 20,-12.08 a 9.81,9.81 0 1 1 -9.81,9.81 9.81,9.81 0 0 1 9.76,-9.83 z"
       id="path191"
       style="fill:#00a3b9;fill-opacity:1" />
    <path
       d="m 57.77,45.46 a 2.43,2.43 0 0 0 0.38,0 2.75,2.75 0 0 0 2.72,-2.37 18.21,18.21 0 0 1 18,-15.66 2.75,2.75 0 0 0 0,-5.5 23.73,23.73 0 0 0 -23.45,20.44 2.74,2.74 0 0 0 2.35,3.09 z"
       id="path193-4"
       style="fill:#00a3b9;fill-opacity:1" />
    <path
       d="m 143.26,27.46 a 18.2,18.2 0 0 1 18,15.69 2.75,2.75 0 0 0 2.74,2.39 2.31,2.31 0 0 0 0.37,0 2.75,2.75 0 0 0 2.36,-3.09 23.73,23.73 0 0 0 -23.47,-20.45 2.75,2.75 0 0 0 0,5.5 z"
       id="path195-0"
       style="fill:#00a3b9;fill-opacity:1" />
    <path
       d="m 138.49,191.46 -5.09,-38.16 5.1,-4.65 12.17,-11.11 a 17.11,17.11 0 0 0 0,-24.21 v 0 L 141.41,104 a 29.91,29.91 0 0 0 -2.93,-2.49 35.17,35.17 0 0 0 -22.08,-7.65 h -9.52 a 35.22,35.22 0 0 0 -22.08,7.64 31.91,31.91 0 0 0 -2.92,2.55 l -9.3,9.26 v 0 a 17.12,17.12 0 0 0 0,24.2 l 12.18,11.11 5.09,4.65 -5.09,38.16 -3.44,25.87 a 2.2,2.2 0 0 0 1.9,2.47 c 0.07,0 0.15,0.07 0.21,0.07 H 96.52 A 2.19,2.19 0 0 0 98.63,218 l 7.07,-51.33 a 6.81,6.81 0 0 1 0.84,-2.43 6,6 0 0 1 10.2,0 6.59,6.59 0 0 1 0.84,2.41 l 7.07,51.35 a 2.19,2.19 0 0 0 2.12,1.91 h 13 c 0.06,0 0.14,-0.06 0.22,-0.07 a 2.19,2.19 0 0 0 1.9,-2.45 z m -45.7,-57.94 -5.46,-5.47 a 3.75,3.75 0 0 1 0,-5.28 l 6.92,-6.91 a 0.53,0.53 0 0 1 0.9,0.44 z m 35.34,-17.22 a 0.53,0.53 0 0 1 0.91,-0.44 l 6.91,6.91 a 3.73,3.73 0 0 1 0,5.28 l -5.46,5.47 z"
       id="path197-0"
       style="fill:#00a3b9;fill-opacity:1" />
    <path
       d="m 204.37,113.32 v 0 l -9.28,-9.18 a 35.32,35.32 0 0 0 -25,-10.24 h -9.5 a 35.18,35.18 0 0 0 -17,4.22 c 0.68,0.57 1.35,1.12 2,1.79 l 12.79,12.74 -0.34,0.47 a 23.14,23.14 0 0 1 -3.18,28.7 l -0.2,0.19 -11.78,10.73 0.64,0.58 -2.07,15.48 6.37,47.83 a 8.14,8.14 0 0 1 -0.22,3.27 h 2.54 a 2.21,2.21 0 0 0 2.13,-1.91 l 7.07,-51.34 a 6.44,6.44 0 0 1 0.83,-2.42 6,6 0 0 1 10.19,0 6.69,6.69 0 0 1 0.85,2.39 l 7.12,51.38 a 2.21,2.21 0 0 0 2.12,1.91 h 13.05 a 2.21,2.21 0 0 0 2.13,-2.49 l -8.55,-64.06 17.29,-15.78 a 17.16,17.16 0 0 0 0,-24.26 z m -14.74,14.68 -5.46,5.47 -2.34,-17.21 a 0.53,0.53 0 0 1 0.9,-0.45 l 6.9,6.91 a 3.71,3.71 0 0 1 0,5.28 z"
       id="path199-9"
       style="fill:#00a3b9;fill-opacity:1" />
    <path
       d="m 111.64,54.61 v 0 a 16.5,16.5 0 0 0 0,33 v 0 a 16.5,16.5 0 1 0 0,-33 z"
       id="path201"
       style="fill:#00a3b9;fill-opacity:1" />
  </g>
</svg>
