<?xml version="1.0" encoding="UTF-8" standalone="no"?>
<svg
   inkscape:export-ydpi="17.060751"
   inkscape:export-xdpi="17.060751"
   inkscape:export-filename="..\..\docs\_static\images\logos\product-logo-download.png"
   inkscape:version="1.2.1 (9c6d41e410, 2022-07-14)"
   sodipodi:docname="DCC-EX_product-dowload.svg"
   id="svg40"
   version="1.1"
   fill="none"
   viewBox="0 0 4500 900"
   height="900"
   width="4500"
   xmlns:inkscape="http://www.inkscape.org/namespaces/inkscape"
   xmlns:sodipodi="http://sodipodi.sourceforge.net/DTD/sodipodi-0.dtd"
   xmlns="http://www.w3.org/2000/svg"
   xmlns:svg="http://www.w3.org/2000/svg"
   xmlns:rdf="http://www.w3.org/1999/02/22-rdf-syntax-ns#"
   xmlns:cc="http://creativecommons.org/ns#"
   xmlns:dc="http://purl.org/dc/elements/1.1/">
  <metadata
     id="metadata44">
    <rdf:RDF>
      <cc:Work
         rdf:about="">
        <dc:format>image/svg+xml</dc:format>
        <dc:type
           rdf:resource="http://purl.org/dc/dcmitype/StillImage" />
      </cc:Work>
    </rdf:RDF>
  </metadata>
  <sodipodi:namedview
     inkscape:snap-object-midpoints="false"
     inkscape:guide-bbox="true"
     showguides="true"
     inkscape:current-layer="svg40"
     inkscape:window-maximized="1"
     inkscape:window-y="-8"
     inkscape:window-x="1592"
     inkscape:cy="1209.0308"
     inkscape:cx="1485.2958"
     inkscape:zoom="0.16831664"
     showgrid="false"
     id="namedview42"
     inkscape:window-height="816"
     inkscape:window-width="1600"
     inkscape:pageshadow="2"
     inkscape:pageopacity="0"
     guidetolerance="10"
     gridtolerance="10"
     objecttolerance="10"
     borderopacity="1"
     bordercolor="#eeeeee"
     pagecolor="#505050"
     inkscape:document-rotation="0"
     inkscape:pagecheckerboard="0"
     width="4000px"
     inkscape:showpageshadow="0"
     inkscape:deskcolor="#505050" />
  <mask
     height="599"
     width="599"
     y="21"
     x="406"
     maskUnits="userSpaceOnUse"
     mask-type="alpha"
     id="mask0">
    <rect
       id="rect4"
       fill="#ffffff"
       transform="rotate(-45,406.51,320.148)"
       rx="56.537102"
       height="422.702"
       width="422.702"
       y="320.14801"
       x="406.51001" />
  </mask>
  <defs
     id="defs38">
    <rect
       x="-647.58897"
       y="1099.1189"
       width="2305.1791"
       height="1158.5307"
       id="rect4779" />
    <rect
       x="205.28384"
       y="1341.9482"
       width="1334.3451"
       height="174.87143"
       id="rect2482" />
    <rect
       x="720.49402"
       y="801.32397"
       width="243.95853"
       height="98.689613"
       id="rect4023" />
    <linearGradient
       gradientUnits="userSpaceOnUse"
       y2="597.09998"
       x2="707.41602"
       y1="-4.4348102"
       x1="707.41602"
       id="paint0_linear">
      <stop
         id="stop33"
         stop-color="#D3D3D3" />
      <stop
         id="stop35"
         stop-color="white"
         offset="1" />
    </linearGradient>
    <mask
       height="599"
       width="599"
       y="21"
       x="406"
       maskUnits="userSpaceOnUse"
       mask-type="alpha"
       id="mask0-5">
      <rect
         id="rect4-1"
         fill="#ffffff"
         transform="rotate(-45,406.51,320.148)"
         rx="56.537102"
         height="422.702"
         width="422.702"
         y="320.14801"
         x="406.51001" />
    </mask>
    <rect
       x="205.28384"
       y="1341.9482"
       width="1334.3451"
       height="174.87143"
       id="rect2482-4" />
    <mask
       height="599"
       width="599"
       y="21"
       x="406"
       maskUnits="userSpaceOnUse"
       mask-type="alpha"
       id="mask0-5-9">
      <rect
         id="rect4-1-1"
         fill="#ffffff"
         transform="rotate(-45,406.51,320.148)"
         rx="56.537102"
         height="422.702"
         width="422.702"
         y="320.14801"
         x="406.51001" />
    </mask>
    <linearGradient
       gradientUnits="userSpaceOnUse"
       y2="597.09998"
       x2="707.41602"
       y1="-4.4348102"
       x1="707.41602"
       id="paint0_linear-9">
      <stop
         id="stop33-8"
         stop-color="#D3D3D3" />
      <stop
         id="stop35-0"
         stop-color="white"
         offset="1" />
    </linearGradient>
    <rect
       x="205.28384"
       y="1341.9482"
       width="1334.3451"
       height="174.87143"
       id="rect2482-4-7" />
    <mask
       height="599"
       width="599"
       y="21"
       x="406"
       maskUnits="userSpaceOnUse"
       mask-type="alpha"
       id="mask0-5-7">
      <rect
         id="rect4-1-5"
         fill="#ffffff"
         transform="rotate(-45,406.51,320.148)"
         rx="56.537102"
         height="422.702"
         width="422.702"
         y="320.14801"
         x="406.51001" />
    </mask>
    <linearGradient
       gradientUnits="userSpaceOnUse"
       y2="597.09998"
       x2="707.41602"
       y1="-4.4348102"
       x1="707.41602"
       id="paint0_linear-0">
      <stop
         id="stop33-9"
         stop-color="#D3D3D3" />
      <stop
         id="stop35-1"
         stop-color="white"
         offset="1" />
    </linearGradient>
    <rect
       x="205.28384"
       y="1341.9482"
       width="1039.0117"
       height="116.82903"
       id="rect2482-4-7-6" />
    <rect
       x="205.28384"
       y="1341.9482"
       width="499.55879"
       height="133.90032"
       id="rect2482-4-7-6-3" />
    <rect
       x="205.28384"
       y="1341.9482"
       width="1334.3451"
       height="174.87143"
       id="rect2482-4-7-6-5" />
    <rect
       x="205.28384"
       y="1341.9482"
       width="1334.3451"
       height="174.87143"
       id="rect2482-4-7-6-3-9" />
    <mask
       height="599"
       width="599"
       y="21"
       x="406"
       maskUnits="userSpaceOnUse"
       mask-type="alpha"
       id="mask0-5-7-4">
      <rect
         id="rect4-1-5-9"
         fill="#ffffff"
         transform="rotate(-45,406.51,320.148)"
         rx="56.537102"
         height="422.702"
         width="422.702"
         y="320.14801"
         x="406.51001" />
    </mask>
    <linearGradient
       gradientUnits="userSpaceOnUse"
       y2="597.09998"
       x2="707.41602"
       y1="-4.4348102"
       x1="707.41602"
       id="paint0_linear-0-5">
      <stop
         id="stop33-9-5"
         stop-color="#D3D3D3" />
      <stop
         id="stop35-1-9"
         stop-color="white"
         offset="1" />
    </linearGradient>
  </defs>
  <rect
     style="fill:none;fill-opacity:1;stroke-width:0.377953;-inkscape-stroke:none;stop-color:#000000;stroke:none"
     id="rect46006"
     width="4501.5605"
     height="901.94586"
     x="-1.4852952"
     y="-1.4852883" />
  <text
     xml:space="preserve"
     id="text4021"
     style="font-size:14.6667px;line-height:2px;font-family:'Adobe Gothic Std';-inkscape-font-specification:'Adobe Gothic Std';letter-spacing:0px;word-spacing:0px;writing-mode:lr-tb;white-space:pre;shape-inside:url(#rect4023);display:inline;fill:none;stroke:#000000;stroke-width:1px;stroke-linecap:butt;stroke-linejoin:miter;stroke-opacity:1" />
  <text
     xml:space="preserve"
     id="text2480-6-0-6"
     style="font-style:normal;font-variant:normal;font-weight:normal;font-stretch:normal;font-size:88.1171px;line-height:1.25;font-family:Audiowide;-inkscape-font-specification:'Audiowide, Normal';font-variant-ligatures:normal;font-variant-caps:normal;font-variant-numeric:normal;font-variant-east-asian:normal;letter-spacing:0px;word-spacing:0px;white-space:pre;shape-inside:url(#rect2482-4-7-6);display:inline;fill:#000000;fill-opacity:1;stroke:none"
     transform="matrix(3.4802183,0,0,3.4802183,104.67054,-4197.4634)"
     inkscape:export-filename="D:\users\akers\documents\_personal -D\DCC-EX\product-logo-ex-turntable.png"
     inkscape:export-xdpi="18.431187"
     inkscape:export-ydpi="18.431187"><tspan
       x="205.2832"
       y="1421.3719"
       id="tspan3631"><tspan
         style="fill:#00353d"
         id="tspan3629">Downloads</tspan></tspan></text>
  <text
     xml:space="preserve"
     id="text2480-6-0-6-4"
     style="font-style:normal;font-variant:normal;font-weight:normal;font-stretch:normal;font-size:88.1171px;line-height:1.25;font-family:Audiowide;-inkscape-font-specification:'Audiowide, Normal';font-variant-ligatures:normal;font-variant-caps:normal;font-variant-numeric:normal;font-variant-east-asian:normal;letter-spacing:0px;word-spacing:0px;white-space:pre;shape-inside:url(#rect2482-4-7-6-3);display:inline;fill:#000000;fill-opacity:1;stroke:none"
     transform="matrix(3.4802183,0,0,3.4802183,104.67083,-4563.0201)"
     inkscape:export-filename="D:\users\akers\documents\_personal -D\DCC-EX\product-logo-ex-commandstation.png"
     inkscape:export-xdpi="18.431187"
     inkscape:export-ydpi="18.431187"><tspan
       x="205.2832"
       y="1421.3719"
       id="tspan3637"><tspan
         style="fill:#00353d"
         id="tspan3633">DCC-</tspan><tspan
         style="fill:#00a3b9"
         id="tspan3635">EX</tspan></tspan></text>
  <path
     d="M 910.02466,466.51298 H 2096.0679"
     stroke="#000000"
     stroke-width="5.45568"
     id="path31-1"
     style="fill:#000000"
     inkscape:export-filename="D:\users\akers\documents\_personal -D\DCC-EX\product-logo-ex-commandstation.png"
     inkscape:export-xdpi="18.431187"
     inkscape:export-ydpi="18.431187" />
  <text
     xml:space="preserve"
     id="text4777"
     style="font-style:normal;font-variant:normal;font-weight:normal;font-stretch:normal;font-size:16px;line-height:1.25;font-family:Impact;-inkscape-font-specification:Impact;letter-spacing:0px;word-spacing:0px;white-space:pre;shape-inside:url(#rect4779);display:inline;fill:#000000;fill-opacity:1;stroke:none" />
  <path
     d="m 262.37621,189.04164 v 104.38447 c 0,17.19579 0,25.79218 3.34614,32.35915 2.94426,5.77805 7.64033,10.47226 13.41709,13.41654 6.56733,3.34639 15.16462,3.34639 32.35889,3.34639 h 208.76898 c 17.19581,0 25.79218,0 32.35919,-3.34639 5.77799,-2.94738 10.47222,-7.63849 13.41648,-13.41654 3.34644,-6.56697 3.34644,-15.16336 3.34644,-32.35915 v -73.68316 m 0,521.92241 v -196.4884 c 0,-17.19587 0,-25.79217 -3.34644,-32.35923 -2.94426,-5.77797 -7.63849,-10.47217 -13.41648,-13.41646 -6.56701,-3.34646 -15.16338,-3.34646 -32.35919,-3.34646 H 311.49833 c -17.19427,0 -25.79156,0 -32.35889,3.34646 -5.77676,2.94731 -10.47345,7.63849 -13.41709,13.41646 -3.34614,6.56706 -3.34614,15.16336 -3.34614,32.35923 v 196.4884 M 692.1947,383.24284 v 211.0562 c 0,51.58436 0,77.37351 -10.03933,97.07762 -8.8297,17.33089 -22.91853,31.41971 -40.24943,40.24939 -19.70411,10.03931 -45.49321,10.03931 -97.07757,10.03931 h -257.8911 c -51.58313,0 -77.3747,0 -97.07665,-10.03931 -17.33059,-8.82968 -31.42065,-22.9185 -40.25097,-40.24939 -10.03871,-19.70411 -10.03871,-45.49326 -10.03871,-97.07762 V 336.40796 c 0,-51.58436 0,-77.37351 10.03871,-97.07762 8.83032,-17.33089 22.92038,-31.41971 40.25097,-40.24939 19.70195,-10.03931 45.49352,-10.03931 97.07665,-10.03931 H 497.9935 c 15.01908,0 22.52863,0 29.59608,1.68854 6.26307,1.50439 12.25289,3.98503 17.74843,7.34986 6.19552,3.79778 11.50685,9.10909 22.12644,19.72868 l 95.95391,95.95394 c 10.61958,10.62262 15.93091,15.9309 19.72867,22.12647 3.36486,5.49554 5.84553,11.48534 7.34991,17.74841 1.69776,7.06743 1.69776,14.57696 1.69776,29.59608 z"
     stroke="#000000"
     stroke-width="61.4026"
     stroke-linecap="round"
     stroke-linejoin="round"
     id="path1227"
     style="stroke:#00a3b9;stroke-opacity:1;stroke-width:44;stroke-dasharray:none" />
</svg>
