<?xml version="1.0" encoding="UTF-8" standalone="no"?>
<svg
   inkscape:export-ydpi="17.060751"
   inkscape:export-xdpi="17.060751"
   inkscape:export-filename="..\..\docs\_static\images\logos\product-logo-announcements.png"
   inkscape:version="1.2.2 (732a01da63, 2022-12-09)"
   sodipodi:docname="DCC-EX_product-announcements.svg"
   id="svg40"
   version="1.1"
   fill="none"
   viewBox="0 0 4500 900"
   height="900"
   width="4500"
   xmlns:inkscape="http://www.inkscape.org/namespaces/inkscape"
   xmlns:sodipodi="http://sodipodi.sourceforge.net/DTD/sodipodi-0.dtd"
   xmlns="http://www.w3.org/2000/svg"
   xmlns:svg="http://www.w3.org/2000/svg"
   xmlns:rdf="http://www.w3.org/1999/02/22-rdf-syntax-ns#"
   xmlns:cc="http://creativecommons.org/ns#"
   xmlns:dc="http://purl.org/dc/elements/1.1/">
  <metadata
     id="metadata44">
    <rdf:RDF>
      <cc:Work
         rdf:about="">
        <dc:format>image/svg+xml</dc:format>
        <dc:type
           rdf:resource="http://purl.org/dc/dcmitype/StillImage" />
      </cc:Work>
    </rdf:RDF>
  </metadata>
  <sodipodi:namedview
     inkscape:snap-object-midpoints="false"
     inkscape:guide-bbox="true"
     showguides="true"
     inkscape:current-layer="svg40"
     inkscape:window-maximized="1"
     inkscape:window-y="-11"
     inkscape:window-x="2869"
     inkscape:cy="784.23619"
     inkscape:cx="1749.6785"
     inkscape:zoom="0.33663328"
     showgrid="false"
     id="namedview42"
     inkscape:window-height="1244"
     inkscape:window-width="2400"
     inkscape:pageshadow="2"
     inkscape:pageopacity="0"
     guidetolerance="10"
     gridtolerance="10"
     objecttolerance="10"
     borderopacity="1"
     bordercolor="#eeeeee"
     pagecolor="#505050"
     inkscape:document-rotation="0"
     inkscape:pagecheckerboard="0"
     width="4000px"
     inkscape:showpageshadow="0"
     inkscape:deskcolor="#505050" />
  <mask
     height="599"
     width="599"
     y="21"
     x="406"
     maskUnits="userSpaceOnUse"
     mask-type="alpha"
     id="mask0">
    <rect
       id="rect4"
       fill="#ffffff"
       transform="rotate(-45,406.51,320.148)"
       rx="56.537102"
       height="422.702"
       width="422.702"
       y="320.14801"
       x="406.51001" />
  </mask>
  <defs
     id="defs38">
    <rect
       x="205.28384"
       y="1341.9482"
       width="1334.3451"
       height="174.87143"
       id="rect2482" />
    <rect
       x="720.49402"
       y="801.32397"
       width="243.95853"
       height="98.689613"
       id="rect4023" />
    <linearGradient
       gradientUnits="userSpaceOnUse"
       y2="597.09998"
       x2="707.41602"
       y1="-4.4348102"
       x1="707.41602"
       id="paint0_linear">
      <stop
         id="stop33"
         stop-color="#D3D3D3" />
      <stop
         id="stop35"
         stop-color="white"
         offset="1" />
    </linearGradient>
    <mask
       height="599"
       width="599"
       y="21"
       x="406"
       maskUnits="userSpaceOnUse"
       mask-type="alpha"
       id="mask0-5">
      <rect
         id="rect4-1"
         fill="#ffffff"
         transform="rotate(-45,406.51,320.148)"
         rx="56.537102"
         height="422.702"
         width="422.702"
         y="320.14801"
         x="406.51001" />
    </mask>
    <rect
       x="205.28384"
       y="1341.9482"
       width="1334.3451"
       height="174.87143"
       id="rect2482-4" />
    <mask
       height="599"
       width="599"
       y="21"
       x="406"
       maskUnits="userSpaceOnUse"
       mask-type="alpha"
       id="mask0-5-9">
      <rect
         id="rect4-1-1"
         fill="#ffffff"
         transform="rotate(-45,406.51,320.148)"
         rx="56.537102"
         height="422.702"
         width="422.702"
         y="320.14801"
         x="406.51001" />
    </mask>
    <linearGradient
       gradientUnits="userSpaceOnUse"
       y2="597.09998"
       x2="707.41602"
       y1="-4.4348102"
       x1="707.41602"
       id="paint0_linear-9">
      <stop
         id="stop33-8"
         stop-color="#D3D3D3" />
      <stop
         id="stop35-0"
         stop-color="white"
         offset="1" />
    </linearGradient>
    <rect
       x="205.28384"
       y="1341.9482"
       width="1334.3451"
       height="174.87143"
       id="rect2482-4-7" />
    <mask
       height="599"
       width="599"
       y="21"
       x="406"
       maskUnits="userSpaceOnUse"
       mask-type="alpha"
       id="mask0-5-7">
      <rect
         id="rect4-1-5"
         fill="#ffffff"
         transform="rotate(-45,406.51,320.148)"
         rx="56.537102"
         height="422.702"
         width="422.702"
         y="320.14801"
         x="406.51001" />
    </mask>
    <linearGradient
       gradientUnits="userSpaceOnUse"
       y2="597.09998"
       x2="707.41602"
       y1="-4.4348102"
       x1="707.41602"
       id="paint0_linear-0">
      <stop
         id="stop33-9"
         stop-color="#D3D3D3" />
      <stop
         id="stop35-1"
         stop-color="white"
         offset="1" />
    </linearGradient>
    <rect
       x="205.28384"
       y="1341.9482"
       width="1039.0117"
       height="116.82903"
       id="rect2482-4-7-6" />
    <rect
       x="205.28384"
       y="1341.9482"
       width="499.55879"
       height="133.90032"
       id="rect2482-4-7-6-3" />
    <rect
       x="205.28384"
       y="1341.9482"
       width="1334.3451"
       height="174.87143"
       id="rect2482-4-7-6-5" />
    <rect
       x="205.28384"
       y="1341.9482"
       width="1334.3451"
       height="174.87143"
       id="rect2482-4-7-6-3-9" />
    <mask
       height="599"
       width="599"
       y="21"
       x="406"
       maskUnits="userSpaceOnUse"
       mask-type="alpha"
       id="mask0-5-7-4">
      <rect
         id="rect4-1-5-9"
         fill="#ffffff"
         transform="rotate(-45,406.51,320.148)"
         rx="56.537102"
         height="422.702"
         width="422.702"
         y="320.14801"
         x="406.51001" />
    </mask>
    <linearGradient
       gradientUnits="userSpaceOnUse"
       y2="597.09998"
       x2="707.41602"
       y1="-4.4348102"
       x1="707.41602"
       id="paint0_linear-0-5">
      <stop
         id="stop33-9-5"
         stop-color="#D3D3D3" />
      <stop
         id="stop35-1-9"
         stop-color="white"
         offset="1" />
    </linearGradient>
    <rect
       x="205.28384"
       y="1341.9482"
       width="1039.0117"
       height="116.82903"
       id="rect2482-4-7-6-59" />
    <rect
       x="205.28384"
       y="1341.9482"
       width="499.55878"
       height="133.90031"
       id="rect2482-4-7-6-3-4" />
  </defs>
  <text
     xml:space="preserve"
     id="text2480-6-0-6-0"
     style="font-style:normal;font-variant:normal;font-weight:normal;font-stretch:normal;font-size:88.1171px;line-height:1.25;font-family:Audiowide;-inkscape-font-specification:'Audiowide, Normal';font-variant-ligatures:normal;font-variant-caps:normal;font-variant-numeric:normal;font-variant-east-asian:normal;letter-spacing:0px;word-spacing:0px;white-space:pre;shape-inside:url(#rect2482-4-7-6-59);display:inline;fill:#ffffff;fill-opacity:0.470588;stroke:none"
     transform="matrix(3.4802183,0,0,3.4802183,112.67054,-4189.4634)"
     inkscape:export-filename="D:\users\akers\documents\_personal -D\DCC-EX\product-logo-ex-turntable.png"
     inkscape:export-xdpi="18.431187"
     inkscape:export-ydpi="18.431187"><tspan
       x="205.2832"
       y="1421.3719"
       id="tspan3279">Announcements</tspan></text>
  <text
     xml:space="preserve"
     id="text2480-6-0-6-4-6"
     style="font-style:normal;font-variant:normal;font-weight:normal;font-stretch:normal;font-size:88.1171px;line-height:1.25;font-family:Audiowide;-inkscape-font-specification:'Audiowide, Normal';font-variant-ligatures:normal;font-variant-caps:normal;font-variant-numeric:normal;font-variant-east-asian:normal;letter-spacing:0px;word-spacing:0px;white-space:pre;shape-inside:url(#rect2482-4-7-6-3-4);display:inline;fill:#ffffff;fill-opacity:0.470588;stroke:none"
     transform="matrix(3.4802183,0,0,3.4802183,112.67083,-4555.0201)"
     inkscape:export-filename="D:\users\akers\documents\_personal -D\DCC-EX\product-logo-ex-commandstation.png"
     inkscape:export-xdpi="18.431187"
     inkscape:export-ydpi="18.431187"><tspan
       x="205.2832"
       y="1421.3719"
       id="tspan3281">DCC-EX</tspan></text>
  <path
     d="M 916.02466,472.51298 H 2102.0679"
     stroke="#000000"
     stroke-width="5.45568"
     id="path31-1-5"
     style="fill:#ffffff;fill-opacity:0.470588;stroke:#ffffff;stroke-opacity:0.47058824"
     inkscape:export-filename="D:\users\akers\documents\_personal -D\DCC-EX\product-logo-ex-commandstation.png"
     inkscape:export-xdpi="18.431187"
     inkscape:export-ydpi="18.431187" />
  <rect
     style="fill:none;fill-opacity:1;stroke-width:0.377953;-inkscape-stroke:none;stop-color:#000000;stroke:none"
     id="rect46006"
     width="4501.5605"
     height="901.94586"
     x="-1.4852952"
     y="-1.4852883" />
  <text
     xml:space="preserve"
     id="text4021"
     style="font-size:14.6667px;line-height:2px;font-family:'Adobe Gothic Std';-inkscape-font-specification:'Adobe Gothic Std';letter-spacing:0px;word-spacing:0px;writing-mode:lr-tb;white-space:pre;shape-inside:url(#rect4023);display:inline;fill:none;stroke:#000000;stroke-width:1px;stroke-linecap:butt;stroke-linejoin:miter;stroke-opacity:1" />
  <text
     xml:space="preserve"
     id="text2480-6-0-6"
     style="font-style:normal;font-variant:normal;font-weight:normal;font-stretch:normal;font-size:88.1171px;line-height:1.25;font-family:Audiowide;-inkscape-font-specification:'Audiowide, Normal';font-variant-ligatures:normal;font-variant-caps:normal;font-variant-numeric:normal;font-variant-east-asian:normal;letter-spacing:0px;word-spacing:0px;white-space:pre;shape-inside:url(#rect2482-4-7-6);display:inline;fill:#000000;fill-opacity:1;stroke:none"
     transform="matrix(3.4802183,0,0,3.4802183,104.67054,-4197.4634)"
     inkscape:export-filename="D:\users\akers\documents\_personal -D\DCC-EX\product-logo-ex-turntable.png"
     inkscape:export-xdpi="18.431187"
     inkscape:export-ydpi="18.431187"><tspan
       x="205.2832"
       y="1421.3719"
       id="tspan3285"><tspan
         style="fill:#00353d"
         id="tspan3283">Announcements</tspan></tspan></text>
  <text
     xml:space="preserve"
     id="text2480-6-0-6-4"
     style="font-style:normal;font-variant:normal;font-weight:normal;font-stretch:normal;font-size:88.1171px;line-height:1.25;font-family:Audiowide;-inkscape-font-specification:'Audiowide, Normal';font-variant-ligatures:normal;font-variant-caps:normal;font-variant-numeric:normal;font-variant-east-asian:normal;letter-spacing:0px;word-spacing:0px;white-space:pre;shape-inside:url(#rect2482-4-7-6-3);display:inline;fill:#000000;fill-opacity:1;stroke:none"
     transform="matrix(3.4802183,0,0,3.4802183,104.67083,-4563.0201)"
     inkscape:export-filename="D:\users\akers\documents\_personal -D\DCC-EX\product-logo-ex-commandstation.png"
     inkscape:export-xdpi="18.431187"
     inkscape:export-ydpi="18.431187"><tspan
       x="205.2832"
       y="1421.3719"
       id="tspan3291"><tspan
         style="fill:#00353d"
         id="tspan3287">DCC-</tspan><tspan
         style="fill:#00a3b9"
         id="tspan3289">EX</tspan></tspan></text>
  <path
     d="M 910.02466,466.51298 H 2096.0679"
     stroke="#000000"
     stroke-width="5.45568"
     id="path31-1"
     style="fill:#000000"
     inkscape:export-filename="D:\users\akers\documents\_personal -D\DCC-EX\product-logo-ex-commandstation.png"
     inkscape:export-xdpi="18.431187"
     inkscape:export-ydpi="18.431187" />
  <path
     d="m 264.26226,134.69934 c 5.43999,1.20422 10.31709,4.20369 13.84071,8.51949 l 219.68786,159.34361 180.24096,36.2458 c 26.45755,5.04472 49.96306,20.06809 65.65885,41.9565 15.69569,21.88833 22.38096,48.97068 18.67336,75.64845 -3.70749,26.67794 -17.52417,50.91154 -38.59358,67.69009 -21.06962,16.7795 -47.78071,24.82079 -74.61129,22.46216 l -89.92455,178.38167 c -7.26548,14.30795 -19.91871,25.14422 -35.17345,30.12382 -15.25474,4.97953 -31.86304,3.69488 -46.17103,-3.57069 -14.308,-7.26541 -25.1445,-19.91765 -30.12405,-35.17244 -4.97938,-15.25572 -3.69462,-31.86402 3.57086,-46.17197 l 31.26445,-62.21647 -23.53734,-4.73326 c -2.02719,-0.40767 -3.94257,-1.2451 -5.59093,-2.48879 -1.64664,-1.24673 -2.98176,-2.86329 -3.90135,-4.71391 -0.92046,-1.85187 -1.39975,-3.88978 -1.40203,-5.95753 -0.002,-2.06744 0.4739,-4.10636 1.39146,-5.95939 l 22.10646,-46.29779 c 1.30235,-2.70219 3.46632,-4.89466 6.15217,-6.232 2.68482,-1.33765 5.7394,-1.74378 8.68093,-1.15449 l 31.80723,6.39629 7.50249,-14.81727 -69.76385,-14.02929 -263.90997,62.75603 c -4.91802,2.61818 -10.5759,3.50137 -16.05807,2.50697 -52.05786,-10.46861 -28.26424,-188.58054 -19.52262,-232.0504 8.74163,-43.46994 55.64848,-216.9338 107.70632,-206.46519 z m 227.06463,424.91319 -10.0967,21.13507 14.20723,2.85707 10.5208,-21.04983 z m -15.65521,123.37931 c -2.38769,4.56665 -3.65306,9.63578 -3.69072,14.78752 -0.0389,5.15251 1.14977,10.23982 3.46862,14.84168 2.67833,5.60627 6.86727,10.35484 12.0948,13.71261 5.22751,3.35791 11.2889,5.19128 17.50079,5.29433 6.21295,0.10327 12.33101,-1.52688 17.66786,-4.70831 5.33792,-3.18136 9.68177,-7.78803 12.54575,-13.30244 l 86.26953,-171.72575 -67.96145,-13.66676 z m -1.16974,-198.24467 167.6241,33.7085 c 20.30149,4.08259 41.39449,-0.0669 58.63713,-11.5359 17.24263,-11.46876 29.22307,-29.31718 33.30583,-49.61973 4.08254,-20.30146 -0.0669,-41.39465 -11.53579,-58.63722 -11.46892,-17.2425 -29.31815,-29.2233 -49.61964,-33.30588 L 505.28949,331.64843 c -2.42715,52.30039 -12.80879,103.9257 -30.78755,153.09874 z m -250.34452,50.70225 221.94674,-52.11078 c 10.06798,-25.68788 17.83966,-52.217 23.22288,-79.27712 5.5342,-27.02655 8.65355,-54.49123 9.33373,-82.07024 L 294.11109,188.1358 c 8.18814,59.11897 -4.86571,149.26593 -10.75032,178.52863 -5.88461,29.2627 -28.69269,117.44814 -59.20335,168.78499 z m -42.66335,10.8354 c 16.6574,-7.6814 56.66213,-91.9675 75.36067,-184.95062 18.69854,-92.98321 14.44916,-186.49948 1.99199,-199.70479 -16.76343,7.6601 -56.78948,92.0522 -75.46668,184.92931 -18.67722,92.87713 -14.44916,186.49951 -1.88598,199.7261 z"
     fill="#000000"
     id="path1253"
     style="fill:#00a3b9;fill-opacity:1;stroke-width:10.8146" />
</svg>
