<?xml version="1.0" encoding="UTF-8" standalone="no"?>
<svg
   inkscape:export-ydpi="17.060751"
   inkscape:export-xdpi="17.060751"
   inkscape:export-filename="..\..\docs\_static\images\logos\product-logo-download.png"
   inkscape:version="1.2.1 (9c6d41e410, 2022-07-14)"
   sodipodi:docname="DCC-EX_product-dowload.svg"
   id="svg40"
   version="1.1"
   fill="none"
   viewBox="0 0 4500 900"
   height="900"
   width="4500"
   xmlns:inkscape="http://www.inkscape.org/namespaces/inkscape"
   xmlns:sodipodi="http://sodipodi.sourceforge.net/DTD/sodipodi-0.dtd"
   xmlns="http://www.w3.org/2000/svg"
   xmlns:svg="http://www.w3.org/2000/svg"
   xmlns:rdf="http://www.w3.org/1999/02/22-rdf-syntax-ns#"
   xmlns:cc="http://creativecommons.org/ns#"
   xmlns:dc="http://purl.org/dc/elements/1.1/">
  <metadata
     id="metadata44">
    <rdf:RDF>
      <cc:Work
         rdf:about="">
        <dc:format>image/svg+xml</dc:format>
        <dc:type
           rdf:resource="http://purl.org/dc/dcmitype/StillImage" />
      </cc:Work>
    </rdf:RDF>
  </metadata>
  <sodipodi:namedview
     inkscape:snap-object-midpoints="false"
     inkscape:guide-bbox="true"
     showguides="true"
     inkscape:current-layer="svg40"
     inkscape:window-maximized="1"
     inkscape:window-y="-8"
     inkscape:window-x="1592"
     inkscape:cy="1369.4427"
     inkscape:cx="1146.6484"
     inkscape:zoom="0.16831664"
     showgrid="false"
     id="namedview42"
     inkscape:window-height="816"
     inkscape:window-width="1600"
     inkscape:pageshadow="2"
     inkscape:pageopacity="0"
     guidetolerance="10"
     gridtolerance="10"
     objecttolerance="10"
     borderopacity="1"
     bordercolor="#eeeeee"
     pagecolor="#505050"
     inkscape:document-rotation="0"
     inkscape:pagecheckerboard="0"
     width="4000px"
     inkscape:showpageshadow="0"
     inkscape:deskcolor="#505050" />
  <mask
     height="599"
     width="599"
     y="21"
     x="406"
     maskUnits="userSpaceOnUse"
     mask-type="alpha"
     id="mask0">
    <rect
       id="rect4"
       fill="#ffffff"
       transform="rotate(-45,406.51,320.148)"
       rx="56.537102"
       height="422.702"
       width="422.702"
       y="320.14801"
       x="406.51001" />
  </mask>
  <defs
     id="defs38">
    <rect
       x="-647.58897"
       y="1099.1189"
       width="2305.1791"
       height="1158.5307"
       id="rect4779" />
    <rect
       x="205.28384"
       y="1341.9482"
       width="1334.3451"
       height="174.87143"
       id="rect2482" />
    <rect
       x="720.49402"
       y="801.32397"
       width="243.95853"
       height="98.689613"
       id="rect4023" />
    <linearGradient
       gradientUnits="userSpaceOnUse"
       y2="597.09998"
       x2="707.41602"
       y1="-4.4348102"
       x1="707.41602"
       id="paint0_linear">
      <stop
         id="stop33"
         stop-color="#D3D3D3" />
      <stop
         id="stop35"
         stop-color="white"
         offset="1" />
    </linearGradient>
    <mask
       height="599"
       width="599"
       y="21"
       x="406"
       maskUnits="userSpaceOnUse"
       mask-type="alpha"
       id="mask0-5">
      <rect
         id="rect4-1"
         fill="#ffffff"
         transform="rotate(-45,406.51,320.148)"
         rx="56.537102"
         height="422.702"
         width="422.702"
         y="320.14801"
         x="406.51001" />
    </mask>
    <rect
       x="205.28384"
       y="1341.9482"
       width="1334.3451"
       height="174.87143"
       id="rect2482-4" />
    <mask
       height="599"
       width="599"
       y="21"
       x="406"
       maskUnits="userSpaceOnUse"
       mask-type="alpha"
       id="mask0-5-9">
      <rect
         id="rect4-1-1"
         fill="#ffffff"
         transform="rotate(-45,406.51,320.148)"
         rx="56.537102"
         height="422.702"
         width="422.702"
         y="320.14801"
         x="406.51001" />
    </mask>
    <linearGradient
       gradientUnits="userSpaceOnUse"
       y2="597.09998"
       x2="707.41602"
       y1="-4.4348102"
       x1="707.41602"
       id="paint0_linear-9">
      <stop
         id="stop33-8"
         stop-color="#D3D3D3" />
      <stop
         id="stop35-0"
         stop-color="white"
         offset="1" />
    </linearGradient>
    <rect
       x="205.28384"
       y="1341.9482"
       width="1334.3451"
       height="174.87143"
       id="rect2482-4-7" />
    <mask
       height="599"
       width="599"
       y="21"
       x="406"
       maskUnits="userSpaceOnUse"
       mask-type="alpha"
       id="mask0-5-7">
      <rect
         id="rect4-1-5"
         fill="#ffffff"
         transform="rotate(-45,406.51,320.148)"
         rx="56.537102"
         height="422.702"
         width="422.702"
         y="320.14801"
         x="406.51001" />
    </mask>
    <linearGradient
       gradientUnits="userSpaceOnUse"
       y2="597.09998"
       x2="707.41602"
       y1="-4.4348102"
       x1="707.41602"
       id="paint0_linear-0">
      <stop
         id="stop33-9"
         stop-color="#D3D3D3" />
      <stop
         id="stop35-1"
         stop-color="white"
         offset="1" />
    </linearGradient>
    <rect
       x="205.28384"
       y="1341.9482"
       width="1039.0117"
       height="116.82903"
       id="rect2482-4-7-6" />
    <rect
       x="205.28384"
       y="1341.9482"
       width="499.55879"
       height="133.90032"
       id="rect2482-4-7-6-3" />
    <rect
       x="205.28384"
       y="1341.9482"
       width="1334.3451"
       height="174.87143"
       id="rect2482-4-7-6-5" />
    <rect
       x="205.28384"
       y="1341.9482"
       width="1334.3451"
       height="174.87143"
       id="rect2482-4-7-6-3-9" />
    <mask
       height="599"
       width="599"
       y="21"
       x="406"
       maskUnits="userSpaceOnUse"
       mask-type="alpha"
       id="mask0-5-7-4">
      <rect
         id="rect4-1-5-9"
         fill="#ffffff"
         transform="rotate(-45,406.51,320.148)"
         rx="56.537102"
         height="422.702"
         width="422.702"
         y="320.14801"
         x="406.51001" />
    </mask>
    <linearGradient
       gradientUnits="userSpaceOnUse"
       y2="597.09998"
       x2="707.41602"
       y1="-4.4348102"
       x1="707.41602"
       id="paint0_linear-0-5">
      <stop
         id="stop33-9-5"
         stop-color="#D3D3D3" />
      <stop
         id="stop35-1-9"
         stop-color="white"
         offset="1" />
    </linearGradient>
  </defs>
  <rect
     style="fill:none;fill-opacity:1;stroke-width:0.377953;-inkscape-stroke:none;stop-color:#000000;stroke:none"
     id="rect46006"
     width="4501.5605"
     height="901.94586"
     x="-1.4852952"
     y="-1.4852883" />
  <text
     xml:space="preserve"
     id="text4021"
     style="font-size:14.6667px;line-height:2px;font-family:'Adobe Gothic Std';-inkscape-font-specification:'Adobe Gothic Std';letter-spacing:0px;word-spacing:0px;writing-mode:lr-tb;white-space:pre;shape-inside:url(#rect4023);display:inline;fill:none;stroke:#000000;stroke-width:1px;stroke-linecap:butt;stroke-linejoin:miter;stroke-opacity:1" />
  <text
     xml:space="preserve"
     id="text2480-6-0-6"
     style="font-style:normal;font-variant:normal;font-weight:normal;font-stretch:normal;font-size:88.1171px;line-height:1.25;font-family:Audiowide;-inkscape-font-specification:'Audiowide, Normal';font-variant-ligatures:normal;font-variant-caps:normal;font-variant-numeric:normal;font-variant-east-asian:normal;letter-spacing:0px;word-spacing:0px;white-space:pre;shape-inside:url(#rect2482-4-7-6);display:inline;fill:#000000;fill-opacity:1;stroke:none"
     transform="matrix(3.4802183,0,0,3.4802183,104.67054,-4197.4634)"
     inkscape:export-filename="D:\users\akers\documents\_personal -D\DCC-EX\product-logo-ex-turntable.png"
     inkscape:export-xdpi="18.431187"
     inkscape:export-ydpi="18.431187"><tspan
       x="205.2832"
       y="1421.3719"
       id="tspan6158"><tspan
         style="fill:#00353d"
         id="tspan6156">Downloads</tspan></tspan></text>
  <text
     xml:space="preserve"
     id="text2480-6-0-6-4"
     style="font-style:normal;font-variant:normal;font-weight:normal;font-stretch:normal;font-size:88.1171px;line-height:1.25;font-family:Audiowide;-inkscape-font-specification:'Audiowide, Normal';font-variant-ligatures:normal;font-variant-caps:normal;font-variant-numeric:normal;font-variant-east-asian:normal;letter-spacing:0px;word-spacing:0px;white-space:pre;shape-inside:url(#rect2482-4-7-6-3);display:inline;fill:#000000;fill-opacity:1;stroke:none"
     transform="matrix(3.4802183,0,0,3.4802183,104.67083,-4563.0201)"
     inkscape:export-filename="D:\users\akers\documents\_personal -D\DCC-EX\product-logo-ex-commandstation.png"
     inkscape:export-xdpi="18.431187"
     inkscape:export-ydpi="18.431187"><tspan
       x="205.2832"
       y="1421.3719"
       id="tspan6164"><tspan
         style="fill:#00353d"
         id="tspan6160">DCC-</tspan><tspan
         style="fill:#00a3b9"
         id="tspan6162">EX</tspan></tspan></text>
  <path
     d="M 910.02466,466.51298 H 2096.0679"
     stroke="#000000"
     stroke-width="5.45568"
     id="path31-1"
     style="fill:#000000"
     inkscape:export-filename="D:\users\akers\documents\_personal -D\DCC-EX\product-logo-ex-commandstation.png"
     inkscape:export-xdpi="18.431187"
     inkscape:export-ydpi="18.431187" />
  <text
     xml:space="preserve"
     id="text4777"
     style="font-style:normal;font-variant:normal;font-weight:normal;font-stretch:normal;font-size:16px;line-height:1.25;font-family:Impact;-inkscape-font-specification:Impact;letter-spacing:0px;word-spacing:0px;white-space:pre;shape-inside:url(#rect4779);display:inline;fill:#000000;fill-opacity:1;stroke:none" />
  <g
     id="g5316"
     transform="matrix(0.96377331,0,0,0.96377331,140.60657,-830.8685)">
    <path
       class="cls-1"
       d="m 568.49475,1441.7264 a 32.800035,32.800035 0 0 0 -32.80004,32.8 v 101.6801 a 23.091225,23.091225 0 0 1 -22.96002,22.96 H 33.854179 a 23.091225,23.091225 0 0 1 -22.960024,-22.96 v -101.6801 a 32.800035,32.800035 0 0 0 -65.60007,0 v 101.6801 a 88.560094,88.560094 0 0 0 88.560094,88.5601 H 512.73469 a 88.560094,88.560094 0 0 0 88.56009,-88.5601 v -101.6801 a 32.800035,32.800035 0 0 0 -32.80003,-32.8 z"
       id="path5122"
       style="fill:#00a3b9;fill-opacity:1;stroke-width:13.12" />
    <path
       class="cls-1"
       d="m 248.49761,1509.9504 1.0496,3.4112 1.7056,3.0176 a 24.403226,24.403226 0 0 0 1.312,2.624 33.062435,33.062435 0 0 0 9.05281,9.0529 l 2.62401,1.312 3.0176,1.7056 3.4112,1.0496 2.624,1.4432 a 35.292838,35.292838 0 0 0 13.12002,0 l 2.7552,-0.7872 3.41121,-1.0496 3.0176,-1.7056 2.624,-1.312 a 48.281652,48.281652 0 0 0 4.98561,-4.0672 L 423.781,1404.0719 a 32.841468,32.841468 0 0 0 -46.44485,-46.4448 l -64.68167,63.8944 v -379.9556 a 32.800035,32.800035 0 0 0 -65.60007,0 v 459.2005 a 35.686438,35.686438 0 0 0 0.656,6.4288 21.779223,21.779223 0 0 0 0.7872,2.7552 z"
       id="path5124"
       style="fill:#00a3b9;fill-opacity:1;stroke-width:13.12" />
    <rect
       class="cls-2"
       x="-914.66968"
       y="1033.9724"
       width="65.600067"
       height="146.55055"
       rx="32.800034"
       ry="32.800034"
       transform="rotate(-45)"
       id="rect5126"
       style="fill:#00353d;fill-opacity:1;stroke-width:13.12" />
  </g>
</svg>
