<?xml version="1.0" encoding="UTF-8" standalone="no"?>
<svg
   inkscape:export-ydpi="17.060751"
   inkscape:export-xdpi="17.060751"
   inkscape:export-filename="..\..\docs\_static\images\logos\product-logo-bigpicture.png"
   inkscape:version="1.2.2 (732a01da63, 2022-12-09)"
   sodipodi:docname="DCC-EX_product-big-picture.svg"
   id="svg40"
   version="1.1"
   fill="none"
   viewBox="0 0 4500 900"
   height="900"
   width="4500"
   xmlns:inkscape="http://www.inkscape.org/namespaces/inkscape"
   xmlns:sodipodi="http://sodipodi.sourceforge.net/DTD/sodipodi-0.dtd"
   xmlns="http://www.w3.org/2000/svg"
   xmlns:svg="http://www.w3.org/2000/svg"
   xmlns:rdf="http://www.w3.org/1999/02/22-rdf-syntax-ns#"
   xmlns:cc="http://creativecommons.org/ns#"
   xmlns:dc="http://purl.org/dc/elements/1.1/">
  <metadata
     id="metadata44">
    <rdf:RDF>
      <cc:Work
         rdf:about="">
        <dc:format>image/svg+xml</dc:format>
        <dc:type
           rdf:resource="http://purl.org/dc/dcmitype/StillImage" />
      </cc:Work>
    </rdf:RDF>
  </metadata>
  <sodipodi:namedview
     inkscape:snap-object-midpoints="false"
     inkscape:guide-bbox="true"
     showguides="true"
     inkscape:current-layer="svg40"
     inkscape:window-maximized="1"
     inkscape:window-y="-11"
     inkscape:window-x="2869"
     inkscape:cy="995.64908"
     inkscape:cx="1819.0551"
     inkscape:zoom="0.23803567"
     showgrid="false"
     id="namedview42"
     inkscape:window-height="1244"
     inkscape:window-width="2400"
     inkscape:pageshadow="2"
     inkscape:pageopacity="0"
     guidetolerance="10"
     gridtolerance="10"
     objecttolerance="10"
     borderopacity="1"
     bordercolor="#eeeeee"
     pagecolor="#505050"
     inkscape:document-rotation="0"
     inkscape:pagecheckerboard="0"
     width="4000px"
     inkscape:showpageshadow="0"
     inkscape:deskcolor="#505050" />
  <mask
     height="599"
     width="599"
     y="21"
     x="406"
     maskUnits="userSpaceOnUse"
     mask-type="alpha"
     id="mask0">
    <rect
       id="rect4"
       fill="#ffffff"
       transform="rotate(-45,406.51,320.148)"
       rx="56.537102"
       height="422.702"
       width="422.702"
       y="320.14801"
       x="406.51001" />
  </mask>
  <defs
     id="defs38">
    <rect
       x="205.28384"
       y="1341.9482"
       width="1334.3451"
       height="174.87143"
       id="rect2482" />
    <rect
       x="720.49402"
       y="801.32397"
       width="243.95853"
       height="98.689613"
       id="rect4023" />
    <linearGradient
       gradientUnits="userSpaceOnUse"
       y2="597.09998"
       x2="707.41602"
       y1="-4.4348102"
       x1="707.41602"
       id="paint0_linear">
      <stop
         id="stop33"
         stop-color="#D3D3D3" />
      <stop
         id="stop35"
         stop-color="white"
         offset="1" />
    </linearGradient>
    <mask
       height="599"
       width="599"
       y="21"
       x="406"
       maskUnits="userSpaceOnUse"
       mask-type="alpha"
       id="mask0-5">
      <rect
         id="rect4-1"
         fill="#ffffff"
         transform="rotate(-45,406.51,320.148)"
         rx="56.537102"
         height="422.702"
         width="422.702"
         y="320.14801"
         x="406.51001" />
    </mask>
    <rect
       x="205.28384"
       y="1341.9482"
       width="1334.3451"
       height="174.87143"
       id="rect2482-4" />
    <mask
       height="599"
       width="599"
       y="21"
       x="406"
       maskUnits="userSpaceOnUse"
       mask-type="alpha"
       id="mask0-5-9">
      <rect
         id="rect4-1-1"
         fill="#ffffff"
         transform="rotate(-45,406.51,320.148)"
         rx="56.537102"
         height="422.702"
         width="422.702"
         y="320.14801"
         x="406.51001" />
    </mask>
    <linearGradient
       gradientUnits="userSpaceOnUse"
       y2="597.09998"
       x2="707.41602"
       y1="-4.4348102"
       x1="707.41602"
       id="paint0_linear-9">
      <stop
         id="stop33-8"
         stop-color="#D3D3D3" />
      <stop
         id="stop35-0"
         stop-color="white"
         offset="1" />
    </linearGradient>
    <rect
       x="205.28384"
       y="1341.9482"
       width="1334.3451"
       height="174.87143"
       id="rect2482-4-7" />
    <mask
       height="599"
       width="599"
       y="21"
       x="406"
       maskUnits="userSpaceOnUse"
       mask-type="alpha"
       id="mask0-5-7">
      <rect
         id="rect4-1-5"
         fill="#ffffff"
         transform="rotate(-45,406.51,320.148)"
         rx="56.537102"
         height="422.702"
         width="422.702"
         y="320.14801"
         x="406.51001" />
    </mask>
    <linearGradient
       gradientUnits="userSpaceOnUse"
       y2="597.09998"
       x2="707.41602"
       y1="-4.4348102"
       x1="707.41602"
       id="paint0_linear-0">
      <stop
         id="stop33-9"
         stop-color="#D3D3D3" />
      <stop
         id="stop35-1"
         stop-color="white"
         offset="1" />
    </linearGradient>
    <rect
       x="205.28384"
       y="1341.9482"
       width="1039.0117"
       height="116.82903"
       id="rect2482-4-7-6" />
    <rect
       x="205.28384"
       y="1341.9482"
       width="499.55879"
       height="133.90032"
       id="rect2482-4-7-6-3" />
    <rect
       x="205.28384"
       y="1341.9482"
       width="1334.3451"
       height="174.87143"
       id="rect2482-4-7-6-5" />
    <rect
       x="205.28384"
       y="1341.9482"
       width="1334.3451"
       height="174.87143"
       id="rect2482-4-7-6-3-9" />
    <mask
       height="599"
       width="599"
       y="21"
       x="406"
       maskUnits="userSpaceOnUse"
       mask-type="alpha"
       id="mask0-5-7-4">
      <rect
         id="rect4-1-5-9"
         fill="#ffffff"
         transform="rotate(-45,406.51,320.148)"
         rx="56.537102"
         height="422.702"
         width="422.702"
         y="320.14801"
         x="406.51001" />
    </mask>
    <linearGradient
       gradientUnits="userSpaceOnUse"
       y2="597.09998"
       x2="707.41602"
       y1="-4.4348102"
       x1="707.41602"
       id="paint0_linear-0-5">
      <stop
         id="stop33-9-5"
         stop-color="#D3D3D3" />
      <stop
         id="stop35-1-9"
         stop-color="white"
         offset="1" />
    </linearGradient>
    <rect
       x="205.28384"
       y="1341.9482"
       width="1039.0117"
       height="116.82903"
       id="rect2482-4-7-6-9" />
    <rect
       x="205.28384"
       y="1341.9482"
       width="499.55878"
       height="133.90031"
       id="rect2482-4-7-6-3-5" />
  </defs>
  <text
     xml:space="preserve"
     id="text2480-6-0-6-7"
     style="font-style:normal;font-variant:normal;font-weight:normal;font-stretch:normal;font-size:88.1171px;line-height:1.25;font-family:Audiowide;-inkscape-font-specification:'Audiowide, Normal';font-variant-ligatures:normal;font-variant-caps:normal;font-variant-numeric:normal;font-variant-east-asian:normal;letter-spacing:0px;word-spacing:0px;white-space:pre;shape-inside:url(#rect2482-4-7-6-9);display:inline;fill:#ffffff;fill-opacity:0.470588;stroke:none"
     transform="matrix(3.4802183,0,0,3.4802183,112.67054,-4189.4634)"
     inkscape:export-filename="D:\users\akers\documents\_personal -D\DCC-EX\product-logo-ex-turntable.png"
     inkscape:export-xdpi="18.431187"
     inkscape:export-ydpi="18.431187"><tspan
       x="205.2832"
       y="1421.3719"
       id="tspan1738">Big Picture</tspan></text>
  <text
     xml:space="preserve"
     id="text2480-6-0-6-4-0"
     style="font-style:normal;font-variant:normal;font-weight:normal;font-stretch:normal;font-size:88.1171px;line-height:1.25;font-family:Audiowide;-inkscape-font-specification:'Audiowide, Normal';font-variant-ligatures:normal;font-variant-caps:normal;font-variant-numeric:normal;font-variant-east-asian:normal;letter-spacing:0px;word-spacing:0px;white-space:pre;shape-inside:url(#rect2482-4-7-6-3-5);display:inline;fill:#ffffff;fill-opacity:0.470588;stroke:none"
     transform="matrix(3.4802183,0,0,3.4802183,112.67083,-4555.0201)"
     inkscape:export-filename="D:\users\akers\documents\_personal -D\DCC-EX\product-logo-ex-commandstation.png"
     inkscape:export-xdpi="18.431187"
     inkscape:export-ydpi="18.431187"><tspan
       x="205.2832"
       y="1421.3719"
       id="tspan1740">DCC-EX</tspan></text>
  <path
     d="M 916.02466,472.51298 H 2102.0679"
     stroke="#000000"
     stroke-width="5.45568"
     id="path31-1-4"
     style="fill:#ffffff;fill-opacity:0.470588;stroke:#ffffff;stroke-opacity:0.47058824"
     inkscape:export-filename="D:\users\akers\documents\_personal -D\DCC-EX\product-logo-ex-commandstation.png"
     inkscape:export-xdpi="18.431187"
     inkscape:export-ydpi="18.431187" />
  <rect
     style="fill:none;fill-opacity:1;stroke-width:0.377953;-inkscape-stroke:none;stop-color:#000000;stroke:none"
     id="rect46006"
     width="4501.5605"
     height="901.94586"
     x="-1.4852952"
     y="-1.4852883" />
  <text
     xml:space="preserve"
     id="text4021"
     style="font-size:14.6667px;line-height:2px;font-family:'Adobe Gothic Std';-inkscape-font-specification:'Adobe Gothic Std';letter-spacing:0px;word-spacing:0px;writing-mode:lr-tb;white-space:pre;shape-inside:url(#rect4023);display:inline;fill:none;stroke:#000000;stroke-width:1px;stroke-linecap:butt;stroke-linejoin:miter;stroke-opacity:1" />
  <text
     xml:space="preserve"
     id="text2480-6-0-6"
     style="font-style:normal;font-variant:normal;font-weight:normal;font-stretch:normal;font-size:88.1171px;line-height:1.25;font-family:Audiowide;-inkscape-font-specification:'Audiowide, Normal';font-variant-ligatures:normal;font-variant-caps:normal;font-variant-numeric:normal;font-variant-east-asian:normal;letter-spacing:0px;word-spacing:0px;white-space:pre;shape-inside:url(#rect2482-4-7-6);display:inline;fill:#000000;fill-opacity:1;stroke:none"
     transform="matrix(3.4802183,0,0,3.4802183,104.67054,-4197.4634)"
     inkscape:export-filename="D:\users\akers\documents\_personal -D\DCC-EX\product-logo-ex-turntable.png"
     inkscape:export-xdpi="18.431187"
     inkscape:export-ydpi="18.431187"><tspan
       x="205.2832"
       y="1421.3719"
       id="tspan1744"><tspan
         style="fill:#00353d"
         id="tspan1742">Big Picture</tspan></tspan></text>
  <text
     xml:space="preserve"
     id="text2480-6-0-6-4"
     style="font-style:normal;font-variant:normal;font-weight:normal;font-stretch:normal;font-size:88.1171px;line-height:1.25;font-family:Audiowide;-inkscape-font-specification:'Audiowide, Normal';font-variant-ligatures:normal;font-variant-caps:normal;font-variant-numeric:normal;font-variant-east-asian:normal;letter-spacing:0px;word-spacing:0px;white-space:pre;shape-inside:url(#rect2482-4-7-6-3);display:inline;fill:#000000;fill-opacity:1;stroke:none"
     transform="matrix(3.4802183,0,0,3.4802183,104.67083,-4563.0201)"
     inkscape:export-filename="D:\users\akers\documents\_personal -D\DCC-EX\product-logo-ex-commandstation.png"
     inkscape:export-xdpi="18.431187"
     inkscape:export-ydpi="18.431187"><tspan
       x="205.2832"
       y="1421.3719"
       id="tspan1750"><tspan
         style="fill:#00353d"
         id="tspan1746">DCC-</tspan><tspan
         style="fill:#00a3b9"
         id="tspan1748">EX</tspan></tspan></text>
  <path
     d="M 910.02466,466.51298 H 2096.0679"
     stroke="#000000"
     stroke-width="5.45568"
     id="path31-1"
     style="fill:#000000"
     inkscape:export-filename="D:\users\akers\documents\_personal -D\DCC-EX\product-logo-ex-commandstation.png"
     inkscape:export-xdpi="18.431187"
     inkscape:export-ydpi="18.431187" />
  <path
     d="M 777.6994,332.95554 691.5386,109.01107 c -2.579,-6.70299 -7.6156,-12.00107 -14.1798,-14.91895 -6.5643,-2.91655 -13.8717,-3.10201 -20.5747,-0.523 l -223.9444,86.15957 c -2.6418,1.01666 -4.7725,3.04064 -5.9212,5.62897 -1.1487,2.58567 -1.2235,5.5249 -0.2068,8.1666 l 30.6611,79.69274 c 0.7498,1.94926 2.0427,3.58498 3.6663,4.77242 -7.8784,-3.24877 -16.3851,-4.8965 -25.1308,-4.76175 -7.0432,0.10274 -13.9063,1.3342 -20.3985,3.62901 v -67.67565 c 0,-5.89447 -4.779,-10.67355 -10.6735,-10.67355 H 164.8908 c -14.8283,0 -26.892,12.06378 -26.892,26.89201 v 479.89357 c 0,14.82823 12.0637,26.89201 26.892,26.89201 h 479.8935 c 14.8283,0 26.8921,-12.06378 26.8921,-26.89201 V 475.57554 c 3.7237,-0.70979 7.4101,-1.75179 11.0191,-3.14069 32.9546,-12.68152 49.4505,-49.80947 36.7717,-82.76539 -2.6497,-6.88578 -6.3828,-13.14982 -11.0551,-18.61868 l 63.1594,-24.29967 c 5.5009,-2.11871 8.2453,-8.29335 6.1279,-13.79557 z M 159.3459,225.39949 c 0,-3.05797 2.4869,-5.54491 5.5449,-5.54491 H 394.164 v 74.71486 c 0,4.04394 2.2855,7.74233 5.9038,9.54883 3.6184,1.8065 7.9479,1.41425 11.1806,-1.01532 7.2513,-5.44885 15.8863,-8.39742 24.9721,-8.53084 11.4221,-0.13876 22.2703,4.22539 30.5304,12.36664 8.256,8.13725 12.8015,18.90687 12.8015,30.32623 0,23.54186 -19.1537,42.69288 -42.6941,42.69288 -9.322,0 -18.1785,-2.95124 -25.6099,-8.53351 -3.2327,-2.42689 -7.5609,-2.81915 -11.1806,-1.01532 -3.6183,1.8065 -5.9038,5.50489 -5.9038,9.54883 v 74.71486 h -57.0034 c 2.2935,-6.49085 3.5263,-13.35528 3.6276,-20.39849 0.2509,-17.18842 -6.3213,-33.46292 -18.5065,-45.8269 -12.1799,-12.35864 -28.3503,-19.16435 -45.5308,-19.16302 -35.3094,0.002 -64.0372,28.73053 -64.0372,64.04131 0,7.37942 1.2341,14.5654 3.6317,21.3471 h -56.9995 z m 407.735,246.35758 c 5.4475,7.25269 8.3961,15.88625 8.5295,24.97211 0.1668,11.42738 -4.2254,22.27037 -12.3666,30.5317 -8.1373,8.25599 -18.9055,12.80159 -30.3249,12.80159 -23.5418,-0.002 -42.6929,-19.15368 -42.6929,-42.69554 0,-9.32201 2.9499,-18.17839 8.5335,-25.60986 2.4283,-3.23408 2.8219,-7.5622 1.014,-11.18054 -1.8078,-3.61833 -5.5036,-5.90381 -9.5475,-5.90381 h -74.7149 v -56.99943 c 6.7818,2.39754 13.9678,3.63167 21.3472,3.63167 24.5397,0 45.8896,-13.88095 56.6378,-34.19806 l 25.2002,65.49959 c 1.0167,2.64037 3.0407,4.77107 5.6277,5.92115 2.587,1.15007 5.5263,1.22346 8.1666,0.20813 l 63.1634,-24.30234 c 0.1895,6.88177 1.505,13.73019 3.9386,20.34112 2.7271,7.41012 6.743,14.11177 11.8049,19.89817 h -35.7831 c -4.0439,0 -7.741,2.28548 -9.5488,5.90381 -1.8079,3.61834 -1.4129,7.94646 1.0153,11.18054 z M 500.9156,338.81265 c -0.019,-0.006 -0.036,-0.007 -0.055,-0.012 0.013,-0.51233 0.038,-1.02067 0.038,-1.53566 0,-17.18042 -6.8057,-33.35085 -19.1643,-45.5307 -5.0072,-4.93519 -10.6655,-8.9351 -16.7575,-11.95038 0.4376,0.0987 0.8806,0.18012 1.3342,0.22281 4.0306,0.39892 7.9238,-1.53299 10.0705,-4.96187 4.8111,-7.68763 11.8116,-13.5394 20.2437,-16.92692 10.6055,-4.26141 22.3024,-4.05462 32.9346,0.57771 10.6269,4.62965 18.7361,13.04842 22.8374,23.70729 8.4521,21.97151 -2.5457,46.72214 -24.5172,55.1756 -8.7002,3.34882 -18.0249,3.77443 -26.9653,1.23412 z M 394.164,710.83797 H 164.8908 c -3.058,0 -5.5449,-2.48694 -5.5449,-5.54491 V 476.01982 h 74.7149 c 4.0439,0 7.741,-2.28547 9.5488,-5.9038 1.8079,-3.61834 1.4142,-7.94647 -1.014,-11.18055 -5.5836,-7.43146 -8.5348,-16.28784 -8.5348,-25.60985 0,-23.54185 19.151,-42.69287 42.6928,-42.69421 11.4194,0 22.189,4.5456 30.3249,12.80159 8.1413,8.26 12.5335,19.10299 12.3667,30.5317 -0.1335,9.08586 -3.082,17.71942 -8.5295,24.97211 -2.4283,3.23408 -2.8219,7.5622 -1.0141,11.18054 1.8079,3.61833 5.5036,5.90247 9.5476,5.90247 h 74.7148 v 57.00344 c -6.4908,-2.29481 -13.3552,-3.52627 -20.3985,-3.62901 -17.155,-0.30152 -33.4628,6.32142 -45.8268,18.50661 -12.3573,12.17986 -19.1631,28.35029 -19.1631,45.5307 0,35.31212 28.7306,64.03865 64.0413,64.03865 7.3794,0 14.5654,-1.23413 21.3471,-3.63167 z m 256.1653,-5.54491 c 0,3.05797 -2.4869,5.54491 -5.545,5.54491 H 415.5111 V 636.1231 c 0,-4.04394 -2.2854,-7.74232 -5.9038,-9.54882 -3.617,-1.80383 -7.9465,-1.41424 -11.1805,1.01532 -7.4315,5.58227 -16.2879,8.5335 -25.6099,8.5335 -23.5405,0 -42.6928,-19.15101 -42.6942,-42.69154 0,-11.42069 4.5456,-22.19031 12.8016,-30.32623 8.26,-8.14124 19.075,-12.48938 30.5304,-12.36664 9.0858,0.13342 17.7208,3.08199 24.9721,8.53084 3.2327,2.42689 7.5609,2.82048 11.1805,1.01532 3.6184,-1.8065 5.9038,-5.50489 5.9038,-9.54883 v -74.71486 h 56.9995 c -2.3975,6.78171 -3.6317,13.96768 -3.6317,21.3471 0,35.31078 28.7279,64.03998 64.0386,64.04132 v 0 c 17.1791,0 33.3482,-6.80573 45.5281,-19.16303 12.1852,-12.36398 18.7574,-28.63847 18.5066,-45.82689 -0.1028,-7.04322 -1.3342,-13.90765 -3.6277,-20.3985 h 57.0021 z m 33.8832,-347.8057 c -3.7744,1.45294 -6.4041,4.91384 -6.7924,8.9391 -0.3883,4.02527 1.533,7.92378 4.9619,10.0705 7.8784,4.93118 13.8129,12.13716 17.1603,20.83744 8.4522,21.97017 -2.5443,46.72347 -24.5144,55.1756 -10.6589,4.1013 -22.3424,3.72639 -32.9012,-1.05802 -10.5629,-4.78576 -18.556,-13.32727 -22.5039,-24.05286 -3.1393,-8.52816 -3.4876,-17.64604 -1.0073,-26.37034 1.106,-3.89051 -0.083,-8.07187 -3.0686,-10.79896 -2.0013,-1.82918 -4.5803,-2.7938 -7.2007,-2.7938 -1.2875,0 -2.5856,0.23348 -3.8305,0.71112 l -69.7316,26.82931 -20.4665,-53.19832 c 7.1899,-0.19746 14.3412,-1.62772 21.2269,-4.27609 32.956,-12.68018 49.4533,-49.80813 36.7744,-82.76272 -6.1693,-16.03568 -18.3264,-28.68251 -34.2354,-35.61231 -15.9142,-6.93247 -33.4642,-7.22199 -49.4159,-0.81652 -6.5362,2.62435 -12.5,6.23868 -17.734,10.70957 l -20.4692,-53.20098 213.982,-82.32644 c 0,0 0,0 0,0 1.3822,-0.52968 2.8898,-0.49366 4.2427,0.10807 1.3542,0.60172 2.3909,1.69442 2.9233,3.07665 l 82.3277,213.98203 z"
     id="path946"
     style="fill:#00a3b9;fill-opacity:1;stroke-width:1.3342" />
</svg>
