<?xml version="1.0" encoding="UTF-8" standalone="no"?>
<svg
   inkscape:export-ydpi="32.805386"
   inkscape:export-xdpi="32.805386"
   inkscape:export-filename="D:\users\akers\documents\_personal -D\DCC-EX\logo.png"
   inkscape:version="1.2.2 (732a01da63, 2022-12-09)"
   sodipodi:docname="DCC-EX_logo_simplified.svg"
   id="svg40"
   version="1.1"
   fill="none"
   viewBox="0 0 1700 1700"
   height="1700"
   width="1700"
   xmlns:inkscape="http://www.inkscape.org/namespaces/inkscape"
   xmlns:sodipodi="http://sodipodi.sourceforge.net/DTD/sodipodi-0.dtd"
   xmlns="http://www.w3.org/2000/svg"
   xmlns:svg="http://www.w3.org/2000/svg"
   xmlns:rdf="http://www.w3.org/1999/02/22-rdf-syntax-ns#"
   xmlns:cc="http://creativecommons.org/ns#"
   xmlns:dc="http://purl.org/dc/elements/1.1/">
  <metadata
     id="metadata44">
    <rdf:RDF>
      <cc:Work
         rdf:about="">
        <dc:format>image/svg+xml</dc:format>
        <dc:type
           rdf:resource="http://purl.org/dc/dcmitype/StillImage" />
        <dc:title />
      </cc:Work>
    </rdf:RDF>
  </metadata>
  <sodipodi:namedview
     inkscape:snap-object-midpoints="false"
     inkscape:guide-bbox="true"
     showguides="true"
     inkscape:current-layer="svg40"
     inkscape:window-maximized="1"
     inkscape:window-y="-11"
     inkscape:window-x="2869"
     inkscape:cy="677.40216"
     inkscape:cx="547.70115"
     inkscape:zoom="0.74401889"
     showgrid="false"
     id="namedview42"
     inkscape:window-height="1244"
     inkscape:window-width="2400"
     inkscape:pageshadow="2"
     inkscape:pageopacity="1"
     guidetolerance="10"
     gridtolerance="10"
     objecttolerance="10"
     borderopacity="1"
     bordercolor="#666666"
     pagecolor="#ffffff"
     inkscape:document-rotation="0"
     inkscape:pagecheckerboard="0"
     inkscape:showpageshadow="0"
     inkscape:deskcolor="#d1d1d1" />
  <mask
     height="599"
     width="599"
     y="21"
     x="406"
     maskUnits="userSpaceOnUse"
     mask-type="alpha"
     id="mask0">
    <rect
       id="rect4"
       fill="#ffffff"
       transform="rotate(-45,406.51,320.148)"
       rx="56.537102"
       height="422.702"
       width="422.702"
       y="320.14801"
       x="406.51001" />
  </mask>
  <defs
     id="defs38">
    <rect
       x="720.49402"
       y="801.32397"
       width="243.95853"
       height="98.689613"
       id="rect4023" />
    <linearGradient
       gradientUnits="userSpaceOnUse"
       y2="597.09998"
       x2="707.41602"
       y1="-4.4348102"
       x1="707.41602"
       id="paint0_linear">
      <stop
         id="stop33"
         stop-color="#D3D3D3" />
      <stop
         id="stop35"
         stop-color="white"
         offset="1" />
    </linearGradient>
    <filter
       height="1.1985387"
       y="-0.070111012"
       width="1.2184981"
       x="-0.077159386"
       id="filter948"
       style="color-interpolation-filters:sRGB;"
       inkscape:collect="always"
       inkscape:label="Drop Shadow">
      <feGaussianBlur
         id="feGaussianBlur950"
         stdDeviation="0.011230562"
         inkscape:collect="always"
         result="fbSourceGraphic" />
      <feColorMatrix
         result="fbSourceGraphicAlpha"
         in="fbSourceGraphic"
         values="0 0 0 -1 0 0 0 0 -1 0 0 0 0 -1 0 0 0 0 1 0"
         id="feColorMatrix13474" />
      <feFlood
         id="feFlood13476"
         flood-opacity="0.498039"
         flood-color="rgb(255,255,255)"
         result="flood"
         in="fbSourceGraphic" />
      <feComposite
         in2="fbSourceGraphic"
         id="feComposite13478"
         in="flood"
         operator="in"
         result="composite1" />
      <feGaussianBlur
         id="feGaussianBlur13480"
         in="composite1"
         stdDeviation="6"
         result="blur" />
      <feOffset
         id="feOffset13482"
         dx="12"
         dy="12"
         result="offset" />
      <feComposite
         in2="offset"
         id="feComposite13484"
         in="fbSourceGraphic"
         operator="over"
         result="composite2" />
    </filter>
    <filter
       height="1.1985387"
       y="-0.070111012"
       width="1.1986768"
       x="-0.070159769"
       id="filter952"
       style="color-interpolation-filters:sRGB;"
       inkscape:collect="always"
       inkscape:label="Drop Shadow">
      <feGaussianBlur
         id="feGaussianBlur954"
         stdDeviation="0.011230562"
         inkscape:collect="always"
         result="fbSourceGraphic" />
      <feColorMatrix
         result="fbSourceGraphicAlpha"
         in="fbSourceGraphic"
         values="0 0 0 -1 0 0 0 0 -1 0 0 0 0 -1 0 0 0 0 1 0"
         id="feColorMatrix13462" />
      <feFlood
         id="feFlood13464"
         flood-opacity="0.498039"
         flood-color="rgb(255,255,255)"
         result="flood"
         in="fbSourceGraphic" />
      <feComposite
         in2="fbSourceGraphic"
         id="feComposite13466"
         in="flood"
         operator="in"
         result="composite1" />
      <feGaussianBlur
         id="feGaussianBlur13468"
         in="composite1"
         stdDeviation="6"
         result="blur" />
      <feOffset
         id="feOffset13470"
         dx="12"
         dy="12"
         result="offset" />
      <feComposite
         in2="offset"
         id="feComposite13472"
         in="fbSourceGraphic"
         operator="over"
         result="composite2" />
    </filter>
    <filter
       height="1.1985387"
       y="-0.070111012"
       width="1.2184981"
       x="-0.077159386"
       id="filter956"
       style="color-interpolation-filters:sRGB;"
       inkscape:collect="always"
       inkscape:label="Drop Shadow">
      <feGaussianBlur
         id="feGaussianBlur958"
         stdDeviation="0.011230562"
         inkscape:collect="always"
         result="fbSourceGraphic" />
      <feColorMatrix
         result="fbSourceGraphicAlpha"
         in="fbSourceGraphic"
         values="0 0 0 -1 0 0 0 0 -1 0 0 0 0 -1 0 0 0 0 1 0"
         id="feColorMatrix13486" />
      <feFlood
         id="feFlood13488"
         flood-opacity="0.498039"
         flood-color="rgb(255,255,255)"
         result="flood"
         in="fbSourceGraphic" />
      <feComposite
         in2="fbSourceGraphic"
         id="feComposite13490"
         in="flood"
         operator="in"
         result="composite1" />
      <feGaussianBlur
         id="feGaussianBlur13492"
         in="composite1"
         stdDeviation="6"
         result="blur" />
      <feOffset
         id="feOffset13494"
         dx="12"
         dy="12"
         result="offset" />
      <feComposite
         in2="offset"
         id="feComposite13496"
         in="fbSourceGraphic"
         operator="over"
         result="composite2" />
    </filter>
    <filter
       height="2.2166867"
       y="-0.42965493"
       width="1.3035209"
       x="-0.1071839"
       id="filter960"
       style="color-interpolation-filters:sRGB;"
       inkscape:collect="always"
       inkscape:label="Drop Shadow">
      <feGaussianBlur
         id="feGaussianBlur962"
         stdDeviation="0.011230562"
         inkscape:collect="always"
         result="fbSourceGraphic" />
      <feColorMatrix
         result="fbSourceGraphicAlpha"
         in="fbSourceGraphic"
         values="0 0 0 -1 0 0 0 0 -1 0 0 0 0 -1 0 0 0 0 1 0"
         id="feColorMatrix13498" />
      <feFlood
         id="feFlood13500"
         flood-opacity="0.498039"
         flood-color="rgb(255,255,255)"
         result="flood"
         in="fbSourceGraphic" />
      <feComposite
         in2="fbSourceGraphic"
         id="feComposite13502"
         in="flood"
         operator="in"
         result="composite1" />
      <feGaussianBlur
         id="feGaussianBlur13504"
         in="composite1"
         stdDeviation="6"
         result="blur" />
      <feOffset
         id="feOffset13506"
         dx="12"
         dy="12"
         result="offset" />
      <feComposite
         in2="offset"
         id="feComposite13508"
         in="fbSourceGraphic"
         operator="over"
         result="composite2" />
    </filter>
    <mask
       maskUnits="userSpaceOnUse"
       id="mask621">
      <g
         id="g625"
         transform="matrix(0.96116878,0,0,0.96116878,-113.70274,-273.385)">
        <rect
           id="rect623"
           fill="#ffffff"
           transform="rotate(-45)"
           rx="58.821201"
           height="439.77914"
           width="439.77914"
           y="819.3537"
           x="-53.939789"
           style="stroke-width:1.0404" />
      </g>
    </mask>
    <mask
       maskUnits="userSpaceOnUse"
       id="mask627">
      <g
         id="g631"
         transform="matrix(0.96116878,0,0,0.96116878,-113.70274,-273.385)">
        <rect
           id="rect629"
           fill="#ffffff"
           transform="rotate(-45)"
           rx="58.821201"
           height="439.77914"
           width="439.77914"
           y="819.3537"
           x="-53.939789"
           style="stroke-width:1.0404" />
      </g>
    </mask>
    <mask
       maskUnits="userSpaceOnUse"
       id="mask633">
      <g
         id="g637"
         transform="matrix(0.96116878,0,0,0.96116878,-113.70274,-273.385)">
        <rect
           id="rect635"
           fill="#ffffff"
           transform="rotate(-45)"
           rx="58.821201"
           height="439.77914"
           width="439.77914"
           y="819.3537"
           x="-53.939789"
           style="stroke-width:1.0404" />
      </g>
    </mask>
    <mask
       maskUnits="userSpaceOnUse"
       id="mask639">
      <g
         id="g643"
         transform="matrix(0.96116878,0,0,0.96116878,-113.70274,-273.385)">
        <rect
           id="rect641"
           fill="#ffffff"
           transform="rotate(-45)"
           rx="58.821201"
           height="439.77914"
           width="439.77914"
           y="819.3537"
           x="-53.939789"
           style="stroke-width:1.0404" />
      </g>
    </mask>
    <filter
       style="color-interpolation-filters:sRGB;"
       inkscape:label="Drop Shadow"
       id="filter13520"
       x="-0.074079676"
       y="-0.067262595"
       width="1.2098924"
       height="1.1905774">
      <feFlood
         flood-opacity="0.498039"
         flood-color="rgb(255,255,255)"
         result="flood"
         id="feFlood13510" />
      <feComposite
         in="flood"
         in2="SourceGraphic"
         operator="in"
         result="composite1"
         id="feComposite13512" />
      <feGaussianBlur
         in="composite1"
         stdDeviation="6"
         result="blur"
         id="feGaussianBlur13514" />
      <feOffset
         dx="12"
         dy="12"
         result="offset"
         id="feOffset13516" />
      <feComposite
         in="SourceGraphic"
         in2="offset"
         operator="over"
         result="composite2"
         id="feComposite13518" />
    </filter>
    <filter
       style="color-interpolation-filters:sRGB;"
       inkscape:label="Drop Shadow"
       id="filter13532"
       x="-0.060929892"
       y="-0.067262595"
       width="1.1726347"
       height="1.1905774">
      <feFlood
         flood-opacity="0.498039"
         flood-color="rgb(255,255,255)"
         result="flood"
         id="feFlood13522" />
      <feComposite
         in="flood"
         in2="SourceGraphic"
         operator="in"
         result="composite1"
         id="feComposite13524" />
      <feGaussianBlur
         in="composite1"
         stdDeviation="6"
         result="blur"
         id="feGaussianBlur13526" />
      <feOffset
         dx="12"
         dy="12"
         result="offset"
         id="feOffset13528" />
      <feComposite
         in="SourceGraphic"
         in2="offset"
         operator="over"
         result="composite2"
         id="feComposite13530" />
    </filter>
    <linearGradient
       gradientUnits="userSpaceOnUse"
       y2="597.09998"
       x2="707.41602"
       y1="-4.4348102"
       x1="707.41602"
       id="paint0_linear-1">
      <stop
         id="stop33-8"
         stop-color="#D3D3D3" />
      <stop
         id="stop35-3"
         stop-color="white"
         offset="1" />
    </linearGradient>
    <mask
       maskUnits="userSpaceOnUse"
       id="mask16119">
      <g
         id="g16123"
         transform="matrix(0.96116878,0,0,0.96116878,-113.70274,-273.385)">
        <rect
           id="rect16121"
           fill="#ffffff"
           transform="rotate(-45)"
           rx="58.821201"
           height="439.77914"
           width="439.77914"
           y="819.3537"
           x="-53.939789"
           style="stroke-width:1.0404" />
      </g>
    </mask>
  </defs>
  <rect
     id="rect2"
     stroke-linejoin="round"
     stroke-miterlimit="16"
     stroke-width="14.944"
     stroke="#00353D"
     fill="#ffffff"
     transform="rotate(-45)"
     rx="66.293144"
     height="454.72348"
     width="454.72348"
     y="811.96899"
     x="-60.953705"
     style="stroke:#00353d;stroke-opacity:1;fill:#ffffff;fill-opacity:1" />
  <path
     style="fill:url(#paint0_linear-1)"
     id="path7"
     fill="url(#paint0_linear)"
     d="M 629.39623,87.314661 C 700.61387,180.8507 773.71142,345.65484 577.257,498.402 l 94.853,87.162 49.99,11.536 61.722,-42.127 C 958.05812,347.15671 778.7384,137.31463 676.41076,44.670385 662.85348,52.525736 655.39436,61.20784 629.39623,87.314661 Z"
     transform="matrix(1.0404,0,0,1.0404,118.29633,284.42975)"
     mask="url(#mask16119)"
     sodipodi:nodetypes="ccccccc" />
  <text
     xml:space="preserve"
     id="text4021"
     style="font-size:14.6667px;line-height:2px;font-family:'Adobe Gothic Std';-inkscape-font-specification:'Adobe Gothic Std';letter-spacing:0px;word-spacing:0px;writing-mode:lr-tb;white-space:pre;shape-inside:url(#rect4023);fill:none;stroke:#000000;stroke-width:1px;stroke-linecap:butt;stroke-linejoin:miter;stroke-opacity:1" />
  <path
     d="m 289.63,834.902 c 0,12.532 -2.2,24.06 -6.601,34.583 -4.305,10.523 -10.284,19.611 -17.937,27.264 -7.653,7.558 -16.741,13.489 -27.264,17.794 C 227.305,918.848 215.873,921 203.532,921 H 102.798 c -2.6786,0 -5.1659,-0.478 -7.4618,-1.435 -2.29594,-0.956 -4.30489,-2.248 -6.02684,-3.874 -1.62629,-1.722 -2.91776,-3.731 -3.8744,-6.027 C 84.478321,907.368 84,904.881 84,902.202 V 734.025 c 0,-2.583 0.478321,-5.023 1.43496,-7.319 0.95664,-2.296 2.24811,-4.305 3.8744,-6.027 1.72195,-1.722 3.7309,-3.061 6.02684,-4.017 2.2959,-0.957 4.7832,-1.435 7.4618,-1.435 h 100.734 c 12.341,0 23.773,2.152 34.296,6.457 10.523,4.305 19.611,10.284 27.264,17.937 7.653,7.557 13.632,16.645 17.937,27.264 4.401,10.523 6.601,22.003 6.601,34.439 z m -37.309,-33.578 c 0,-7.27 -1.196,-13.919 -3.587,-19.946 -2.296,-6.027 -5.597,-11.145 -9.902,-15.354 -4.304,-4.305 -9.47,-7.605 -15.497,-9.901 -5.931,-2.392 -12.532,-3.587 -19.803,-3.587 h -82.223 v 131.155 h 82.223 c 7.271,0 13.872,-1.148 19.803,-3.444 6.027,-2.391 11.193,-5.692 15.497,-9.901 4.305,-4.305 7.606,-9.423 9.902,-15.354 2.391,-6.027 3.587,-12.723 3.587,-20.09 z"
     fill="#00353D"
     id="path17"
     style="fill:#00353d;fill-opacity:1;filter:url(#filter952)"
     transform="matrix(1.0404,0,0,1.0404,116.34075,285.11657)" />
  <path
     d="m 510.471,921 h -134.6 c -3.444,0 -7.175,-0.383 -11.192,-1.148 -3.923,-0.861 -7.845,-2.152 -11.767,-3.874 -3.827,-1.722 -7.51,-3.922 -11.049,-6.601 -3.54,-2.774 -6.697,-6.075 -9.471,-9.901 -2.679,-3.923 -4.831,-8.419 -6.457,-13.489 -1.627,-5.166 -2.44,-10.953 -2.44,-17.363 V 767.603 c 0,-3.444 0.383,-7.127 1.148,-11.05 0.861,-4.017 2.153,-7.94 3.875,-11.766 1.722,-3.922 3.97,-7.653 6.744,-11.193 2.774,-3.539 6.075,-6.649 9.901,-9.327 3.922,-2.774 8.419,-4.975 13.489,-6.601 5.07,-1.626 10.81,-2.439 17.219,-2.439 h 134.6 v 37.309 h -134.6 c -4.879,0 -8.609,1.291 -11.192,3.874 -2.583,2.583 -3.875,6.409 -3.875,11.48 v 100.734 c 0,4.783 1.292,8.514 3.875,11.193 2.678,2.583 6.409,3.874 11.192,3.874 h 134.6 z"
     fill="#00353D"
     id="path19"
     style="fill:#00353d;fill-opacity:1;filter:url(#filter948)"
     transform="matrix(1.0404,0,0,1.0404,116.34075,285.11657)" />
  <path
     d="M 728.298,921 H 593.699 c -3.444,0 -7.175,-0.383 -11.193,-1.148 -3.922,-0.861 -7.845,-2.152 -11.767,-3.874 -3.826,-1.722 -7.509,-3.922 -11.049,-6.601 -3.54,-2.774 -6.697,-6.075 -9.471,-9.901 -2.678,-3.923 -4.831,-8.419 -6.457,-13.489 -1.626,-5.166 -2.44,-10.953 -2.44,-17.363 V 767.603 c 0,-3.444 0.383,-7.127 1.148,-11.05 0.861,-4.017 2.153,-7.94 3.875,-11.766 1.722,-3.922 3.97,-7.653 6.744,-11.193 2.774,-3.539 6.075,-6.649 9.901,-9.327 3.923,-2.774 8.419,-4.975 13.489,-6.601 5.07,-1.626 10.81,-2.439 17.22,-2.439 h 134.599 v 37.309 H 593.699 c -4.879,0 -8.61,1.291 -11.193,3.874 -2.583,2.583 -3.875,6.409 -3.875,11.48 v 100.734 c 0,4.783 1.292,8.514 3.875,11.193 2.678,2.583 6.409,3.874 11.193,3.874 h 134.599 z"
     fill="#00353D"
     id="path21"
     style="fill:#00353d;fill-opacity:1;filter:url(#filter956)"
     transform="matrix(1.0404,0,0,1.0404,116.34075,285.11657)" />
  <path
     d="m 796.44,834.902 h -134.6 v -33.578 h 134.6 z"
     fill="#00353D"
     id="path23"
     style="fill:#00353d;fill-opacity:1;filter:url(#filter960)"
     sodipodi:nodetypes="ccccc"
     transform="matrix(0.85416931,0,0,1.0404424,326.98672,285.08298)" />
  <path
     d="m 1220.975,1155.8388 h -138.1026 v -39.1149 h 138.1026 z m 17.4684,87.4862 h -140.0379 c -5.3788,0 -11.2467,-0.9458 -17.6244,-2.8362 -6.3672,-1.8914 -12.2871,-4.9772 -17.7596,-9.2564 -5.3789,-4.379 -9.9056,-10.0024 -13.5886,-16.8701 -3.5832,-6.9675 -5.3748,-15.477 -5.3748,-25.5293 v -140.0368 c 0,-2.6874 0.4984,-5.2259 1.493,-7.6147 0.9957,-2.3888 2.3388,-4.4789 4.0316,-6.2705 1.7915,-1.7916 3.8817,-3.1847 6.2705,-4.1793 2.3929,-0.9956 4.9731,-1.493 7.7613,-1.493 h 174.8289 v 38.8163 h -155.571 v 120.778 c 0,5.0761 1.3421,8.9578 4.0367,11.6452 2.6842,2.6873 6.6169,4.0305 11.7877,4.0305 h 139.7466 z"
     fill="#00a3b9"
     id="path27"
     style="stroke-width:1.0404;filter:url(#filter13520)" />
  <path
     d="m 1373.8514,1105.6769 65.3892,-76.4382 h 52.9979 l -92.117,107.3412 91.524,106.7451 h -52.7067 l -65.0874,-75.841 -64.7961,75.841 h -52.8523 l 91.3679,-106.7451 -91.6696,-107.3412 h 52.561 z"
     fill="#00a3b9"
     id="path29"
     style="stroke-width:1.0404;filter:url(#filter13532)" />
  <path
     d="M 254.86034,973.32408 H 1440.9036"
     stroke="#000000"
     stroke-width="5.45568"
     id="path31"
     style="fill:#000000" />
  <path
     id="path9"
     stroke-width="10.2598"
     stroke="#00353d"
     d="m 658.16705,58.55254 c -14.47946,14.332121 -28.84488,28.777933 -43.21386,43.22052 m 0,0 4.83781,8.25394 111.567,-45.0917 30.549,29.4829 -130.163,47.4038 13.282,29.483 146.765,-45.67 25.235,34.108 -158.054,45.092 2.656,39.888 186.611,-39.888 40.51,57.809 -223.136,26.592 -21.915,47.404 262.981,-19.077 v 71.684 l -284.896,-3.469 -23.908,41.045 263.17597,45.04448"
     transform="matrix(1.0404,0,0,1.0404,118.29633,284.42975)"
     mask="url(#mask633)"
     sodipodi:nodetypes="ccccccccccccccccccccc"
     style="fill:none;fill-opacity:1;stroke:#00353d;stroke-opacity:1" />
  <path
     id="path11"
     stroke-width="20.5195"
     stroke="#ffffff"
     d="M 570.647,491.57 C 764.06935,341.18151 699.38423,179.64727 631.42725,85.77504 M 680.92946,42.588764 C 783.81148,136.94203 956.55906,344.14897 784.486,549.38"
     transform="matrix(1.0404,0,0,1.0404,118.29633,284.42975)"
     mask="url(#mask627)"
     sodipodi:nodetypes="cccc"
     style="fill:none;stroke:#ffffff;stroke-opacity:1" />
  <path
     id="path13"
     stroke-width="10.2598"
     stroke="#00353d"
     d="M 570.647,491.57 C 764.14212,341.12493 699.33552,179.52573 631.35055,85.669126 M 681.01351,42.665862 C 783.90553,137.05487 956.51221,344.20485 784.486,549.38"
     transform="matrix(1.0404,0,0,1.0404,118.29633,284.42975)"
     mask="url(#mask621)"
     sodipodi:nodetypes="cccc"
     style="fill:none;stroke:#00353d;stroke-opacity:1" />
</svg>
