<?xml version="1.0" encoding="UTF-8" standalone="no"?>
<svg
   inkscape:export-ydpi="17.060751"
   inkscape:export-xdpi="17.060751"
   inkscape:export-filename="..\..\docs\_static\images\logos\product-logo-news.png"
   inkscape:version="1.2.1 (9c6d41e410, 2022-07-14)"
   sodipodi:docname="DCC-EX_product_news.svg"
   id="svg40"
   version="1.1"
   fill="none"
   viewBox="0 0 4500 900"
   height="900"
   width="4500"
   xml:space="preserve"
   xmlns:inkscape="http://www.inkscape.org/namespaces/inkscape"
   xmlns:sodipodi="http://sodipodi.sourceforge.net/DTD/sodipodi-0.dtd"
   xmlns="http://www.w3.org/2000/svg"
   xmlns:svg="http://www.w3.org/2000/svg"
   xmlns:rdf="http://www.w3.org/1999/02/22-rdf-syntax-ns#"
   xmlns:cc="http://creativecommons.org/ns#"
   xmlns:dc="http://purl.org/dc/elements/1.1/"><metadata
     id="metadata44"><rdf:RDF><cc:Work
         rdf:about=""><dc:format>image/svg+xml</dc:format><dc:type
           rdf:resource="http://purl.org/dc/dcmitype/StillImage" /></cc:Work></rdf:RDF></metadata><sodipodi:namedview
     inkscape:snap-object-midpoints="false"
     inkscape:guide-bbox="true"
     showguides="true"
     inkscape:current-layer="svg40"
     inkscape:window-maximized="1"
     inkscape:window-y="-7"
     inkscape:window-x="-8"
     inkscape:cy="193.24834"
     inkscape:cx="2192.9486"
     inkscape:zoom="0.059508919"
     showgrid="false"
     id="namedview42"
     inkscape:window-height="816"
     inkscape:window-width="1600"
     inkscape:pageshadow="2"
     inkscape:pageopacity="0"
     guidetolerance="10"
     gridtolerance="10"
     objecttolerance="10"
     borderopacity="1"
     bordercolor="#eeeeee"
     pagecolor="#505050"
     inkscape:document-rotation="0"
     inkscape:pagecheckerboard="0"
     width="4000px"
     inkscape:showpageshadow="0"
     inkscape:deskcolor="#505050" /><mask
     height="599"
     width="599"
     y="21"
     x="406"
     maskUnits="userSpaceOnUse"
     mask-type="alpha"
     id="mask0"><rect
       id="rect4"
       fill="#ffffff"
       transform="rotate(-45,406.51,320.148)"
       rx="56.537102"
       height="422.702"
       width="422.702"
       y="320.14801"
       x="406.51001" /></mask><defs
     id="defs38"><rect
       x="205.28384"
       y="1341.9482"
       width="1334.3451"
       height="174.87143"
       id="rect2482" /><rect
       x="720.49402"
       y="801.32397"
       width="243.95853"
       height="98.689613"
       id="rect4023" /><linearGradient
       gradientUnits="userSpaceOnUse"
       y2="597.09998"
       x2="707.41602"
       y1="-4.4348102"
       x1="707.41602"
       id="paint0_linear"><stop
         id="stop33"
         stop-color="#D3D3D3" /><stop
         id="stop35"
         stop-color="white"
         offset="1" /></linearGradient><mask
       height="599"
       width="599"
       y="21"
       x="406"
       maskUnits="userSpaceOnUse"
       mask-type="alpha"
       id="mask0-5"><rect
         id="rect4-1"
         fill="#ffffff"
         transform="rotate(-45,406.51,320.148)"
         rx="56.537102"
         height="422.702"
         width="422.702"
         y="320.14801"
         x="406.51001" /></mask><rect
       x="205.28384"
       y="1341.9482"
       width="1334.3451"
       height="174.87143"
       id="rect2482-4" /><mask
       height="599"
       width="599"
       y="21"
       x="406"
       maskUnits="userSpaceOnUse"
       mask-type="alpha"
       id="mask0-5-9"><rect
         id="rect4-1-1"
         fill="#ffffff"
         transform="rotate(-45,406.51,320.148)"
         rx="56.537102"
         height="422.702"
         width="422.702"
         y="320.14801"
         x="406.51001" /></mask><linearGradient
       gradientUnits="userSpaceOnUse"
       y2="597.09998"
       x2="707.41602"
       y1="-4.4348102"
       x1="707.41602"
       id="paint0_linear-9"><stop
         id="stop33-8"
         stop-color="#D3D3D3" /><stop
         id="stop35-0"
         stop-color="white"
         offset="1" /></linearGradient><rect
       x="205.28384"
       y="1341.9482"
       width="1334.3451"
       height="174.87143"
       id="rect2482-4-7" /><mask
       height="599"
       width="599"
       y="21"
       x="406"
       maskUnits="userSpaceOnUse"
       mask-type="alpha"
       id="mask0-5-7"><rect
         id="rect4-1-5"
         fill="#ffffff"
         transform="rotate(-45,406.51,320.148)"
         rx="56.537102"
         height="422.702"
         width="422.702"
         y="320.14801"
         x="406.51001" /></mask><linearGradient
       gradientUnits="userSpaceOnUse"
       y2="597.09998"
       x2="707.41602"
       y1="-4.4348102"
       x1="707.41602"
       id="paint0_linear-0"><stop
         id="stop33-9"
         stop-color="#D3D3D3" /><stop
         id="stop35-1"
         stop-color="white"
         offset="1" /></linearGradient><rect
       x="205.28384"
       y="1341.9482"
       width="1039.0117"
       height="116.82903"
       id="rect2482-4-7-6" /><rect
       x="205.28384"
       y="1341.9482"
       width="499.55879"
       height="133.90032"
       id="rect2482-4-7-6-3" /><rect
       x="205.28384"
       y="1341.9482"
       width="1334.3451"
       height="174.87143"
       id="rect2482-4-7-6-5" /><rect
       x="205.28384"
       y="1341.9482"
       width="1334.3451"
       height="174.87143"
       id="rect2482-4-7-6-3-9" /><mask
       height="599"
       width="599"
       y="21"
       x="406"
       maskUnits="userSpaceOnUse"
       mask-type="alpha"
       id="mask0-5-7-4"><rect
         id="rect4-1-5-9"
         fill="#ffffff"
         transform="rotate(-45,406.51,320.148)"
         rx="56.537102"
         height="422.702"
         width="422.702"
         y="320.14801"
         x="406.51001" /></mask><linearGradient
       gradientUnits="userSpaceOnUse"
       y2="597.09998"
       x2="707.41602"
       y1="-4.4348102"
       x1="707.41602"
       id="paint0_linear-0-5"><stop
         id="stop33-9-5"
         stop-color="#D3D3D3" /><stop
         id="stop35-1-9"
         stop-color="white"
         offset="1" /></linearGradient></defs><rect
     style="fill:none;fill-opacity:1;stroke-width:0.377953;-inkscape-stroke:none;stop-color:#000000;stroke:none"
     id="rect46006"
     width="4501.5605"
     height="901.94586"
     x="-1.4852952"
     y="-1.4852883" /><text
     xml:space="preserve"
     id="text4021"
     style="font-size:14.6667px;line-height:2px;font-family:'Adobe Gothic Std';-inkscape-font-specification:'Adobe Gothic Std';letter-spacing:0px;word-spacing:0px;writing-mode:lr-tb;white-space:pre;shape-inside:url(#rect4023);display:inline;fill:none;stroke:#000000;stroke-width:1px;stroke-linecap:butt;stroke-linejoin:miter;stroke-opacity:1" /><text
     xml:space="preserve"
     id="text2480-6-0-6"
     style="font-style:normal;font-variant:normal;font-weight:normal;font-stretch:normal;font-size:88.1171px;line-height:1.25;font-family:Audiowide;-inkscape-font-specification:'Audiowide, Normal';font-variant-ligatures:normal;font-variant-caps:normal;font-variant-numeric:normal;font-variant-east-asian:normal;letter-spacing:0px;word-spacing:0px;white-space:pre;shape-inside:url(#rect2482-4-7-6);display:inline;fill:#000000;fill-opacity:1;stroke:none"
     transform="matrix(3.4802183,0,0,3.4802183,104.67054,-4197.4634)"
     inkscape:export-filename="D:\users\akers\documents\_personal -D\DCC-EX\product-logo-ex-turntable.png"
     inkscape:export-xdpi="18.431187"
     inkscape:export-ydpi="18.431187"><tspan
       x="205.2832"
       y="1421.3719"
       id="tspan1120">News</tspan></text><text
     xml:space="preserve"
     id="text2480-6-0-6-4"
     style="font-style:normal;font-variant:normal;font-weight:normal;font-stretch:normal;font-size:88.1171px;line-height:1.25;font-family:Audiowide;-inkscape-font-specification:'Audiowide, Normal';font-variant-ligatures:normal;font-variant-caps:normal;font-variant-numeric:normal;font-variant-east-asian:normal;letter-spacing:0px;word-spacing:0px;white-space:pre;shape-inside:url(#rect2482-4-7-6-3);display:inline;fill:#000000;fill-opacity:1;stroke:none"
     transform="matrix(3.4802183,0,0,3.4802183,104.67083,-4563.0201)"
     inkscape:export-filename="D:\users\akers\documents\_personal -D\DCC-EX\product-logo-ex-commandstation.png"
     inkscape:export-xdpi="18.431187"
     inkscape:export-ydpi="18.431187"><tspan
       x="205.2832"
       y="1421.3719"
       id="tspan1126"><tspan
         style="fill:#00353d"
         id="tspan1122">DCC-</tspan><tspan
         style="fill:#00a3b9"
         id="tspan1124">EX</tspan></tspan></text><path
     d="M 910.02466,466.51298 H 2096.0679"
     stroke="#000000"
     stroke-width="5.45568"
     id="path31-1"
     style="fill:#000000"
     inkscape:export-filename="D:\users\akers\documents\_personal -D\DCC-EX\product-logo-ex-commandstation.png"
     inkscape:export-xdpi="18.431187"
     inkscape:export-ydpi="18.431187" /><g
     id="g512"
     transform="matrix(21.086857,0,0,21.086857,90.212926,124.81073)"
     style="fill:#00a3b9;fill-opacity:1"><path
       fill="#263238"
       d="M 5.5,28 A 2.503,2.503 0 0 1 3,25.5 v -14 A 0.5,0.5 0 0 1 3.5,11 h 2 a 0.5,0.5 0 0 1 0,1 H 4 V 25.5 C 4,26.327 4.673,27 5.5,27 a 0.5,0.5 0 0 1 0,1 z"
       id="path485"
       style="fill:#00a3b9;fill-opacity:1" /><path
       fill="#263238"
       d="m 5.5,28 a 0.5,0.5 0 0 1 0,-1 C 6.327,27 7,26.327 7,25.5 v -22 a 0.5,0.5 0 0 1 1,0 v 22 C 8,26.879 6.878,28 5.5,28 Z"
       id="path487"
       style="fill:#00a3b9;fill-opacity:1" /><path
       fill="#263238"
       d="M 5.5,30 A 4.505,4.505 0 0 1 1,25.5 v -13 a 0.5,0.5 0 0 1 1,0 v 13 C 2,27.43 3.57,29 5.5,29 a 0.5,0.5 0 0 1 0,1 z"
       id="path489"
       style="fill:#00a3b9;fill-opacity:1" /><path
       fill="#263238"
       d="m 26.5,30 h -21 a 0.5,0.5 0 0 1 0,-1 C 7.43,29 9,27.43 9,25.5 V 2.5 A 0.5,0.5 0 0 1 9.5,2 h 21 A 0.5,0.5 0 0 1 31,2.5 v 23 C 31,27.981 28.981,30 26.5,30 Z M 8.326,29 H 26.5 C 28.43,29 30,27.43 30,25.5 V 3 H 10 V 25.5 A 4.495,4.495 0 0 1 8.326,29 Z"
       id="path491"
       style="fill:#00a3b9;fill-opacity:1" /><path
       fill="#263238"
       d="M 23.998,10 A 0.5,0.5 0 0 1 23.53,9.676 l -1.5,-4 a 0.5,0.5 0 0 1 0.936,-0.352 l 0.885,2.361 0.457,-2.284 a 0.5,0.5 0 1 1 0.98,0.197 l -0.801,4 A 0.498,0.498 0 0 1 23.998,10 Z"
       id="path493"
       style="fill:#00a3b9;fill-opacity:1" /><path
       fill="#263238"
       d="M 20.998,10 20.957,9.998 a 0.5,0.5 0 0 1 -0.45,-0.4 l -0.797,-4 a 0.50009649,0.50009649 0 1 1 0.981,-0.195 l 0.454,2.28 0.884,-2.358 a 0.5,0.5 0 0 1 0.936,0.352 l -1.5,4 A 0.498,0.498 0 0 1 20.998,10 Z M 14.5,10 A 0.5,0.5 0 0 1 14.085,9.779 L 12,6.689 V 9.5 a 0.5,0.5 0 0 1 -1,0 v -4 A 0.5,0.5 0 0 1 11.5,5 h 0.301 c 0.166,0 0.321,0.083 0.415,0.221 L 14,7.865 V 5.5 a 0.5,0.5 0 0 1 1,0 v 4 A 0.502,0.502 0 0 1 14.5,10 Z m 4,0 h -2 A 0.5,0.5 0 0 1 16,9.5 v -4 A 0.5,0.5 0 0 1 16.5,5 h 2 a 0.5,0.5 0 0 1 0,1 H 17 v 3 h 1.5 a 0.5,0.5 0 0 1 0,1 z"
       id="path495"
       style="fill:#00a3b9;fill-opacity:1" /><path
       fill="#263238"
       d="m 18,8 h -1.5 a 0.5,0.5 0 0 1 0,-1 H 18 a 0.5,0.5 0 0 1 0,1 z m 9.5,2 C 26.673,10 25.995,9.531 25.687,8.745 A 0.5,0.5 0 0 1 26.618,8.38 C 26.729,8.663 26.972,9 27.5,9 27.861,9 28.029,8.66 28.029,8.43 28.029,8.232 27.857,8.117 27.341,7.875 27.011,7.721 26.638,7.545 26.376,7.246 26.018,6.838 25.921,6.245 26.137,5.768 26.358,5.28 26.842,5 27.465,5 c 0.801,0 1.223,0.451 1.269,0.502 a 0.50013223,0.50013223 0 0 1 -0.74,0.673 C 27.976,6.158 27.804,6 27.465,6 c -0.153,0 -0.349,0.031 -0.417,0.181 -0.055,0.121 -0.021,0.291 0.079,0.405 0.125,0.143 0.387,0.266 0.639,0.384 0.533,0.251 1.263,0.593 1.263,1.46 0,0.755 -0.584,1.57 -1.529,1.57 z m 0,16 h -6 a 0.5,0.5 0 0 1 0,-1 h 6 a 0.5,0.5 0 0 1 0,1 z m -9,0 h -6 a 0.5,0.5 0 0 1 0,-1 h 6 a 0.5,0.5 0 0 1 0,1 z m 9,-2 h -6 a 0.5,0.5 0 0 1 0,-1 h 6 a 0.5,0.5 0 0 1 0,1 z m -9,0 h -6 a 0.5,0.5 0 0 1 0,-1 h 6 a 0.5,0.5 0 0 1 0,1 z m 9,-2 h -6 a 0.5,0.5 0 0 1 0,-1 h 6 a 0.5,0.5 0 0 1 0,1 z m -9,0 h -6 a 0.5,0.5 0 0 1 0,-1 h 6 a 0.5,0.5 0 0 1 0,1 z m 9,-2 h -6 a 0.5,0.5 0 0 1 0,-1 h 6 a 0.5,0.5 0 0 1 0,1 z m -9,0 h -6 a 0.5,0.5 0 0 1 0,-1 h 6 a 0.5,0.5 0 0 1 0,1 z m 9,-2 h -6 a 0.5,0.5 0 0 1 0,-1 h 6 a 0.5,0.5 0 0 1 0,1 z m -9,0 h -6 a 0.5,0.5 0 0 1 0,-1 h 6 a 0.5,0.5 0 0 1 0,1 z m 9,-2 h -6 a 0.5,0.5 0 0 1 0,-1 h 6 a 0.5,0.5 0 0 1 0,1 z m -9,0 h -6 a 0.5,0.5 0 0 1 0,-1 h 6 a 0.5,0.5 0 0 1 0,1 z m 9,-2 h -6 a 0.5,0.5 0 0 1 0,-1 h 6 a 0.5,0.5 0 0 1 0,1 z m -9,0 h -6 a 0.5,0.5 0 0 1 0,-1 h 6 a 0.5,0.5 0 0 1 0,1 z"
       id="path497"
       style="fill:#00a3b9;fill-opacity:1" /></g></svg>
