<?xml version="1.0" encoding="UTF-8" standalone="no"?>
<svg
   inkscape:export-ydpi="17.060751"
   inkscape:export-xdpi="17.060751"
   inkscape:export-filename="..\..\docs\_static\images\logos\product-logo-native-protocol-library.png"
   inkscape:version="1.2.2 (732a01da63, 2022-12-09)"
   sodipodi:docname="DCC-EX_product-native-protocol-library.svg"
   id="svg40"
   version="1.1"
   fill="none"
   viewBox="0 0 4500 900"
   height="900"
   width="4500"
   xmlns:inkscape="http://www.inkscape.org/namespaces/inkscape"
   xmlns:sodipodi="http://sodipodi.sourceforge.net/DTD/sodipodi-0.dtd"
   xmlns="http://www.w3.org/2000/svg"
   xmlns:svg="http://www.w3.org/2000/svg"
   xmlns:rdf="http://www.w3.org/1999/02/22-rdf-syntax-ns#"
   xmlns:cc="http://creativecommons.org/ns#"
   xmlns:dc="http://purl.org/dc/elements/1.1/">
  <metadata
     id="metadata44">
    <rdf:RDF>
      <cc:Work
         rdf:about="">
        <dc:format>image/svg+xml</dc:format>
        <dc:type
           rdf:resource="http://purl.org/dc/dcmitype/StillImage" />
      </cc:Work>
    </rdf:RDF>
  </metadata>
  <sodipodi:namedview
     inkscape:snap-object-midpoints="false"
     inkscape:guide-bbox="true"
     showguides="true"
     inkscape:current-layer="svg40"
     inkscape:window-maximized="1"
     inkscape:window-y="-11"
     inkscape:window-x="-11"
     inkscape:cy="610.4566"
     inkscape:cx="3324.8348"
     inkscape:zoom="1.3465331"
     showgrid="false"
     id="namedview42"
     inkscape:window-height="974"
     inkscape:window-width="1920"
     inkscape:pageshadow="2"
     inkscape:pageopacity="0"
     guidetolerance="10"
     gridtolerance="10"
     objecttolerance="10"
     borderopacity="1"
     bordercolor="#eeeeee"
     pagecolor="#505050"
     inkscape:document-rotation="0"
     inkscape:pagecheckerboard="0"
     width="4000px"
     inkscape:showpageshadow="0"
     inkscape:deskcolor="#505050" />
  <mask
     height="599"
     width="599"
     y="21"
     x="406"
     maskUnits="userSpaceOnUse"
     mask-type="alpha"
     id="mask0">
    <rect
       id="rect4"
       fill="#ffffff"
       transform="rotate(-45,406.51,320.148)"
       rx="56.537102"
       height="422.702"
       width="422.702"
       y="320.14801"
       x="406.51001" />
  </mask>
  <defs
     id="defs38">
    <rect
       x="-647.58897"
       y="1099.1189"
       width="2305.1791"
       height="1158.5307"
       id="rect4779" />
    <rect
       x="205.28384"
       y="1341.9482"
       width="1334.3451"
       height="174.87143"
       id="rect2482" />
    <rect
       x="720.49402"
       y="801.32397"
       width="243.95853"
       height="98.689613"
       id="rect4023" />
    <linearGradient
       gradientUnits="userSpaceOnUse"
       y2="597.09998"
       x2="707.41602"
       y1="-4.4348102"
       x1="707.41602"
       id="paint0_linear">
      <stop
         id="stop33"
         stop-color="#D3D3D3" />
      <stop
         id="stop35"
         stop-color="white"
         offset="1" />
    </linearGradient>
    <mask
       height="599"
       width="599"
       y="21"
       x="406"
       maskUnits="userSpaceOnUse"
       mask-type="alpha"
       id="mask0-5">
      <rect
         id="rect4-1"
         fill="#ffffff"
         transform="rotate(-45,406.51,320.148)"
         rx="56.537102"
         height="422.702"
         width="422.702"
         y="320.14801"
         x="406.51001" />
    </mask>
    <rect
       x="205.28384"
       y="1341.9482"
       width="1334.3451"
       height="174.87143"
       id="rect2482-4" />
    <mask
       height="599"
       width="599"
       y="21"
       x="406"
       maskUnits="userSpaceOnUse"
       mask-type="alpha"
       id="mask0-5-9">
      <rect
         id="rect4-1-1"
         fill="#ffffff"
         transform="rotate(-45,406.51,320.148)"
         rx="56.537102"
         height="422.702"
         width="422.702"
         y="320.14801"
         x="406.51001" />
    </mask>
    <linearGradient
       gradientUnits="userSpaceOnUse"
       y2="597.09998"
       x2="707.41602"
       y1="-4.4348102"
       x1="707.41602"
       id="paint0_linear-9">
      <stop
         id="stop33-8"
         stop-color="#D3D3D3" />
      <stop
         id="stop35-0"
         stop-color="white"
         offset="1" />
    </linearGradient>
    <rect
       x="205.28384"
       y="1341.9482"
       width="1334.3451"
       height="174.87143"
       id="rect2482-4-7" />
    <mask
       height="599"
       width="599"
       y="21"
       x="406"
       maskUnits="userSpaceOnUse"
       mask-type="alpha"
       id="mask0-5-7">
      <rect
         id="rect4-1-5"
         fill="#ffffff"
         transform="rotate(-45,406.51,320.148)"
         rx="56.537102"
         height="422.702"
         width="422.702"
         y="320.14801"
         x="406.51001" />
    </mask>
    <linearGradient
       gradientUnits="userSpaceOnUse"
       y2="597.09998"
       x2="707.41602"
       y1="-4.4348102"
       x1="707.41602"
       id="paint0_linear-0">
      <stop
         id="stop33-9"
         stop-color="#D3D3D3" />
      <stop
         id="stop35-1"
         stop-color="white"
         offset="1" />
    </linearGradient>
    <rect
       x="205.28384"
       y="1341.9482"
       width="1786.7344"
       height="176.57856"
       id="rect2482-4-7-6" />
    <rect
       x="205.28384"
       y="1341.9482"
       width="499.55879"
       height="133.90032"
       id="rect2482-4-7-6-3" />
    <rect
       x="205.28384"
       y="1341.9482"
       width="1334.3451"
       height="174.87143"
       id="rect2482-4-7-6-5" />
    <rect
       x="205.28384"
       y="1341.9482"
       width="1334.3451"
       height="174.87143"
       id="rect2482-4-7-6-3-9" />
    <mask
       height="599"
       width="599"
       y="21"
       x="406"
       maskUnits="userSpaceOnUse"
       mask-type="alpha"
       id="mask0-5-7-4">
      <rect
         id="rect4-1-5-9"
         fill="#ffffff"
         transform="rotate(-45,406.51,320.148)"
         rx="56.537102"
         height="422.702"
         width="422.702"
         y="320.14801"
         x="406.51001" />
    </mask>
    <linearGradient
       gradientUnits="userSpaceOnUse"
       y2="597.09998"
       x2="707.41602"
       y1="-4.4348102"
       x1="707.41602"
       id="paint0_linear-0-5">
      <stop
         id="stop33-9-5"
         stop-color="#D3D3D3" />
      <stop
         id="stop35-1-9"
         stop-color="white"
         offset="1" />
    </linearGradient>
    <rect
       x="205.28384"
       y="1341.9482"
       width="1575.0504"
       height="157.80014"
       id="rect2482-4-7-6-7" />
    <rect
       x="205.28384"
       y="1341.9482"
       width="499.55878"
       height="133.90031"
       id="rect2482-4-7-6-3-7" />
  </defs>
  <text
     xml:space="preserve"
     id="text2480-6-0-6-4-6"
     style="font-style:normal;font-variant:normal;font-weight:normal;font-stretch:normal;font-size:88.1171px;line-height:1.25;font-family:Audiowide;-inkscape-font-specification:'Audiowide, Normal';font-variant-ligatures:normal;font-variant-caps:normal;font-variant-numeric:normal;font-variant-east-asian:normal;letter-spacing:0px;word-spacing:0px;white-space:pre;shape-inside:url(#rect2482-4-7-6-3-7);display:inline;fill:#ffffff;fill-opacity:0.470588;stroke:none"
     transform="matrix(3.4802183,0,0,3.4802183,112.67083,-4555.0201)"
     inkscape:export-filename="D:\users\akers\documents\_personal -D\DCC-EX\product-logo-ex-commandstation.png"
     inkscape:export-xdpi="18.431187"
     inkscape:export-ydpi="18.431187"><tspan
       x="205.2832"
       y="1421.3719"
       id="tspan1310">DCC-EX</tspan></text>
  <rect
     style="fill:none;fill-opacity:1;stroke-width:0.377953;-inkscape-stroke:none;stop-color:#000000;stroke:none"
     id="rect46006"
     width="4501.5605"
     height="901.94586"
     x="-1.4852952"
     y="-1.4852883" />
  <text
     xml:space="preserve"
     id="text4021"
     style="font-size:14.6667px;line-height:2px;font-family:'Adobe Gothic Std';-inkscape-font-specification:'Adobe Gothic Std';letter-spacing:0px;word-spacing:0px;writing-mode:lr-tb;white-space:pre;shape-inside:url(#rect4023);display:inline;fill:none;stroke:#000000;stroke-width:1px;stroke-linecap:butt;stroke-linejoin:miter;stroke-opacity:1" />
  <text
     xml:space="preserve"
     id="text2480-6-0-6-4"
     style="font-style:normal;font-variant:normal;font-weight:normal;font-stretch:normal;font-size:88.1171px;line-height:1.25;font-family:Audiowide;-inkscape-font-specification:'Audiowide, Normal';font-variant-ligatures:normal;font-variant-caps:normal;font-variant-numeric:normal;font-variant-east-asian:normal;letter-spacing:0px;word-spacing:0px;white-space:pre;shape-inside:url(#rect2482-4-7-6-3);display:inline;fill:#000000;fill-opacity:1;stroke:none"
     transform="matrix(3.4802183,0,0,3.4802183,104.67083,-4563.0201)"
     inkscape:export-filename="D:\users\akers\documents\_personal -D\DCC-EX\product-logo-ex-commandstation.png"
     inkscape:export-xdpi="18.431187"
     inkscape:export-ydpi="18.431187"><tspan
       x="205.2832"
       y="1421.3719"
       id="tspan1316"><tspan
         style="fill:#00353d"
         id="tspan1312">DCC-</tspan><tspan
         style="fill:#00a3b9"
         id="tspan1314">EX</tspan></tspan></text>
  <text
     xml:space="preserve"
     id="text4777"
     style="font-style:normal;font-variant:normal;font-weight:normal;font-stretch:normal;font-size:16px;line-height:1.25;font-family:Impact;-inkscape-font-specification:Impact;letter-spacing:0px;word-spacing:0px;white-space:pre;shape-inside:url(#rect4779);display:inline;fill:#000000;fill-opacity:1;stroke:none" />
  <path
     d="m 235.73468,442.77494 a 80.013034,80.013034 0 0 1 0,-113.1384 l 18.8564,18.8564 a 54.675573,54.675573 0 0 0 0,75.4256 z"
     id="path1961"
     style="fill:#00a3b9;fill-opacity:1;stroke-width:13.3355" />
  <path
     d="m 198.02187,480.50104 a 133.35506,133.35506 0 0 1 0,-188.5907 l 18.8564,18.8564 a 106.68404,106.68404 0 0 0 0,150.8779 z"
     id="path1963"
     style="fill:#00a3b9;fill-opacity:1;stroke-width:13.3355" />
  <path
     d="m 179.16546,499.35744 -18.86974,18.8697 a 186.91045,186.91045 0 0 1 0,-264.0429 l 18.85641,18.8564 a 160.21276,160.21276 0 0 0 0.0133,226.3168 z"
     id="path1965"
     style="fill:#00a3b9;fill-opacity:1;stroke-width:13.3355" />
  <circle
     cx="386.2059"
     cy="292.31747"
     r="26.671011"
     id="circle1971"
     style="fill:#00353d;fill-opacity:1;stroke-width:13.3355"
     transform="matrix(0,1,1,0,0,0)" />
  <path
     d="m 409.73448,161.31549 h 240.0391 c 22.06763,0.0659 39.9406,17.93888 40.00651,40.00651 v 104.15024 l 50.54157,126.1539 c 1.86318,4.7585 2.81324,9.8255 2.80046,14.9358 v 137.089 c -0.071,14.4154 -4.74302,28.4316 -13.33551,40.0065 l -8.80143,11.7352 c -11.06887,14.7573 -15.51228,33.4486 -12.26867,51.6084 l 20.93675,75.6264 c 0.46961,3.7886 -0.74946,7.5921 -3.33388,10.4017 -2.5212,2.7935 -6.10528,4.3918 -9.86827,4.4007 H 569.76054 c -3.83752,0.029 -7.49415,-1.6288 -10.00163,-4.534 -2.54768,-2.8261 -3.7188,-6.6322 -3.20052,-10.4017 l 24.80404,-86.1615 c 0.62703,-3.4242 -0.0894,-6.9584 -2.00032,-9.8682 l -7.86795,-11.7353 H 409.73448 c -22.06763,-0.066 -39.9406,-17.9389 -40.00652,-40.0065 V 201.322 c 0.0659,-22.06763 17.93889,-39.94061 40.00652,-40.00651 z m 196.16528,396.19785 -7.20117,7.0678 c -10.00102,10.0121 -15.61367,23.5881 -15.60254,37.7395 v 5.6009 c -0.0159,10.5348 3.09356,20.8376 8.93479,29.6048 l 9.46821,14.1357 c 5.72237,8.3852 7.96918,18.6632 6.26768,28.6713 l -22.93707,70.4255 h 116.68568 l -19.20313,-60.0238 c -4.20891,-25.1513 2.05497,-50.9296 17.33616,-71.345 l 8.80143,-11.7352 c 5.17829,-6.9331 7.98411,-15.3505 8.00131,-24.0039 v -137.089 c 0.0261,-1.7342 -0.29116,-3.4564 -0.93349,-5.0675 l -25.73753,-64.2771 v 85.3472 c -0.005,7.0672 -2.83809,13.8386 -7.86794,18.8031 l -15.33584,15.3358 c -8.58292,8.7413 -22.04252,10.4513 -32.53863,4.134 l -41.60678,-25.0708 c -9.68681,-5.5867 -20.52244,5.249 -14.93576,14.9358 l 30.40495,50.5416 c 3.07081,5.2552 2.25205,11.9145 -2.00033,16.2693 z m -28.13791,-9.4682 c 0.66677,-0.6668 1.20019,-1.4669 1.86697,-2.0003 l -24.9374,-41.6068 c -8.89812,-14.7615 -6.5879,-33.6876 5.59975,-45.8753 12.18765,-12.1877 31.1138,-14.4979 45.8753,-5.5998 l 3.60059,2.1337 V 241.32854 H 449.74099 v 306.7166 z m -181.36288,66.6775 c 0,7.365 5.97051,13.3355 13.33551,13.3355 h 149.49101 c -1.7982,-6.5633 -2.7395,-13.3317 -2.80045,-20.1366 v -5.6009 c 0.0119,-9.4198 1.68211,-18.7639 4.93413,-27.6045 H 436.40549 c -7.365,0 -13.33551,-5.9705 -13.33551,-13.3355 v -333.3876 c 0,-7.365 5.97051,-13.3355 13.33551,-13.3355 h 186.69708 c 7.36499,0 13.3355,5.9705 13.3355,13.3355 v 243.1062 l 11.20183,6.8011 15.46918,-15.3358 V 201.322 c 0,-7.36499 -5.97051,-13.3355 -13.3355,-13.3355 h -240.0391 c -7.365,0 -13.33551,5.9705 -13.33551,13.3355 z"
     id="path1973"
     style="fill:#00a3b9;fill-opacity:1;stroke-width:13.3355"
     sodipodi:nodetypes="ccccccccccccccccccccccccccccccccccccccccccccccccccsccccccssccccsssssscccsssss" />
  <path
     d="m 529.75403,294.67054 a 53.342022,53.342022 0 1 1 -53.34203,53.342 53.342022,53.342022 0 0 1 53.34203,-53.342 z m 0,80.013 a 26.671011,26.671011 0 1 0 -26.67101,-26.671 26.671011,26.671011 0 0 0 26.67101,26.671 z"
     id="path1975"
     style="fill:#00353d;fill-opacity:1;stroke-width:13.3355" />
  <text
     xml:space="preserve"
     id="text2480-6-0-6-2"
     style="font-style:normal;font-variant:normal;font-weight:normal;font-stretch:normal;font-size:78.5391px;line-height:1.25;font-family:Audiowide;-inkscape-font-specification:'Audiowide, Normal';font-variant-ligatures:normal;font-variant-caps:normal;font-variant-numeric:normal;font-variant-east-asian:normal;letter-spacing:0px;word-spacing:0px;white-space:pre;shape-inside:url(#rect2482-4-7-6-7);display:inline;fill:#ffffff;fill-opacity:0.470588;stroke:none"
     transform="matrix(3.4802183,0,0,3.4802183,112.67054,-4189.4634)"
     inkscape:export-filename="D:\users\akers\documents\_personal -D\DCC-EX\product-logo-ex-turntable.png"
     inkscape:export-xdpi="18.431187"
     inkscape:export-ydpi="18.431187"><tspan
       x="205.2832"
       y="1412.7389"
       id="tspan1318">Native Protocol Library</tspan></text>
  <text
     xml:space="preserve"
     id="text2480-6-0-6"
     style="font-style:normal;font-variant:normal;font-weight:normal;font-stretch:normal;font-size:78.5391px;line-height:1.25;font-family:Audiowide;-inkscape-font-specification:'Audiowide, Normal';font-variant-ligatures:normal;font-variant-caps:normal;font-variant-numeric:normal;font-variant-east-asian:normal;letter-spacing:0px;word-spacing:0px;white-space:pre;shape-inside:url(#rect2482-4-7-6);display:inline;fill:#000000;fill-opacity:1;stroke:none"
     transform="matrix(3.4802183,0,0,3.4802183,104.67054,-4197.4634)"
     inkscape:export-filename="D:\users\akers\documents\_personal -D\DCC-EX\product-logo-ex-turntable.png"
     inkscape:export-xdpi="18.431187"
     inkscape:export-ydpi="18.431187"><tspan
       x="205.2832"
       y="1412.7389"
       id="tspan1322"><tspan
         style="fill:#00353d"
         id="tspan1320">Native Protocol Library</tspan></tspan></text>
  <path
     d="M 916.02466,472.51298 H 2102.0679"
     stroke="#000000"
     stroke-width="5.45568"
     id="path31-1-0"
     style="fill:#ffffff;fill-opacity:0.470588;stroke:#ffffff;stroke-opacity:0.47058824"
     inkscape:export-filename="D:\users\akers\documents\_personal -D\DCC-EX\product-logo-ex-commandstation.png"
     inkscape:export-xdpi="18.431187"
     inkscape:export-ydpi="18.431187" />
  <path
     d="M 910.02466,466.51298 H 2096.0679"
     stroke="#000000"
     stroke-width="5.45568"
     id="path31-1"
     style="fill:#000000"
     inkscape:export-filename="D:\users\akers\documents\_personal -D\DCC-EX\product-logo-ex-commandstation.png"
     inkscape:export-xdpi="18.431187"
     inkscape:export-ydpi="18.431187" />
</svg>
