<?xml version="1.0" encoding="UTF-8" standalone="no"?>
<!-- Created with Inkscape (http://www.inkscape.org/) -->

<svg
   width="210mm"
   height="297mm"
   viewBox="0 0 210 297"
   version="1.1"
   id="svg5"
   xml:space="preserve"
   inkscape:version="1.2.1 (9c6d41e410, 2022-07-14)"
   sodipodi:docname="github-bug.svg"
   inkscape:export-filename="..\docs\_static\images\buttons\github-bug.png"
   inkscape:export-xdpi="62.999477"
   inkscape:export-ydpi="62.999477"
   xmlns:inkscape="http://www.inkscape.org/namespaces/inkscape"
   xmlns:sodipodi="http://sodipodi.sourceforge.net/DTD/sodipodi-0.dtd"
   xmlns="http://www.w3.org/2000/svg"
   xmlns:svg="http://www.w3.org/2000/svg"><sodipodi:namedview
     id="namedview7"
     pagecolor="#505050"
     bordercolor="#eeeeee"
     borderopacity="1"
     inkscape:showpageshadow="0"
     inkscape:pageopacity="0"
     inkscape:pagecheckerboard="0"
     inkscape:deskcolor="#505050"
     inkscape:document-units="mm"
     showgrid="false"
     inkscape:zoom="2.1215981"
     inkscape:cx="304.01611"
     inkscape:cy="286.57642"
     inkscape:window-width="1600"
     inkscape:window-height="847"
     inkscape:window-x="1592"
     inkscape:window-y="-8"
     inkscape:window-maximized="1"
     inkscape:current-layer="layer1" /><defs
     id="defs2"><rect
       x="335.95601"
       y="255.2999"
       width="275.96387"
       height="242.6349"
       id="rect519" /></defs><g
     inkscape:label="Layer 1"
     inkscape:groupmode="layer"
     id="layer1"><path
       d="M 114.94157,62.808961 H 51.3659 c -4.008173,0 -6.728089,2.719917 -6.728089,6.727825 v 21.771768 c 0,4.008173 2.719916,6.72809 6.728089,6.72809 h 63.57567 c 4.00817,0 6.72809,-2.719917 6.72809,-6.72809 V 69.536786 c 0,-4.007908 -2.71992,-6.727825 -6.72809,-6.727825 z m 4.15793,26.685345 c 0,4.813681 -1.8196,5.971911 -5.97218,5.971911 H 53.180148 c -5.342778,0 -5.972175,-2.260781 -5.972175,-5.971911 V 71.351299 c 0,-4.637316 1.555053,-5.972176 5.972175,-5.972176 h 59.947172 c 4.24049,0 5.97218,1.290505 5.97218,5.972176 z"
       id="path132"
       style="fill:#00a3b9;fill-opacity:1;stroke-width:0.264583"
       sodipodi:nodetypes="ssssssssssssssssss" /><path
       id="XMLID_46_"
       d="m 76.850741,82.521343 c 0.557995,0 1.010163,-0.452168 1.010163,-1.010162 0,-0.557995 -0.452168,-1.010163 -1.010163,-1.010163 h -3.473033 c -0.16355,-1.106367 -0.461788,-2.135771 -0.885094,-3.09302 0.16355,-0.105828 0.3271,-0.216463 0.49065,-0.33191 2.063616,-1.433468 3.699117,-3.410499 4.733331,-5.7002 0.216463,-0.48584 0.0048,-1.053455 -0.481029,-1.274729 -0.485841,-0.216463 -1.053455,-0.0049 -1.274729,0.48103 -0.966869,2.135771 -2.535026,3.91077 -4.415851,5.118154 -0.09139,-0.134688 -0.187602,-0.264565 -0.283808,-0.389633 -0.784079,-1.024593 -1.707655,-1.808671 -2.717818,-2.328183 0.533944,-0.538754 0.832182,-1.207384 0.832182,-1.904877 0,-0.880285 -0.471409,-1.712466 -1.298779,-2.294512 -0.726355,-0.514701 -1.683604,-0.798509 -2.688956,-0.798509 -1.005352,0 -1.962601,0.283808 -2.693766,0.798509 -0.82256,0.577236 -1.298779,1.414227 -1.298779,2.294512 0,0.740785 0.336721,1.452708 0.938007,2.005892 -0.938007,0.519512 -1.79424,1.269919 -2.530216,2.227168 -0.07696,0.09621 -0.149118,0.197221 -0.221273,0.298238 -1.79905,-1.192954 -3.25657,-2.905418 -4.136854,-4.988277 -0.206843,-0.49065 -0.769648,-0.716734 -1.260298,-0.509891 -0.490649,0.206843 -0.721544,0.769647 -0.514702,1.260297 1.048646,2.477303 2.794783,4.521678 4.954605,5.921474 -0.380013,0.832181 -0.66863,1.717276 -0.846612,2.679335 h -3.439361 c -0.557994,0 -1.010162,0.452168 -1.010162,1.010162 0,0.557995 0.452168,1.010162 1.010162,1.010162 h 3.218088 c -0.0048,0.09621 -0.0048,0.264566 -0.0048,0.399255 0,1.592208 0.288619,3.126692 0.827372,4.512057 -1.245867,0.567615 -3.304673,1.818292 -4.449524,4.242681 -0.226083,0.481029 -0.02405,1.053454 0.456978,1.279539 0.134688,0.06253 0.274187,0.0914 0.408876,0.0914 0.360771,0 0.707113,-0.202033 0.870663,-0.553183 0.904335,-1.914498 2.61199,-2.91023 3.569239,-3.343156 0.177982,0.288618 0.365582,0.562804 0.567615,0.82737 1.510433,1.977032 3.549999,3.064159 5.729062,3.064159 2.183874,0 4.218629,-1.087127 5.729062,-3.064159 0.206843,-0.269376 0.399255,-0.553184 0.577235,-0.846611 0.947629,0.413685 2.674525,1.404605 3.602912,3.357586 0.16355,0.346341 0.509892,0.553184 0.870664,0.553184 0.139499,0 0.278997,-0.02886 0.408875,-0.0914 0.481029,-0.226083 0.683062,-0.798509 0.456979,-1.279538 -1.159282,-2.44363 -3.24695,-3.689497 -4.488007,-4.247492 0.524322,-1.346882 0.80813,-2.833263 0.822561,-4.372558 z M 65.387807,69.908748 c 1.183333,0 2.068427,0.615717 2.068427,1.168902 0,0.553184 -0.885094,1.168901 -2.068427,1.168901 -1.183332,0 -2.068427,-0.615717 -2.068427,-1.168901 0,-0.553185 0.885095,-1.168902 2.068427,-1.168902 z m -0.827371,20.573634 c -1.202574,-0.264567 -2.328183,-1.024593 -3.227708,-2.203115 -0.298238,-0.389635 -0.567615,-0.81775 -0.798509,-1.269919 -0.0049,-0.0096 -0.0096,-0.02405 -0.01443,-0.03368 -0.683061,-1.346884 -1.048643,-2.93428 -1.048643,-4.603453 0,-1.496003 0.293427,-2.92466 0.846611,-4.175337 1.327642,0.606097 2.765921,0.990921 4.261922,1.125609 l -0.05291,10.914561 c 0,0.09139 0.01443,0.168361 0.03368,0.245325 z M 61.289435,76.532525 c 0.01443,-0.01924 0.02887,-0.03849 0.0433,-0.05291 1.14004,-1.491192 2.631232,-2.308942 4.204198,-2.308942 1.568156,0 3.064159,0.822559 4.204198,2.308942 0.03368,0.0433 0.06734,0.08658 0.09621,0.129877 -1.293971,0.548373 -2.674526,0.851422 -4.074322,0.851422 -1.577776,-0.0048 -3.093019,-0.33191 -4.473575,-0.928387 z m 8.446879,11.746742 c -0.923576,1.207384 -2.078048,1.977031 -3.319103,2.222356 0.02405,-0.08177 0.03849,-0.168361 0.03849,-0.254946 l 0.05291,-10.890509 c 1.47676,-0.09139 2.924659,-0.447357 4.290784,-1.053454 0.524322,1.226625 0.803319,2.62161 0.803319,4.07432 -0.0096,2.241598 -0.668631,4.338887 -1.866395,5.902233 z"
       style="fill:#00353d;fill-opacity:1;stroke-width:0.0481029" /><text
       xml:space="preserve"
       transform="matrix(0.26458333,0,0,0.26458333,7.4078486,-4.9381734)"
       id="text517"
       style="font-style:normal;font-variant:normal;font-weight:normal;font-stretch:normal;font-size:120px;line-height:1.25;font-family:sans-serif;-inkscape-font-specification:'sans-serif, Normal';font-variant-ligatures:normal;font-variant-caps:normal;font-variant-numeric:normal;font-variant-east-asian:normal;letter-spacing:0px;word-spacing:0px;white-space:pre;shape-inside:url(#rect519);display:inline;fill:#00353d;fill-opacity:1;stroke:none"><tspan
         x="335.95508"
         y="364.48508"
         id="tspan3595">?</tspan></text></g><style
     type="text/css"
     id="style291">.st0{fill:none;}</style></svg>
